<?xml version="1.0" encoding="utf-8"?>
<!-- Generator: Adobe Illustrator 21.0.0, SVG Export Plug-In . SVG Version: 6.00 Build 0)  -->
<svg version="1.1" id="Capa_1" xmlns="http://www.w3.org/2000/svg" xmlns:xlink="http://www.w3.org/1999/xlink" x="0px" y="0px"
	 viewBox="0 0 512 512" style="enable-background:new 0 0 512 512;" xml:space="preserve">
<style type="text/css">
	.st0{fill:#263E7D;}
</style>
<g>
	<g>
		<path class="st0" d="M226.5,338c-4.8-1-9.6,2-10.6,6.9c0,0.1,0,0.2-0.1,0.3c-0.9,4.8,2.2,9.5,7.1,10.4c0.6,0.1,1.1,0.2,1.7,0.2
			c4.2,0,7.9-3,8.8-7.2c0,0,0-0.1,0-0.1C234.3,343.7,231.2,339,226.5,338z"/>
	</g>
</g>
<g>
	<g>
		<path class="st0" d="M255.7,428.2h-0.2c-4.9,0-8.9,4-8.9,8.9s4,8.9,8.9,8.9h0.2c4.9,0,8.9-4,8.9-8.9
			C264.6,432.2,260.6,428.2,255.7,428.2z"/>
	</g>
</g>
<g>
	<g>
		<path class="st0" d="M484.1,203.9c-0.9-2.9-3.3-5.1-6.2-5.9l-131.2-34.6v-39.9c0-16.9-13.7-30.6-30.6-30.6c-6.2,0-11.9,1.8-16.7,5
			l-35.8-55.6c-1.6-2.6-4.5-4.1-7.5-4.1c-3,0-5.9,1.5-7.5,4.1L194,126.9c-2.5-0.7-5.1-1-7.8-1c-16.9,0-30.6,13.7-30.6,30.6v9.5
			L34.1,198.1c-2.9,0.8-5.3,3-6.2,5.9c-0.9,2.9-0.3,6.1,1.6,8.4l89.9,110.1l-8,141.9c-0.2,3,1.2,5.9,3.7,7.7
			c1.5,1.1,3.4,1.7,5.2,1.7c1.1,0,2.2-0.2,3.2-0.6l64.2-24.9v16.6c0,4.9,4,8.9,8.9,8.9h103.2c4.9,0,8.9-4,8.9-8.9v-22.6l79.7,30.9
			c1,0.4,2.1,0.6,3.2,0.6c1.9,0,3.7-0.6,5.2-1.7c2.5-1.8,3.8-4.7,3.7-7.7l-8-141.9l89.9-110.1C484.4,210,485,206.8,484.1,203.9z
			 M303.3,123.5c0-7,5.7-12.7,12.7-12.7c7,0,12.7,5.7,12.7,12.7v112.6c-1-0.1-2-0.1-3-0.1h-22.5V123.5z M256,63.7l31.5,48.9
			c-1.3,3.4-2,7.1-2,10.9v69c-3.9-1.8-8.2-2.8-12.7-2.8c-8.4,0-16.1,3.4-21.6,9c-5.5-5.6-13.2-9-21.6-9c-4.5,0-8.8,1-12.7,2.8v-36
			c0-7.7-2.9-14.7-7.6-20.1L256,63.7z M260.1,238.7v-18.4c0-7,5.7-12.7,12.7-12.7c7,0,12.7,5.7,12.7,12.7V236h-12.7v0
			C268.2,236,263.9,237,260.1,238.7z M242.2,220.3L242.2,220.3v46.2v22.1c0,7-5.7,12.7-12.7,12.7c-7,0-12.7-5.7-12.7-12.7v-39.4
			v-28.9c0-7,5.7-12.7,12.7-12.7C236.5,207.6,242.2,213.3,242.2,220.3z M187.7,429.1L130,451.5l7.4-131.5c0.1-2.2-0.6-4.4-2-6.1
			l-83.3-102l103.5-27.3v61.1v72.9c0,28.3,12.1,54.7,32.1,73.4L187.7,429.1L187.7,429.1z M295.6,390.8
			C295.6,390.8,295.6,390.8,295.6,390.8C295.6,390.8,295.6,390.8,295.6,390.8C295.6,390.8,295.6,390.8,295.6,390.8
			c-0.3,0.2-0.6,0.3-0.8,0.5c-0.1,0.1-0.2,0.2-0.3,0.2c-0.1,0.1-0.2,0.2-0.4,0.3c-0.1,0.1-0.3,0.2-0.4,0.4c-0.1,0.1-0.2,0.1-0.2,0.2
			c-0.1,0.1-0.2,0.3-0.4,0.4c-0.1,0.1-0.1,0.2-0.2,0.2c-0.1,0.1-0.2,0.3-0.3,0.4c-0.1,0.1-0.1,0.2-0.2,0.3c-0.1,0.1-0.2,0.2-0.2,0.4
			c-0.1,0.1-0.2,0.3-0.2,0.4c-0.1,0.1-0.1,0.2-0.2,0.3c-0.1,0.2-0.1,0.3-0.2,0.5c0,0.1-0.1,0.2-0.1,0.3c-0.1,0.2-0.1,0.3-0.2,0.5
			c0,0.1-0.1,0.2-0.1,0.3c0,0.2-0.1,0.3-0.1,0.5c0,0.1,0,0.3-0.1,0.4c0,0.1,0,0.3-0.1,0.4c0,0.3,0,0.5,0,0.8c0,0,0,0,0,0.1v0
			c0,0,0,0,0,0.1v57.2h-85.4V446h23.9c4.9,0,8.9-4,8.9-8.9s-4-8.9-8.9-8.9h-23.9v-23c5.1,3,10.5,5.5,16.2,7.6c1,0.4,2,0.5,3.1,0.5
			c3.6,0,7.1-2.2,8.4-5.9c1.7-4.6-0.7-9.8-5.3-11.4c-32.5-11.9-54.4-43.1-54.4-77.5v-72.9v-89.1c0-7,5.7-12.7,12.7-12.7
			c7,0,12.7,5.7,12.7,12.7v63.8v28.9v39.4c0,15.6,11.8,28.5,26.9,30.3c-1.6,4-0.2,8.7,3.6,11c1.5,0.9,3.1,1.3,4.7,1.3
			c3,0,5.9-1.5,7.6-4.2c11.4-18.5,31.9-29.9,53.6-29.9h8.9c4.9,0,8.9-4,8.9-8.9s-4-8.9-8.9-8.9h-31.4c-7,0-12.7-5.7-12.7-12.7
			c0-7,5.7-12.7,12.7-12.7h53c2.5,0,4.9,0.7,6.8,2c0.1,0.1,0.2,0.1,0.3,0.2c3.3,2.3,5.5,6.1,5.5,10.5v52
			C338.5,348.6,322.1,376.2,295.6,390.8z M376.6,313.8c-1.4,1.7-2.1,3.9-2,6.1l7.4,131.5l-73.2-28.4v-19.3
			c29.5-18.3,47.6-50.4,47.6-85.3v-52c0-8.8-3.8-16.8-9.7-22.4v-62.3l113.3,29.9L376.6,313.8z"/>
	</g>
</g>
</svg>
