<?xml version="1.0" encoding="utf-8"?>
<!-- Generator: Adobe Illustrator 21.0.0, SVG Export Plug-In . SVG Version: 6.00 Build 0)  -->
<svg version="1.1" id="Calque_1" xmlns="http://www.w3.org/2000/svg" xmlns:xlink="http://www.w3.org/1999/xlink" x="0px" y="0px"
	 viewBox="0 0 216.4 100.5" style="enable-background:new 0 0 216.4 100.5;" xml:space="preserve">
<style type="text/css">
	.st0{fill:#FBEBD5;}
</style>
<g>
	<g>
		<path class="st0" d="M101,60.9c-0.9-0.2-1.8,0.4-2,1.3c0,0,0,0,0,0.1c-0.2,0.9,0.4,1.8,1.3,1.9c0.1,0,0.2,0,0.3,0
			c0.8,0,1.5-0.6,1.6-1.3l0,0C102.4,62,101.9,61.1,101,60.9z"/>
	</g>
</g>
<g>
	<g>
		<path class="st0" d="M106.4,77.7L106.4,77.7c-0.9,0-1.7,0.7-1.7,1.7c0,0.9,0.7,1.7,1.7,1.7l0,0c0.9,0,1.7-0.7,1.7-1.7
			S107.3,77.7,106.4,77.7z"/>
	</g>
</g>
<g>
	<g>
		<path class="st0" d="M144.9,34.4c-0.2-0.5-0.5-0.8-1-1l-21.3-5.6v-6.5c0-2.7-2.2-5-5-5c-1,0-1.9,0.3-2.7,0.8l-5.8-9
			c-0.3-0.4-0.7-0.7-1.2-0.7s-0.9,0.2-1.2,0.7L97.9,22c-0.4-0.1-0.8-0.2-1.3-0.2c-2.7,0-5,2.2-5,5v1.5l-19.7,5.2
			c-0.5,0.1-0.9,0.5-1,1c-0.2,0.5-0.1,1,0.3,1.4l14.6,17.8l-1.3,23c0,0.5,0.2,1,0.6,1.3c0.3,0.2,0.5,0.3,0.9,0.3
			c0.2,0,0.4,0,0.5-0.1l10.4-4v2.7c0,0.8,0.6,1.4,1.4,1.4H115c0.8,0,1.4-0.6,1.4-1.4v-3.7l12.9,5c0.2,0.1,0.3,0.1,0.5,0.1
			c0.3,0,0.6-0.1,0.9-0.3c0.4-0.3,0.6-0.8,0.6-1.3l-1.3-23l14.6-17.8C144.9,35.4,145,34.9,144.9,34.4z M115.6,21.4
			c0-1.1,0.9-2.1,2.1-2.1c1.1,0,2.1,0.9,2.1,2.1v18.2c-0.2,0-0.3,0-0.5,0h-3.6L115.6,21.4L115.6,21.4z M107.9,11.7l5.1,7.9
			c-0.2,0.6-0.3,1.1-0.3,1.8v11.2c-0.6-0.3-1.3-0.5-2.1-0.5c-1.4,0-2.6,0.6-3.5,1.5c-0.9-0.9-2.1-1.5-3.5-1.5
			c-0.7,0-1.4,0.2-2.1,0.5v-5.8c0-1.2-0.5-2.4-1.2-3.3L107.9,11.7z M108.6,40.1v-3c0-1.1,0.9-2.1,2.1-2.1c1.1,0,2.1,0.9,2.1,2.1v2.5
			h-2.1l0,0C109.9,39.6,109.2,39.8,108.6,40.1z M105.7,37.1L105.7,37.1v7.5v3.6c0,1.1-0.9,2.1-2.1,2.1c-1.1,0-2.1-0.9-2.1-2.1v-6.4
			v-4.7c0-1.1,0.9-2.1,2.1-2.1S105.7,36,105.7,37.1z M96.9,70.9l-9.4,3.6l1.2-21.3c0-0.4-0.1-0.7-0.3-1L74.9,35.7l16.8-4.4v9.9V53
			c0,4.6,2,8.9,5.2,11.9V70.9L96.9,70.9z M114.3,64.7L114.3,64.7L114.3,64.7L114.3,64.7C114.2,64.7,114.2,64.8,114.3,64.7
			c-0.1,0.1-0.1,0.1-0.2,0.1c0,0,0,0-0.1,0c0,0,0,0-0.1,0.1l0,0c0,0,0,0-0.1,0.1l0,0c0,0,0,0,0,0.1l0,0c0,0,0,0,0,0.1c0,0,0,0,0,0.1
			c0,0,0,0,0,0.1v0.1l0,0v0.1c0,0,0,0,0,0.1v0.1c0,0,0,0,0,0.1c0,0,0,0,0,0.1v0.1l0,0l0,0l0,0v9.3H100v-1.6h3.9
			c0.8,0,1.4-0.6,1.4-1.4s-0.6-1.4-1.4-1.4H100v-3.7c0.8,0.5,1.7,0.9,2.6,1.2c0.2,0.1,0.3,0.1,0.5,0.1c0.6,0,1.1-0.4,1.4-0.9
			c0.3-0.8-0.1-1.6-0.9-1.9c-5.3-1.9-8.8-7-8.8-12.6v-12V26.8c0-1.1,0.9-2.1,2.1-2.1c1.1,0,2.1,0.9,2.1,2.1v10.3v4.7v6.4
			c0,2.5,1.9,4.6,4.4,4.9c-0.3,0.6,0,1.4,0.6,1.8c0.2,0.1,0.5,0.2,0.8,0.2c0.5,0,1-0.2,1.2-0.7c1.8-3,5.2-4.9,8.7-4.9h1.4
			c0.8,0,1.4-0.6,1.4-1.4s-0.6-1.4-1.4-1.4H111c-1.1,0-2.1-0.9-2.1-2.1c0-1.1,0.9-2.1,2.1-2.1h8.6c0.4,0,0.8,0.1,1.1,0.3
			c0,0,0,0,0.1,0c0.5,0.4,0.9,1,0.9,1.7v8.4C121.3,57.9,118.6,62.4,114.3,64.7z M127.5,52.2c-0.2,0.3-0.3,0.6-0.3,1l1.2,21.3
			l-11.9-4.6v-3.1c4.8-3,7.7-8.2,7.7-13.8v-8.4c0-1.4-0.6-2.7-1.6-3.6V30.9l18.4,4.8L127.5,52.2z"/>
	</g>
</g>
<g>
	<g>
		<path class="st0" d="M66.2,44.4c-18.9,0-37.7,0-56.6,0c-1.9,0-1.9,3,0,3c1.7,0,3.5,0,5.2,0c1.9,0,1.9-3,0-3c-1.7,0-3.5,0-5.2,0
			c-1.9,0-1.9,3,0,3c18.9,0,37.7,0,56.6,0C68.2,47.4,68.2,44.4,66.2,44.4L66.2,44.4z"/>
	</g>
</g>
<g>
	<g>
		<path class="st0" d="M205.2,44.4c-18.9,0-37.7,0-56.6,0c-1.9,0-1.9,3,0,3c1.7,0,3.5,0,5.2,0c1.9,0,1.9-3,0-3c-1.7,0-3.5,0-5.2,0
			c-1.9,0-1.9,3,0,3c18.9,0,37.7,0,56.6,0C207.2,47.4,207.2,44.4,205.2,44.4L205.2,44.4z"/>
	</g>
</g>
</svg>
