<?xml version="1.0" encoding="utf-8"?>
<!-- Generator: Adobe Illustrator 21.0.0, SVG Export Plug-In . SVG Version: 6.00 Build 0)  -->
<svg version="1.1" id="Layer_1" xmlns="http://www.w3.org/2000/svg" xmlns:xlink="http://www.w3.org/1999/xlink" x="0px" y="0px"
	 viewBox="0 0 512 512" style="enable-background:new 0 0 512 512;" xml:space="preserve">
<style type="text/css">
	.st0{fill:#263E7D;}
</style>
<g>
	<g>
		<path class="st0" d="M487.9,294.6c-0.6-3-2.9-5.3-5.9-5.9c-0.3-0.1-25.9-5.4-44.5-22.2c1.6-3.2,2.5-6.7,2.5-10.5
			c0-3-0.6-5.9-1.6-8.5h2.7c12.6,0,22.9-10.6,22.9-23.6v-16c0-32.5-22.3-61.6-62.8-82.1c-18.2-9.2-39.6-16.4-63.1-21.4
			c-0.2,0-0.4-0.1-0.6-0.1c-25.2-5.3-52.8-8.1-81.4-8.1c-55.7,0-107.2,10.5-145.1,29.7c-40.5,20.5-62.8,49.6-62.8,82.1v16
			c0,11.2,7.7,20.6,17.9,23c-1.2,2.8-1.8,5.9-1.8,9.1c0,5.6,2,10.7,5.2,14.8c-13.3,4.6-30,9.8-37.8,9.8c-3.4,0-6.3,2.2-7.2,5.4
			c-0.9,3.2,0.4,6.7,3.2,8.4L49.3,308C39.1,313.3,32,323.9,32,336.2c0,15.5,11.2,28.3,25.9,31c-1.2,2.8-1.8,5.8-1.8,9
			c0,21.8,17.8,39.6,39.6,39.6h320.7c21.8,0,39.6-17.8,39.6-39.6c0-3.2-0.6-6.3-1.8-9c14.7-2.7,25.9-15.6,25.9-31
			c0-9.2-4.1-17.7-10.7-23.6l15.3-10.2C487.2,300.7,488.4,297.6,487.9,294.6z M463.1,298.7l-11.7,7.8c-0.4,0.2-0.8,0.5-1.1,0.7
			L434,318c-1.5,1-3.4,1.2-5.1,0.5l-49.7-21.3c-3.3-1.4-7.2-0.3-9.2,2.7l-7.9,11.8c-4.6-4.4-14.3-15-22.6-32.2h12.7
			c6.2,0,11.8-2.4,16-6.3c4.2,3.9,9.8,6.3,16,6.3h9.9c1.6,4.9,4.6,9.7,8.8,14.5c4.4,4.8,8.5,7.8,9,8.2c1.3,0.9,2.8,1.4,4.3,1.4
			c2.4,0,4.7-1.1,6.1-3.2c2.4-3.4,1.6-8.1-1.8-10.5c-2.2-1.6-6.9-5.6-9.9-10.4h5.6c3.8,0,7.3-0.9,10.5-2.5c0.2,0.2,0.3,0.4,0.5,0.5
			C439.1,288.2,452.7,294.8,463.1,298.7z M123,279.6h20.8c1.7,0,3.3-0.2,4.9-0.5c-0.7,1.5-1.6,3-2.7,4.3c-2.6,3.2-2.2,7.9,1,10.6
			c1.4,1.1,3.1,1.7,4.8,1.7c2.2,0,4.3-0.9,5.8-2.7c4-4.9,6.3-10.7,7.7-15.8c3.2,1.6,6.7,2.5,10.5,2.5h59.5
			c3.5,6.4,11.1,18.6,23.5,30.1c1.4,1.3,3.3,2,5.1,2c2,0,4-0.8,5.5-2.4c2.8-3,2.6-7.8-0.4-10.6c-7.1-6.6-12.5-13.5-16.2-19H264
			c6.2,0,11.8-2.4,16-6.3c4.2,3.9,9.8,6.3,16,6.3h27c6.4,15.4,14.2,26.7,20.5,34.3l-33.3-12.5c-9.8-3.7-20.8-1.3-28.2,6.1L268.5,321
			c-3.1,3.1-7.9,3.5-11.4,0.9l-44.8-32c-2-1.5-4.7-1.8-7-0.9l-59.6,22.4L133,298.8c-2.6-2.6-6.8-2.9-9.8-0.7l-22.1,16.5
			c-3.5,2.6-8.4,2.8-12.1,0.5l-4.4-2.7C93.9,305.9,108.8,294.5,123,279.6z M87.6,264.5c-4.7,0-8.5-3.8-8.5-8.5s3.8-8.5,8.5-8.5h56.1
			c4.7,0,8.5,3.8,8.5,8.5s-3.8,8.5-8.5,8.5H87.6z M167.3,256c0-4.7,3.8-8.5,8.5-8.5H264c4.7,0,8.5,3.8,8.5,8.5s-3.8,8.5-8.5,8.5
			h-24.2c0,0,0,0,0,0h-64C171.1,264.5,167.3,260.7,167.3,256z M287.6,256c0-4.7,3.8-8.5,8.5-8.5h56.1c4.7,0,8.5,3.8,8.5,8.5
			s-3.8,8.5-8.5,8.5h-56.1C291.4,264.5,287.6,260.7,287.6,256z M375.8,256c0-4.7,3.8-8.5,8.5-8.5h32.1c4.7,0,8.5,3.8,8.5,8.5
			s-3.8,8.5-8.5,8.5h-32.1C379.6,264.5,375.8,260.7,375.8,256z M63.1,223.9v-16c0-17.3,8.2-33.4,22.9-47.1l36.4,36.4
			c1.5,1.5,3.4,2.2,5.3,2.2c1.9,0,3.8-0.7,5.3-2.2c2.9-2.9,2.9-7.7,0-10.6l-35.4-35.4c5.1-3.6,10.6-7,16.6-10.2l56.2,56.2
			c1.5,1.5,3.4,2.2,5.3,2.2c1.9,0,3.8-0.7,5.3-2.2c2.9-2.9,2.9-7.7,0-10.6l-52.5-52.5c6.2-2.6,12.7-5.1,19.5-7.3l70.4,70.4
			c1.5,1.5,3.4,2.2,5.3,2.2c1.9,0,3.8-0.7,5.3-2.2c2.9-2.9,2.9-7.7,0-10.6L164.7,122c7.1-1.8,14.4-3.4,22-4.8l80,80
			c1.5,1.5,3.4,2.2,5.3,2.2c1.9,0,3.8-0.7,5.3-2.2c2.9-2.9,2.9-7.7,0-10.6l-72.2-72.2c8-1,16.1-1.8,24.5-2.3l85.2,85.2
			c1.5,1.5,3.4,2.2,5.3,2.2c1.9,0,3.8-0.7,5.3-2.2c2.9-2.9,2.9-7.7,0-10.6l-75.3-75.3c1.9,0,3.9,0,5.9,0c7.3,0,14.5,0.2,21.5,0.5
			l85.4,85.4c1.5,1.5,3.4,2.2,5.3,2.2c1.9,0,3.8-0.7,5.3-2.2c2.9-2.9,2.9-7.7,0-10.6l-73-73c11,1.2,21.7,2.9,31.8,4.9l78.7,78.7
			c1.5,1.5,3.4,2.2,5.3,2.2s3.8-0.7,5.3-2.2c2.9-2.9,2.9-7.7,0-10.6l-60.7-60.7c53.7,16.8,88,46.6,88,82.1v16c0,4.7-3.5,8.5-7.9,8.5
			H71C66.6,232.4,63.1,228.6,63.1,223.9z M89.1,279.6h12.5c-13,11.9-25.3,20.5-30.8,24.2L52,292C67.1,287.9,83.7,281.6,89.1,279.6z
			 M416.3,400.8H95.7c-13.5,0-24.6-11-24.6-24.6c0-4.7,3.8-8.5,8.5-8.5h352.8c4.7,0,8.5,3.8,8.5,8.5
			C440.9,389.8,429.9,400.8,416.3,400.8z M448.4,352.7H63.6c-9.1,0-16.5-7.4-16.5-16.5c0-9.1,7.4-16.5,16.5-16.5h4.3l13.2,8.3
			c9,5.6,20.7,5.1,29.1-1.2l9.4-7h13.1l5.8,5.8c2.1,2.1,5.2,2.8,8,1.7l20.1-7.5h61.4l20.4,14.6c4.2,3,9.1,4.5,13.9,4.5
			c6.2,0,12.3-2.4,16.9-7l12-12H316c0,0,0.1,0,0.1,0l30,11.2c10.1,3.8,21.3,0.2,27.2-8.8l1.6-2.4h18.5l29.6,12.7
			c6.4,2.7,13.6,2.1,19.3-1.8l13.6-9.1c5.4,2.8,9,8.4,9,14.7C465,345.3,457.5,352.7,448.4,352.7z"/>
	</g>
</g>
</svg>
