<?xml version="1.0" encoding="utf-8"?>
<!-- Generator: Adobe Illustrator 21.0.0, SVG Export Plug-In . SVG Version: 6.00 Build 0)  -->
<svg version="1.1" id="Calque_1" xmlns="http://www.w3.org/2000/svg" xmlns:xlink="http://www.w3.org/1999/xlink" x="0px" y="0px"
	 viewBox="0 0 774 636" style="enable-background:new 0 0 774 636;" xml:space="preserve">
<style type="text/css">
	.st0{fill:#FBEBD5;}
	.st1{fill:#FAEBD5;}
	.st2{fill:#E6E2DD;}
	.st3{fill:#F1E5D5;}
	.st4{fill:#E9E5E0;}
	.st5{fill:#F0EBD5;}
	.st6{fill:#E7E3DE;}
	.st7{fill:#E6E7E7;}
	.st8{fill:#F0E4D4;}
	.st9{fill:#E8E9E9;}
	.st10{fill:#E8DFD4;}
	.st11{fill:#E9EAEA;}
	.st12{fill:#EAE6E1;}
	.st13{fill:#F2E6D6;}
	.st14{fill:#EFCEF7;}
	.st15{fill:#EBE7E2;}
	.st16{fill:#E8E4DF;}
	.st17{fill:#EBE6E0;}
	.st18{fill:#EBE8E3;}
	.st19{fill:#EBE4DB;}
	.st20{fill:#F0DDD2;}
	.st21{fill:#F5F2F0;}
	.st22{fill:#EAE2D8;}
	.st23{fill:#EAE1D6;}
	.st24{fill:#EAE2D7;}
	.st25{fill:#E8E3DE;}
	.st26{fill:#EAE7E1;}
	.st27{fill:#E6DDD2;}
	.st28{fill:#E7DED3;}
	.st29{fill:#FFFFFF;}
	.st30{fill:#FBFBFA;}
	.st31{fill:#FDFEFD;}
	.st32{fill:#EAE5E1;}
	.st33{fill:#FBFCFC;}
	.st34{fill:#F9F9F9;}
	.st35{fill:#FBFBFB;}
	.st36{fill:#F8F9F8;}
	.st37{fill:#ECE7E1;}
	.st38{fill:#EBE6E1;}
	.st39{fill:#E5E1DC;}
	.st40{fill:#F4EADD;}
	.st41{fill:#F4EADE;}
</style>
<g>
	<path class="st0" d="M557.9,381.1c0.4-3.9,0.9-7.8,1.3-11.7c0.4-4.3,0.7-8.5,1-12.8c-1.5-0.2-1.7,0.9-1.8,1.6
		c-1.6,6-3.4,12.1-4,18.3c-0.3,3.4-0.1,6.9-0.1,10.4c0,2.1,0,4.2-0.5,6.2c-0.4,1.4-0.4,3-0.1,4.4c0.8,3.1,0.7,6.1,0.6,9.2
		c-0.2,7.1,1.4,13.9,2.7,20.8c0.8,3.9,1.7,7.7,4.1,11.3c1-1.6,1.6-2.8,0.9-4.5c-0.5-1.3-0.3-2.7-0.3-4c0-0.5,0-1,0.6-1.2
		c0.7-0.3,1.1,0.3,1.6,0.7c0.8,0.8,0.9,1.8,0.8,2.8c-0.2,2.4,0.7,4.5,1.1,7.3c2.7-2.7,3.8-6.4,7.1-8.5c0.3,2.2-0.5,3.6-1.5,5
		c-1.3,1.9-2.1,3.8-2.6,6.1c-0.3,1.3-0.2,2.4,0.8,2.9c1.1,0.5,1.7-0.7,2.2-1.5c0.5-0.7,0.9-1.4,1.4-2.3c1.5,1.4,1.1,2.8,0.7,4.2
		c-0.2,0.6-0.5,1.2,0.1,1.7c0.7,0.6,1.4,0.3,2,0c2.6-1.3,4.3-3.3,4.2-6.4c0-1.4,0-2.9,0-4.6c2.8,1.2,2.6,3.8,3.7,5.6
		c1.4,0.6,0.9,2,1.4,2.7c-0.3-0.9-0.2-2.2-0.6-3.5c0.1-0.6,0.2-1.4,1-1.2c0.8,0.3,1.4,0.9,2.1,1.4c1-0.4,0.2-1.8,1.2-2.1
		c0.9-0.3,1.3,0.5,1.9,1c0.4,0.3,0.9,0.8,1.3,0.4c1.7-1.6,2.2,0.1,3.1,1c0.9,0.9,1.7,0.6,2-0.7c0.3-1.2-0.3-2.7,0.7-4.2
		c1.4,1.7,1.4,4.3,3.9,5c1.7-3,1.1-6.5,2.5-9.7c2.1,1.6,2.1,3.7,1.6,5.8c-0.4,1.3-0.5,2.4,0.5,3.6c1.8-1.3,2.3-3.6,4.2-5.2
		c0.9,0.9,1.3,1.9,0.9,3.2c-0.2,0.6,0,1.2,0.4,1.7c1.9,2,3.4,1.8,4.4-0.7c0.2-0.5,0.1-1.2,0.6-1.7c1.1-0.1,1,0.9,1.2,1.5
		c0.6,1.9,1.1,3.5,2.9,4.9c1.7,1.2,1.6,3.7,2.8,5.5c4.2,6.6,7.8,13.4,10,21c0.7,2.5,0.7,2.6-1.8,3.8c-3-0.6-5.9-0.6-8.9,0
		c-1.4,0-2.7,0-4.1,0c-148.7,0-297.3,0-446,0c-8.7,0-7.7-1.3-9.9-7.6c-0.9-2.6-1-5.3-0.9-8c-0.6-2.5-0.6-5,0-7.4
		c0.9-1.7,2.4-1.7,3.8-1.3c4.1,1.3,8-0.1,11.9-1.1c1.8-0.4,3.1-0.7,4.9,0.2c7.7,3.9,16,0.1,18.9-7.3c1.2-3,0.8-6.2,0.3-9.2
		c-1.2-7.6-3.9-14.8-7.3-21.6c-2.1-4.3-4.3-8.6-6.7-12.8c-2.4-4.3-4.3-8.9-6.4-13.4c-0.9-1.9-1.2-4-1-6.1c0.7-7.4-1.1-14.4-3.4-21.4
		c-1.7-5.2-4.4-9-9.1-12c-7.4-4.6-12.8-11.3-17.5-18.7c-3.6-5.7-6-11.9-8.5-18c-0.4-1.1-0.6-2.3-2.4-3.5c0.4,4.1-0.5,7.5-0.6,11
		c-0.1,2.8-0.1,5.6-0.7,8.4c-0.6,3-1.9,5.6-4,7.7c-2.3,2.4-4.7,4.7-7.1,7.1c-2.7,2.7-5.6,5.2-7,9c-0.2,0.7-0.8,1.2-1.3,1.8
		c-0.8,1.1-1.5,0.5-2-0.3c-0.2-0.3-0.3-0.7-0.3-1c-0.6-3.8-1.4-7.6-0.9-11.6c0.4-3.3,0.5-6.6,1.4-9.8c1.7-6.8,5.6-12,11.4-15.8
		c3.4-2.3,5.8-5.1,6.9-9.2c1.5-5.4,0-10.2-2.5-14.9c-3.5-6.5-8.5-11.7-13.2-17.2c-4.1-4.7-6.6-9.9-6.7-16.3
		c-0.2-6.9,1.1-13.4,4.2-19.6c3.9-7.8,9.5-14,16.6-19c5-3.6,10.4-6.6,15.9-9.5c6-3.1,11.7-6.8,17.5-10.3c7.1-4.2,14.6-7.8,22.1-11.2
		c11-5.1,22.5-8.6,34-12.3c6.1-1.9,12.3-3.4,18.4-5.2c5.6-1.6,11.2-2.8,16.8-4c8-1.7,16.2-2.8,24.4-3.9c7.1-0.9,14.2-1.4,21.2-2.3
		c6.1-0.8,12.2-1,18.3-1.6c4.2-0.4,8.3-0.7,12.4,0.1c2.6,0.5,5.1-0.7,7.7-0.7c4.7,0,9.3,0.9,14,0.8c4.5-0.1,9,0.5,13.5,0.8
		c9.4,0.7,18.7,1.5,28,3.3c5.5,1,11.1,2.2,16.6,3.3c6.5,1.2,13.1,2.3,19.5,3.7c11.4,2.4,22.8,4.9,33.9,8.5
		c10.7,3.4,21,7.9,31.6,11.5c12.5,4.3,24.2,10.6,35.9,16.6c6.1,3.2,12,6.8,17.8,10.6c8.5,5.7,17.5,10.7,25.4,17.2
		c4.2,3.5,8.2,7.3,12.3,11.1c3.6,3.3,7,6.9,10.7,10.2c5.9,5.2,10.9,11.4,16.1,17.3c8.1,9.2,13.9,19.7,19.2,30.5
		c1.8,3.6,2,3.6,5.7,2.2c4.2-1.6,8.4-2.8,12.9-3c4.8-0.2,9.7-0.3,14.5-0.4c6.2-0.1,12.2,0.8,18.2,1.3c5.1,0.5,9.9-0.8,14.9-0.5
		c2.2,0.1,2.7,0.5,2,2.5c-2.3,6.8-4.9,13.3-9.8,18.9c-7,7.9-14.8,14.3-24.7,18c-3.3,1.2-6.3,3.4-10.1,3.3c-1.1,0-1.6,0.8-1.4,2.1
		c0.5,2.9,0.8,5.8,1.2,8.8c0.5,3.5,1.1,7,1.6,10.6c0.6,4.4,2.4,7.9,6.2,10.4c2.5,1.7,4.9,3.8,7.2,5.7c3.6,2.9,7.8,4.7,12.2,6.1
		c2.2,0.7,4.6,0.6,6.7-0.8c1.1-0.7,2.1-1,3.5-0.7c3.1,0.7,4.2,2.4,3,5.3c-1.2,3.2-2.6,6.4-4,9.5c-2.6,5.8-5.3,11.7-7.7,17.6
		c-1.5,3.6-4.4,5.1-8.1,5.5c-3.7,0.4-7-1-10.5-1.8c-1.1-0.2-2.2-0.5-3.3-0.5c-1.1,0.1-1.6,0.6-1.3,1.7c0.2,0.9,1,1.9-0.2,2.6
		c-1.2,0.8-2.5,1.7-4.1,1.5c-1.8-0.2-3.7-0.5-5.4-1c-7.3-2-14.7-3.1-22.2-2.5c-4.5,0.4-9,0.5-13.5,1.1c-3.5,0.5-7.1,1-10.6,1
		c-2.2,0-4.4-0.2-6.6,0.6c-2.2,0.7-4.3-0.6-6.6-0.6c-5.3,0-10.4-1-15.7-1.7c-2.7-0.3-5.2-1.4-7.7-2.6c-4.5-2.1-8.8-4.4-13.3-6.6
		c-1.7-0.8-2.9-1.9-2.7-4C557.3,400.9,557.3,391,557.9,381.1z"/>
	<path class="st0" d="M353.2,113.2c0-8.9,0-17.8,0-26.7c0.8-8.7,0.2-17.4,0.4-26.1c0-1,0.3-2-0.4-2.9c0-6.4,0-12.8,0-19.4
		c-1.8,0.1-2,1.3-2.4,2.5c-1.6,4.9-3.2,9.9-4.7,14.8c-1.5,4.9-2.9,9.9-4.5,14.8c-3.7,11.6-7.4,23.2-11.1,34.9
		c-0.7,2.3-1.3,4.7-2.1,7.1c-0.3,0.9-0.6,2.1-1.8,2.2c-1.1,0.1-1.2-1.1-1.6-1.8c-9.7-15.6-19.3-31.2-29-46.8c-1-1.6-2-3.1-3.1-4.9
		c-1.1,1.2-0.7,2.5-0.5,3.6c1.8,9.4,2.7,18.9,4.2,28.4c1.7,10.9,3.2,21.8,5.4,32.7c0.5,2.5,1.3,5,1.7,7.6c0.4,2.5,2.1,3.4,4.6,3
		c0.4-0.1,0.7-0.4,1-0.3c1.3,0.1,3.2,0,3.4,1.4c0.2,1.5-1.7,1.6-2.8,1.8c-3.2,0.5-6.5,0.8-9.8,1c-3,0.3-6,0.4-9.1,0.6
		c-0.5,0-1,0-1.4-0.2c-0.3-0.1-0.6-0.5-0.6-0.8c0-0.3,0.3-0.8,0.5-0.8c1.2-0.4,2.3-0.8,3.6-0.9c2.5-0.2,3.5-1.2,3.7-3.6
		c0.2-2.1,0.4-4.3-0.1-6.3c-0.6-2.7-0.6-5.4-0.6-8.1c0-5.2-0.9-10.3-1.3-15.4c-0.4-4.9-1.3-9.7-1.8-14.6c-0.5-4.9-1.3-9.7-1.9-14.6
		c-0.4-2.9-0.9-5.9-0.9-8.8c0-2.9-0.7-5.6-1-8.4c-0.3-3.3-2-6.3-4.3-8.8c-1.7-1.8-3.1-3.8-4.2-6c-0.9-1.9-2.4-2.7-4.5-2.5
		c-1.6,0.1-3.2,0-4.8,0c-0.8,0-1.5-0.4-1.6-1.2c-0.2-1.1,0.7-1.5,1.6-1.6c3.5-0.4,7-0.8,10.5-1.3c2.7-0.3,5.3-0.7,8-1
		c2.5-0.3,4.2,0.8,5.5,2.9c8.5,13.7,17.1,27.4,25.7,41.1c2.6,4.2,5.2,8.4,7.8,12.5c1,1.6,1.9,1.5,2.5-0.3c1-2.8,1.9-5.6,2.8-8.4
		c4.9-14.9,9.7-29.8,14.7-44.6c0.7-2.1,0.6-4.4,2.2-6.2c4.7-1.5,9.5-0.6,14.3-0.7c3.9,0,7.9-0.8,11.7,0.7c0.3,1.7-0.9,2-2,2.2
		c-1.2,0.2-2.4,0.1-3.6-0.2c-2.7-0.6-3.9,0.3-4,3c-0.1,3.8,0,7.6-0.1,11.4c0,0.5,0,1,0,1.5c-0.8,4.7-0.1,9.5-0.4,14.2
		c-0.1,1.4,0.3,2.9-0.3,4.3c0,10.1,0,20.3-0.1,30.4c-0.8,4-0.1,8-0.4,12c-0.1,1.4,0.3,2.9-0.3,4.3c0,4.7,0,9.3,0,14
		c0,3.4,0.2,3.6,3.4,3.8c1.3,0.1,2.7,0.1,3.7,1.5c-1,1.3-2.3,1.8-3.8,1.2c-1.6-0.6-3.1-0.2-4.7,0c-5.6,0.5-11.3,0.3-16.9,0.1
		c-1,0-2.1-0.3-3-1.3c0.6-1.2,1.6-1.5,2.7-1.5c1.5,0.5,2.9,0.6,4.4,0c0.7-0.3,1.2-0.8,1.5-1.5C353.8,125.6,353.7,119.4,353.2,113.2z
		"/>
	<path class="st0" d="M122.4,85.2c-2.3,1.3-4.2,2.4-6.1,3.5c-2.4,1.4-2.5,1.4-1.2,4c2.7,5.6,5.3,11.2,8,16.7
		c5.4,11,10.9,21.9,16.4,32.8c0.4,0.8,0.8,1.6,1.2,2.3c1.2,2.2,1.9,2.4,4.2,1.5c2.3-1,4.5-2,6.8-3c4-1.9,8.1-3.7,12.1-5.6
		c2.7-1.3,3-2,1.9-4.6c-3.7-8.6-7.4-17.2-11-25.8c-3.3-7.8-6.6-15.7-10-23.5c-0.4-0.9-0.8-1.8-1.3-2.7c-1.6-3.2-1.6-3.2-5.1-1.9
		c-1.4,0.5-2.9,0.7-4.3,1.1c-0.7,0.2-1.3,0.1-1.5-0.6c-0.3-0.7,0.2-1.2,0.7-1.5c0.6-0.4,1.3-0.7,2-1c8.3-3.4,16.7-6.7,25.1-10
		c1.3-0.5,3.2-2.3,4.1,0c0.7,1.7-1.8,1.9-2.9,2.7c-0.1,0.1-0.2,0.1-0.3,0.2c-6,1.8-4.9,3.1-3.2,7.5c3.1,8,6.3,16.1,9.5,24.1
		c3.3,8.5,6.7,17,10,25.5c0.1,0.3,0.2,0.7,0.3,1.1c1.3,3.2,1.6,3.3,4.9,2c1-0.4,2-1.1,3.1-1.1c0.9,0,1.9-0.1,2.2,0.9
		c0.3,1-0.6,1.5-1.4,1.9c-1,0.4-2.1,0.7-3.2,1c-3,1.1-3.3,1.7-2.1,4.6c3.1,7.8,6.2,15.6,9.3,23.3c1.3,3.2,1.4,3.2,4.6,2.3
		c0.4-0.1,0.7-0.3,1-0.4c1.1-0.2,2.5-0.8,2.9,0.4c0.5,1.3-1.2,1.6-2.1,2.1c-4.9,2.6-10.4,3.9-15.5,6.1c-2.1,0.9-4.3,2-6.4,2.9
		c-0.6,0.3-1.5,0.4-1.9-0.5c-0.3-0.7,0.3-1.2,0.8-1.5c1.4-0.8,2.8-1.6,4.2-2.3c2.3-1.3,2.5-1.7,1.5-4.1c-2.9-6.7-5.9-13.3-8.8-20
		c-0.5-1.2-1-2.5-1.5-3.8c-1.2-2.5-2-2.8-4.7-1.9c-6.7,2.3-12.8,5.9-19.1,8.9c-1.8,0.9-1.7,2.1-0.9,3.7c2.6,5.2,5.2,10.4,7.8,15.6
		c1,2.1,2.2,4.1,2.9,6.4c0.3,0.9,0.9,1.7,1.5,2.5c0.9,1.2,2,1.8,3.5,0.8c0.4-0.3,0.9-0.5,1.3-0.7c1-0.5,2.1-1.1,2.8,0.4
		c0.6,1.3-0.4,1.8-1.3,2.2c-6.3,3.2-12.6,6.3-18.9,9.5c-1.2,0.6-2.5,0.7-3.9,0.8c0-2.3,1.6-2.8,3-3.6c3.2-1.8,3.2-2.1,1.5-5.4
		c-3.3-6.2-6.5-12.5-9.8-18.7c-0.3-0.7-0.7-1.3-1-2c-2.4-4.6-2.6-4.6-6.2-0.8c-2,2.2-2.4,2.2-3.9,0.5c-1.9-2.1-1.8-2.8,0.8-4.1
		c0.9-0.4,1.8-0.8,2.7-1.1c2.6-1.1,2.7-1.3,1.6-3.8c-1.1-2.3-2.4-4.6-3.6-6.9c-6.8-13-13.6-26-20.7-38.9c-0.8-1.5-1.6-3.1-2.3-4.6
		c-1.8-3.5-2.1-3.6-5.3-1.6c-1.4,0.9-3,1.1-4.4,2c-0.6,0.4-1.2,0.3-1.6-0.3c-0.4-0.6-0.1-1.2,0.3-1.7c0.3-0.4,0.7-0.7,1.2-0.9
		c8.7-5,17.8-9.2,26.7-13.7C120.3,83.8,121.3,83.8,122.4,85.2z"/>
	<path class="st0" d="M503,492.4c3.8,0.6,7.7,0.4,11.5,1.3c6.2,1.5,11.8,3.9,16.8,7.9c4.5,3.7,7.7,8.1,10.4,13.2
		c4.1,7.8,3.8,15.7,0.8,23.6c-3.8,10.1-11.4,16.4-21.4,20c-1,0.4-2.1,0.7-3.1,1.1c-0.2,0.1-0.3,0.4-0.4,0.7c2.2,1,4.4,1.9,6.7,2.9
		c5.9,2.5,8.5,7.5,9.9,13.4c0.8,3.3,0.7,6.6,0.7,9.9c0,0.7,0,1.5,0,2.2c0.2,4.5,2.2,5.8,6.2,3.7c2.5-1.3,4.8-2.9,7.6-3.8
		c-0.7,4.2-5.6,7.3-11.6,7.8c-1.5,0.5-3,0.5-4.5,0c-3.6-0.1-6.7-1.4-9.3-3.8c-1.7-1.5-2.8-3.4-2.6-5.8c-1-2.4,0.3-5-0.7-7.4
		c0.3-3.4-0.7-6.6-0.9-9.9c-0.3-3.8-4.1-7.1-8.3-7.9c-4.4-0.8-8.8,0.2-13.1-0.3c-0.6-0.1-1.1,0.4-1.5,1c-0.8,8.2-0.2,16.4-0.3,24.6
		c0,1.9-0.5,3.9,0.4,5.8c0.7,0.3,1.5,0.5,2.2,0.8c2,0.6,3.9,0.6,5.9,0c0.6,0.2,1.2,0.5,1.1,1.2c-0.2,0.8-1,0.9-1.8,1
		c-10.1,0.6-20.3,0.6-30.4,0c-1.2-1.5-1.2-2.1,0.5-2.2c2.2-0.1,4.4-0.3,6.5-0.8c0.5-0.1,0.9-0.3,1.2-0.7c0.8-8.2,0.2-16.4,0.3-24.6
		c0-1.9,0.4-3.9-0.3-5.8c-0.9-0.5-1.8-0.5-2.8-0.2c-2.3,0.5-4.6,0.6-6.6-1.5c1.2-1.6,2.6-2,4.5-1.5c2.8,0.7,4.2-0.2,4.9-2.7
		c0.5-0.8,0.3-1.7,0.3-2.5c0-18.4,0-36.7,0-55.1c0-0.8,0.2-1.7-0.4-2.5c-1.9-1.2-4.1-0.6-6.2-0.7c-1-0.1-2.1,0.1-2.9-0.2
		c-1.5-0.7-0.9-1.4,0.2-1.9c6.2,0.5,12.3,0.6,18.5,0c1.5,0,3,0,4.5,0C498.1,493,500.5,493,503,492.4z"/>
	<path class="st0" d="M511.2,144.4c0.2,4-1.7,7.4-2.9,11c-0.6,1.8-1.3,3.5-1.8,5.2c-0.6,2.1-0.3,2.5,1.8,3.2c2,0.7,3.8-0.3,5.7-0.6
		c1-0.2,2.2-1.6,2.9-0.1c0.7,1.4-0.9,2.1-1.7,3c-0.2,0.2-0.4,0.4-0.6,0.4c-3.7,0.3-7.3,0.9-10.9-0.5c-3.4-1.4-5.8-3.6-6.8-7.2
		c-0.9-3-0.3-5.8,0.9-8.6c1.7-4.1,3.1-8.3,4.1-12.6c1.4-5.9,0.3-8.7-4.7-11.8c-2.9-1.8-6.2-2.5-9.3-3.7c-1.3-0.5-1.7,0.2-2.3,1.1
		c-1,1.7-1.2,3.7-1.8,5.6c-2.1,6.3-4.5,12.5-6.1,19c-0.8,3.2-0.7,3.6,2.3,5.3c1.3,0.7,2.6,1.4,3.4,3.1c-1.1,0.5-2.1,0.4-3.1,0
		c-6.1-2.4-12.5-3.5-18.9-5.1c-1.2-0.3-2.3-0.8-3.4-1.4c-0.8-0.4-0.9-1.1-0.7-1.9c0.2-0.9,1-1,1.8-0.9c0.8,0.2,1.7,0.4,2.5,0.7
		c2.4,1.3,3.1,0.1,3.8-1.8c2.2-6.4,4.2-12.9,5.9-19.4c0.6-2.1,1.2-4.3,1.7-6.4c0.5-2.3,0-3.2-2.3-3.5c-1.7-0.2-3.1-0.8-4.5-1.6
		c-0.5-0.3-0.7-0.7-0.6-1.2c0.2-0.8,0.8-0.9,1.4-0.8c1.8,0.3,3.7,0.4,5.4,1c2,0.6,2.8-0.5,3.3-2c1.8-6.1,3.5-12.3,5.3-18.4
		c3.4-11.8,6.8-23.6,10.3-35.4c1.2-4.2,1.3-4.2-2.7-5.5c-1.3-0.4-2.6-0.8-3.9-1.3c-0.7-0.3-1.4-0.7-1.3-1.6c0.2-1.3,1.3-1.1,2.1-0.9
		c2,0.4,4.1,0.9,6,1.5c8.5,2.8,17.3,4.8,25.6,8.3c14.1,5.8,23.1,16.1,25.2,31.2c1.6,11.2-2.6,20.8-12,27.8c-3.7,2.7-7.3,5.4-11.7,7
		c-1.9,0.7-3.8,1-5.8,1c-3,0-5.9,0-9.1,0c0,1.8,1.4,2.5,2.4,3.5c2.8,2.7,5.3,5.6,5.1,9.8C511.7,140.4,511.8,142.4,511.2,144.4z"/>
	<path class="st0" d="M553.4,152.3c4.3-2.8,8.7-5.6,12.9-8.6c15.1-10.4,30.2-20.9,45.3-31.4c0.5-0.4,1-0.8,1.4-1.2
		c1.2-0.9,1.1-1.8-0.1-2.6c-1.5-1.1-3-2.1-4.5-3.2c-0.6-0.5-1-1.2-0.5-1.9c0.5-0.7,1.1-0.1,1.7,0.1c1.7,0.6,2.9,1.8,4.3,2.8
		c6.3,4.3,12.6,8.6,18.9,12.9c0.6,0.4,1.5,0.8,1.1,1.7c-0.4,0.8-1.3,1.2-2.2,1c-1.4-0.3-2.4-1.2-3.5-2.1c-3.1-2.5-6-2.6-9.5-0.7
		c-8.7,4.6-17.6,8.9-26.5,13.3c-9.1,4.5-17.6,10-26.3,15c-2,1.1-2.9,2.7-2.9,5.2c0.1,5.8,0.7,11.5,1.4,17.3c0.4,3.2,0.4,6.4,0.7,9.6
		c0.3,4,1,8.1,1,12.1c0,3.3,0.4,6.7,4,8.6c0.5,0.3,0.9,0.8,1.3,1.3c0.5,0.6,0.8,1.3,0.1,2c-0.5,0.5-1.2,0.3-1.7-0.1
		c-1.7-1.2-3.5-2.4-5.1-3.7c-3.4-2.7-7-5-10.7-7.2c-1.5-0.9-3.6-1.4-3.7-3.8c0.5-0.8,1.4-0.5,2-0.5c1.5,0,1.9-0.9,1.8-2.2
		c0-0.9,0.1-1.7,0-2.6c-1.1-7-0.9-14.2-2.2-21.2c-0.1-0.4,0-0.7-0.1-1.1c-0.2-0.8-0.4-1.8-1.2-2.2c-1-0.4-1.5,0.6-2.1,1.1
		c-2,1.9-3.1,4.5-4.4,6.8c-1.6,2.6-3,5.4-4.5,8.1c-2.1,3.8-2.2,3.9,1.3,6.2c1.5,1,2.7,2.1,2.7,4c-0.5,0.6-1,0.3-1.4,0.1
		c-5.2-3.4-10.8-6-16.3-8.8c-1.9-1-3.7-2-5.5-3.1c-0.6-0.4-1.3-0.9-0.9-1.8c0.4-0.9,1.3-1.1,2.2-0.8c0.5,0.2,0.9,0.4,1.4,0.6
		c4,1.8,4.2,1.9,6.2-2c3.1-5.9,6-11.9,9-17.9c8.6-16.7,17.1-33.4,25.8-50c2.5-4.7,5-9.4,7.3-14.1c1.1-2.2,1-2.2-1.3-3.1
		c-1.2-0.4-2.3-0.8-3.5-1.3c-0.9-0.4-1.7-1.1-2.1-2c-0.3-0.6-0.2-1.2,0.3-1.7c0.4-0.4,0.9-0.4,1.3-0.2c1.3,0.6,2.7,1.3,4,2
		c7.4,4,14.7,8.1,22.1,12.1c1.4,0.7,2.4,1.7,2.9,3.7c-2.2-0.4-3.9-1.6-5.6-2.5c-2.6-1.5-3.1-1.5-4.7,1.1c-2.6,4.2-5.1,8.5-7.5,12.8
		c-7.3,13-14.4,26.1-22.3,38.8c-1,1.5-1.7,3.2-2.5,4.9C553,151.9,553.2,152.1,553.4,152.3z"/>
	<path class="st0" d="M619.5,513.9c-0.1-5.4-1.1-10.7-2.2-16c-0.6-2.8-1.2-3.2-4-3.3c-1.9-0.1-3.8,0-6.4,0c4.1-2.7,22-2.9,27-0.7
		c-0.5,1.1-1.5,0.6-2.3,0.7c-2.7,0.3-3.6,0.9-3.9,3.5c-1.2,9.2-3.5,18.3-3.1,27.8c-0.9,2.1,0.3,4.5-0.7,6.7c0,4.5,0,8.9-0.1,13.4
		c-1,3.2,0.3,6.5-0.7,9.6c0,5.2,0,10.4-0.1,15.6c-1,3.4,0.3,7-0.7,10.4c0,3.2,0,6.4,0,9.6c-1.3,1.3-2.9,1-4.5,0.8
		c-3.9-6.4-7.9-12.7-11.8-19.1c-7.1-11.7-14.1-23.3-21.2-35c-3.8-6.2-7.5-12.4-11.3-18.6c-0.4-0.7-0.6-2.8-2.5-1.5
		c-0.6,1-0.3,2.2-0.3,3.2c0,13.2,0,26.3,0,39.5c0,1.1-0.3,2.2,0.3,3.3c0,3.7,0.1,7.3,0,11c-0.1,4.9,1.2,9.6,1.7,14.5
		c0.3,2.4,1.7,4,4.3,4.3c2.1,1,4.5-0.3,6.6,0.7c-0.3,0.7-0.8,1.2-1.5,1.5c-8.4,0.6-16.8,0.6-25.2,0c-2.2-0.1-2.2-0.1-2.3-1.5
		c1.9-1,4.1,0.3,6-0.7c3.5-0.3,3.5-3.2,3.6-5.5c0.3-6,1.3-11.9,1.7-17.9c0.6-9,1.3-18.1,1.4-27.1c1-2.7-0.2-5.5,0.7-8.2
		c0-6.5-0.1-13.1,0.1-19.6c0.1-3.1-0.7-5.8-2.2-8.4c-1.8-3-3.5-5.9-5.2-8.9c-1.2-2.2-3.1-3.1-5.5-3.1c-1.8,0-3.6,0.3-5.3-0.3
		c0.1-1.1,0.7-1.4,1.2-1.4c4.2,0.3,8.3-0.7,12.5-0.6c2.8,0,5.5,1.2,8.4,0.6c1.2-0.2,2.3,1.1,3.1,2.4c4.6,7.5,9.2,14.9,13.7,22.3
		c5.9,9.7,11.8,19.3,17.6,29.1c3.6,6,7.5,11.8,10.8,18.1c0.5,0.9,0.9,2.1,2.8,1.9c0-15.1,0-30.2,0-45.3
		C619.3,518.9,620.5,516.3,619.5,513.9z"/>
	<path class="st0" d="M346.4,492.5c1.1,0.5,1.8,1.4,0.2,1.9c-1.2,0.4-2.7,0.2-4,0.3c-1.1,0-2.2,0-3.3,0c-3.1,0.1-3.5,0.7-2.6,3.6
		c1,3.2,1.9,6.4,3.1,9.5c3,7.8,5.3,15.9,8.2,23.8c4.5,12.5,8.6,25.2,12.8,37.8c0.2,0.7,0.5,1.3,0.9,2.1c2.4-3,2.7-6.7,3.7-10.1
		c4-13.7,7.9-27.4,11.1-41.3c1.7-7.3,3.2-14.6,3.5-22.1c0.1-2.4-0.4-3-2.8-3.2c-1.9-0.2-3.9,0.3-6.5-0.6c4.2-1.7,7.9-1.2,11.5-1.6
		c2.5,0.6,4.9,0.6,7.4,0c4,0.5,8.2-0.2,11.9,2.2c-1.8,0-3.6,0-5.4,0c-2.4,0-3.9,1.2-4.8,3.4c-8.2,20.9-16,41.9-22.8,63.3
		c-3.3,10.6-6.6,21.2-9.9,31.7c-0.5,1.6-0.8,4.1-2.4,4.2c-2,0.2-2-2.5-2.5-4c-3.2-8.9-6.2-17.9-9.3-26.9c-6-17.2-11.9-34.5-18-51.7
		c-1.7-4.8-3.3-9.5-5-14.3c-1.8-5.1-2.2-5.5-7.6-5.8c-1-0.1-2-0.2-2.8-0.8c1.9-1.2,1.9-1.2,4.4-1.4c6.6,0.8,13.2,0.2,19.8,0.3
		C338.8,492.8,342.6,493.2,346.4,492.5z"/>
	<path class="st0" d="M227,593.3c1.6-0.8,2.3-2.2,2.9-3.7c3-7.3,6.1-14.6,9.1-21.8c0.4-1,0.9-2.1,1.1-3.1c0.5-2-0.8-3.5-2.8-3
		c-1.7,0.3-3.4,0.6-4.9,1.5c-0.6,0.4-1.4,0.7-2,0c-0.5-0.6-0.4-1.4-0.1-2.1c0.7-2.1,2.2-3.3,4.4-3.1c1.2,0.1,2.4,0,3.6,0.4
		c2.8,0.9,3.9,0.4,5.2-2.4c1-2.1,1.7-4.4,2.6-6.5c5.1-13.5,10.1-27,15.2-40.5c1.8-4.7,3.8-9.4,5.7-14.1c0.3-0.8,0.5-1.7,1.7-1.7
		c1.1,0,1.6,0.7,1.9,1.5c1.2,3.1,2.5,6.2,3.6,9.3c3.2,9.2,6.2,18.5,9.3,27.7c2.6,7.7,5.3,15.4,7.9,23.1c1.2,3.4,1.5,3.6,5,3.6
		c2.2,0,4.5-0.2,6.7,0.1c1.3,0.2,3.2,0,3.5,2.1c-3.4,0.8-6.8,0.1-10.2,0.4c-0.9,0.1-2.4-0.9-2.5,1.1c2.4,7.6,4.8,15.3,7.7,22.8
		c0.6,1.5,0.9,3.1,1.3,4.6c0.8,2.6,2.5,3.9,5.2,3.8c0.5,0,1,0,1.5,0c0.9,0.1,2.2-0.2,2.3,1.1c0.1,1-1.1,1.2-1.9,1.5
		c-0.8,0.3-1.7,0.3-2.5,0.3c-7.8,0-15.6,0-23.4,0c-1.5,0-3-0.2-4.2-1.2c-0.7-0.5-0.9-1.1-0.1-1.8c2.5,0.5,4.9,0.6,7.4,0
		c1.2-0.6,1.5-1.4,1-2.7c-1.2-3.2-2.1-6.6-3.3-9.8c-1.9-5.4-3.9-10.9-5.9-16.3c-0.8-2.1-1.8-3.2-4.5-3.4c-8.6-0.8-17.2-0.2-25.8-0.3
		c-2.7-0.1-4.5,1.4-5.5,4.1c-2.3,6.3-3.7,12.7-4.9,19.2c-0.3,1.4-0.5,2.9-0.7,4.3c-0.2,1.7-0.9,3.8,1.4,4.9c2.6,1,5.5-0.3,8.1,0.7
		c-0.7,1.5-2.1,2.1-3.6,2.1c-6.9,0.1-13.7,0-20.6,0.1c-1,0-1.6-0.4-1.8-1.4c0-1.6,1.3-1,2.1-1.1C224.4,593.5,225.7,594.1,227,593.3z
		"/>
	<path class="st0" d="M606.4,183.3c4.5-4,7.9-8.9,11.7-13.4c5.5-6.5,10.9-13,16.3-19.6c3.5-4.3,7-8.6,10.4-12.9
		c1.9-2.5,1.9-2.5-0.3-4.8c-1.4-1.4-2.8-2.8-4.1-4.2c-0.5-0.5-1-1.3-0.3-1.9c0.7-0.7,1.5,0,2,0.4c2.9,2.5,5.8,5,8.6,7.6
		c4.9,4.5,9.7,9,14.8,13.3c4.2,3.6,8.2,7.5,12.2,11.2c2,1.8,4.1,3.6,6,5.4c1.4,1.3,2.9,2.2,4.8,2.4c1.8,0.2,1.9,0.8,1.1,2.5
		c-0.6,1.3-1.8,2-2.7,3c-2.5,2.5-5.2,4.7-7.9,7.1c-1.2-1.8-0.2-3.1,0.2-4.2c0.8-2.4,0.5-4.6-0.5-6.8c-2.6-5.8-5.9-11.1-10.7-15.3
		c-2-1.8-3.9-3.8-5.7-5.8c-2.3-2.5-3.3-2.7-5.3-0.3c-4.5,5.3-9.4,10.4-13.9,15.7c-3,3.5-6.2,7-9.3,10.4
		c-5.2,5.8-10.2,11.7-15.3,17.4c-1.3,1.5-1,2.6,0.2,3.8c3.5,3.3,7.6,5.8,11.7,8.4c1.5,1,3.1,0.1,4.6-0.6c0.4-0.2,0.9-0.5,1.4-0.1
		c0.6,0.5,0.4,1.1,0.1,1.7c-1.3,2.3-3.1,4.2-5.1,5.9c-1.4,1.2-3,2.1-3.9,3.8c-0.4,0.7-1.2,1-1.9,0.5c-0.8-0.5-0.6-1.4-0.1-2
		c1.9-2.5,0.7-4.6-0.9-6.7c-2.3-3-4.7-6-7-9.1c-1-1.4-2-1.6-3.4-0.5c-0.7,0.7-1.7,1.1-2.2,1.9c-5.2,6.8-11.5,12.8-17,19.5
		c-1,1.2-1.1,2.1,0.1,3.1c6.1,5.1,12,10.3,19.8,12.6c1.8,0.5,3.3,1,4.7-0.7c0.3-0.3,0.8-0.6,1.3-0.7c0.6-0.1,1.3-0.2,1.6,0.5
		c0.3,0.5-0.1,1-0.5,1.3c-2.9,3-5.9,5.9-9.2,8.5c-0.5,0.4-1,0.8-1.7,0.3c-0.6-0.4-0.9-1-0.6-1.6c0.7-1.5-0.1-2.2-1.1-3
		c-8.4-7-16.5-14.4-24.5-22c-1.9-1.9-4.1-3.5-6-5.4c-0.7-0.7-1.6-1.3-1.1-2.5c2.1-0.5,3.5,1,4.8,2.1c1.5,1.1,2.4,0.8,3.4-0.4
		c3.8-4.7,7.6-9.3,11.5-14c1.9-2.3,3.8-4.5,5.7-6.8c2-2.6,2-2.7-0.6-4.6c-1.4-1-2.8-2-4.1-3.2c-0.8-0.7-0.4-1.6,0.6-1.9
		c1.2-0.2,2.2,0.2,3,1.1C603.1,181.2,604.6,182.4,606.4,183.3z"/>
	<path class="st0" d="M465.2,490.9c0,0.2,0,0.5,0,0.7c0.6,3.7,0.6,7.5,0,11.2c0,0.8,0.1,1.8-0.8,2.3c-1,0-1.2-0.9-1.2-1.5
		c-0.2-2.4-1.9-3.2-3.8-3.9c-5.2-2.1-10.7-3.5-16.3-4.2c-4-0.5-8-1.1-12-0.9c-3.1,0.2-3.7,0.7-3.7,3.7c0,2.7,0,5.4,0,8.1
		c-0.8,3.6-0.4,7.3-0.3,11c0.1,8-0.5,15.9,0.3,23.9c0,4.3,0,8.7,0,13c0,3.8,0.9,4.6,4.6,4.3c3.8-0.3,7.5-0.7,11.3-1
		c0.8-0.1,1.6-0.5,2.5-0.5c2.4,0.1,4.4-0.7,4.7-3.6c0.1-0.8,0.4-1.5,1.3-1.5c0.9,0,1.2,0.9,1.3,1.6c0.5,2.2,0.5,4.5,0.1,6.6
		c-0.5,2.7-0.6,5.4-0.7,8.1c0,0.5-0.2,1-0.9,1.4c-0.9-0.3-1-1.4-1-2c-0.2-2.8-2-3.6-4.2-4.4c-4.7-1.5-9.6-1.9-14.5-2.4
		c-3.5-0.4-4.5,0.9-4.6,4.5c0,1.1,0,2.2,0,3.3c-0.6,5.4-0.6,10.9,0,16.3c0,1.5,0,3,0,4.4c0.1,2.6,1,3.7,3.5,3.7
		c9-0.1,17.9-0.6,26.4-3.9c2.7-1.1,5.5-2.2,6-5.9c0.2-1.2,1.4-2,2,0.1c0.5,4.5,0.6,8.9,0,13.4c-0.3,0.9-0.3,2.6-1.7,0.9
		c-1.6-1.8-3.5-2.5-5.8-2.4c-5.1,0.1-10.3,0-15.4,0c-4.4,0.8-8.8,0.3-13.2,0.3c-7.7-0.1-15.5,0.5-23.2-0.3c-0.2,0-0.5,0-0.7,0
		c-0.5-0.4-1.4-0.3-1.5-0.9c-0.1-0.8,0.6-0.9,1.2-0.9c1.8-0.2,3.7,0.4,5.4-0.4c1.5-0.1,2.3-1,3-2.2c0.9-8.4,0.1-16.9,0.4-25.3
		c0-1,0.3-2-0.4-2.9c-1.1-1.8-2.8-2.2-4.7-2.2c-1.8,0-3.5,0.2-5.7-0.4c1.1-1.6,2.3-1.9,3.7-1.8c1.2,0,2.4,0,3.7,0
		c1.3,0,2.4-0.2,3-1.5c0.6-0.8,0.4-1.7,0.4-2.5c0-18.4,0-36.7,0-55.1c0-0.8,0.2-1.7-0.4-2.5c-0.9-1.8-2.3-2.3-4.2-2.3
		c-1.5,0.1-3,0.3-4.4-0.3c-0.4-0.2-0.8-0.6-0.6-1.2c0.1-0.4,0.5-0.6,0.8-0.6c1.1-0.1,2.2-0.1,3.3-0.1c16.4,0,32.8,0,49.2,0
		c2.3,0,4.4-0.3,6.3-1.5C464.2,490.5,464.7,490.5,465.2,490.9z"/>
	<path class="st0" d="M433.1,37.8c2.2,2.4,1.9,5.4,2.4,8.1c0.8,5,1.4,10,2,14.9c0.6,4.4,1.2,8.8,1.7,13.1c0.9,6.8,1.9,13.6,2.7,20.4
		c0.4,2.9,0.6,5.9,1,8.8c0.4,3,0.9,3.5,4,4.2c1.8,0.4,3.6,0.8,5.4,1.3c0.8,0.2,1.7,0.4,2.3,1.1c0.3,0.4,0.7,0.7,0.6,1.3
		c-0.1,0.6-0.7,0.7-1.2,0.7c-1.6,0-3.2,0.3-4.7-0.5c-0.4-0.2-0.9-0.4-1.4-0.6c-3.4-1.1-4.9,0-4.1,3.4c0.4,1.8,0.4,3.7,0.5,5.5
		c0.4,7,0.6,14,1.4,21c0.2,1.9,0.7,2.9,2.6,3.4c1.1,0.3,2.8,0.6,2.3,2.3c-0.5,1.7-2,1-3.2,0.7c-2.5-0.6-5-1.2-7.5-1.8
		c-3.9-1-7.9-1.9-11.8-2.9c-0.8-0.2-2-0.2-1.8-1.3c0.2-1.4,1.4-1.5,2.6-1.1c0.1,0,0.2,0,0.4,0.1c3.4,0.5,4.3-0.4,3.5-3.7
		c-0.7-2.9-0.6-5.9-0.9-8.8c-0.6-5.7-1.3-11.5-1.7-17.2c-0.2-2.9-0.8-3.5-3.5-3.6c-6.9-0.3-13.7-1.4-20.4-2.9
		c-0.8-0.2-1.7-0.5-2.5-0.6c-1.9-0.2-3.3,0.8-4.3,3.3c-2.3,5.6-4.3,11.3-5.7,17.2c-0.7,2.9-1.3,5.7-1.8,8.7
		c-0.3,1.7,0.3,2.3,1.7,2.5c1.5,0.2,2.9,0.5,4.3,0.9c0.7,0.2,1.4,0.5,1.4,1.5c-0.1,0.9-0.8,1.3-1.6,1.3c-2.4,0-5,0.3-7.3-0.2
		c-2.4-0.5-4.9-0.2-7.3-0.7c-0.5-0.1-1.1,0.2-1.4,0c-1.1-0.6-3.2-0.2-3.2-1.9c0-2,1.9-1.5,3.1-1.6c2.2-0.2,3.2-1.7,4.1-3.4
		c1.5-3,2.9-6,4.2-9.1c2.3-5.3,4.6-10.6,6.9-16c0.3-0.8,1-1.6,0.2-2.4c-0.7-0.7-1.7-0.5-2.5-0.3c-1.6,0.5-3.2,1.4-4.9,1.6
		c-1.4,0.2-2-0.6-1.7-1.7c1.3-3.6,2.2-5.6,6.2-3.9c0.1,0,0.2,0.1,0.4,0.1c4.2,1.4,4.4,1.3,6.5-2.6c5.9-11.1,11.4-22.5,17.2-33.6
		c3.6-6.9,7.2-13.8,10.7-20.7C430,40.3,431.2,38.8,433.1,37.8z"/>
	<path class="st0" d="M201,54.6c-1.3,3.3-1.1,6.6,0.2,9.7c3.5,8.5,5.4,17.4,8,26.1c2.5,8,4.8,16,7.3,24c0.7,2.4,1.4,2.8,3.8,2.4
		c4.9-0.8,9.4-3,13.7-5.3c1.6-0.8,1-2.7,1.7-3.9c0.3-0.5,0.1-1.3,0.9-1.5c0.9-0.2,1.3,0.6,1.6,1.3c1.3,3.7,2,7.6,3,11.4
		c0.2,0.7,0.5,1.4,0.5,2.1c0.1,0.8-0.4,1.5-1.2,1.6c-0.7,0.1-1.3-0.3-1.4-0.9c-0.6-2.7-2.4-3-4.8-2.6c-1.3,0.2-2.8,0.3-4-0.1
		c-3.2-0.9-6.1,0-9,0.8c-2.5,0.7-2.8,1.4-2.1,3.8c1.7,5.7,3.4,11.3,5.1,17c0.8,2.6,1.5,5.2,2.4,7.8c0.9,2.8,1.6,3.3,4.3,2.6
		c5.8-1.5,11.3-3.6,16.3-6.9c1-0.7,2.1-1.4,3.1-2c1.9-1.2,2.8-3.1,3.3-5.2c0.2-0.8,0-2,1.3-1.9c1.2,0.1,0.8,1.3,1.2,2
		c0.9,1.7,0.6,3.6,1,5.4c0.5,2.2,1.2,4.2,1.8,6.3c-0.3,0.2-0.6,0.4-0.7,0.4c-4.2-1.8-8.2-0.4-12.2,1.1c-6,2.3-12.3,3.4-18.4,5.3
		c-5,1.6-10.3,2.5-15.2,4.4c-0.6,0.2-1.1,0.5-1.7,0.7c-0.6,0.2-1.2,0-1.6-0.6c-0.4-0.6,0-1.2,0.4-1.7c0.9-1,2.3-1.4,3.5-1.9
		c2.9-1.2,3.2-1.7,2.2-4.7c-2.6-7.8-5.2-15.7-7.8-23.5c-1-3-2.4-3.7-5.3-2.4c-1.6,0.7-3.2,1.1-5.1,0.5c1-2,2.9-2.4,4.5-3.2
		c2.4-1.2,2.9-1.9,2.4-4.5c-0.2-1-0.6-1.9-0.9-2.8c-5-15-10-29.9-15-44.9c-0.7-2-1.1-4-1.8-6c-0.9-2.7-2.5-3.4-5.2-2.4
		c-1.5,0.6-2.9,1.4-4.6,0.9c-0.3-0.1-0.7-0.4-0.8-0.7c-0.3-0.6,0.1-1,0.5-1.2c1.4-0.6,2.7-1.2,4.1-1.6C187.2,58.2,194,55.9,201,54.6
		L201,54.6z"/>
	<path class="st0" d="M688.2,182.5c-1.4,0.3-3.2,1.3-4.7,2.9c-0.5,0.5-1.1,1.7-2.1,0.7c-0.6-0.7-0.4-1.7,0.2-2.4
		c2.4-2.5,4.8-5,7.3-7.4c4.5-4.1,4.5-4,7.7,1.3c3.1,5.3,7.4,9.8,11.2,14.6c4.9,6.3,10.2,12.3,15.2,18.5c1.3,1.6,3,2.5,4.5,3.7
		c1.9,1.5,2,2.3,0.2,3.7c-3.9,2.8-7.8,5.5-11.8,8.3c-0.6,0.4-1.2,1.1-1.9,0.2c-0.5-0.7-0.5-1.4,0.1-2c0.6-0.7,1.4-1.4,2.1-2
		c2-1.9,2.9-4,2.3-6.9c-0.7-3.2-1.2-6.5-2.6-9.6c-1.3-2.7-1.8-2.8-4-0.9c-8.5,7.3-17.4,14.1-26.3,20.9c-7.8,6-15.7,11.9-23.2,18.2
		c-7,5.8-14.3,11.2-21.5,16.8c-0.4,0.3-0.8,0.6-1.2,0.9c-3.5,2.8-3.5,2.8-0.7,6.4c0.5,0.7,1,1.4,1.4,2.2c0.4,0.6,0.6,1.1,0,1.7
		c-0.6,0.6-1.1,0.1-1.6-0.3c-1.7-1.7-3.4-3.2-4.9-5c-3.7-4.3-7.2-8.7-10.8-13.1c-0.2-0.3-0.5-0.6-0.6-0.9c-0.5-1.1-1.5-2.5-0.2-3.3
		c1.5-1,2,0.7,2.7,1.6c0.2,0.3,0.5,0.6,0.7,0.8c2.5,2.9,3.6,2.9,6.4,0.4c7.3-6.4,14.8-12.6,22.3-18.7c6.8-5.5,13.3-11.3,20-16.9
		c9-7.4,18.1-14.8,27.1-22.2c0.6-0.5,1.1-1,1.6-1.5c1.3-1.3,0.8-2.4-0.3-3.5c-1.8-1.7-4.1-2.7-6.2-3.9c-2-1.2-4.2-2.1-6.3-3
		C689.9,182.4,689.4,182.6,688.2,182.5z"/>
	<path class="st0" d="M45.2,139.5c0,1.4,0.5,2.3,1.2,3.2c0.5,0.6,0.9,1.1,1.3,1.8c0.3,0.5,0.5,1.2,0,1.7c-0.7,0.6-1.4,0.3-2-0.2
		c-1.2-0.9-1.9-2.2-2.8-3.4c-1.9-2.6-4-5-5.8-7.7c-1.4-2-1-2.7,1.3-3.1c1.1-0.2,2.1-0.6,3.1-1.2c12.1-8,24.3-16,36.4-24
		c1.5-1,2.6-2.2,3.7-3.6c0.8-1.1,1.8-0.9,2.5,0c2.8,4.2,5.7,8.4,7.7,13c0.3,0.7,0.4,1.6-0.3,2c-0.9,0.5-1.6-0.2-2.2-0.8
		c-0.3-0.2-0.5-0.6-0.6-0.9c-0.8-3.4-3.3-3.8-6.2-3.8c-3.5,0-6.9,0.2-10.2,1.4c-2.9,1.1-3.1,1.8-1.5,4.3c5,7.9,10.1,15.8,15.1,23.7
		c7.5,11.9,14.9,23.8,22.4,35.7c4,6.4,8.3,12.5,12.3,18.9c1.4,2.3,1.9,2.2,4.1,0.9c1-0.6,1.9-1.1,2.9-1.7c0.8-0.5,1.6-0.6,2.3,0.2
		c0.9,1.3-0.5,1.5-1,1.8c-4.2,3-8.5,5.9-12.8,8.8c-1.9,1.3-3.8,2.7-5.8,4c-0.6,0.4-1.2,0.9-1.9,1.2c-0.7,0.3-1.6,0.3-2-0.5
		c-0.4-0.7-0.4-1.5,0.3-2c1-0.8,2-1.4,3.1-2.1c1.8-1.2,2-2,0.9-3.6c-8.8-12.8-17.6-25.6-26.3-38.4c-7.4-10.9-14.7-21.9-22.1-32.8
		c-1.7-2.6-3.5-5-5.3-7.6c-0.7-1-1.5-1.3-2.4-0.4c-4.1,4.1-7.1,8.8-9.2,14.2C45.1,138.9,45.2,139.3,45.2,139.5z"/>
	<path class="st0" d="M183.9,593.3c1.3,0.1,2-1.1,3-1.5c0.7-8.2,0.6-16.3,0-24.5c0-22.2,0-44.5,0-66.7c0-0.9,0-1.7,0-2.6
		c-0.1-3.2-0.6-3.6-3.5-2.6c-4.2,1.5-8.3,3.2-12.4,4.9c-2.1,0.9-2.7,2.7-2.7,4.8c-0.1,1.4,0.6,3.8-1.2,3.8c-1.9,0-0.9-2.4-1-3.7
		c-0.1-3.8-0.1-7.7,0-11.5c0.1-2.4,0.4-2.6,2.6-1.9c1,0.3,1.9,0.5,2.9,0.5c12,0.2,23.9,1.1,35.9,0.8c4.2-0.1,8.4,0,12.3-1.8
		c0.9,1.1,0.4,2.2,0.6,3.3c0.6,3.2,0.6,6.4,0,9.7c-0.1,1.5,0.3,3.2-0.7,4.9c-1.3-1-1.6-1.9-1.3-3.2c0.6-2.3-0.4-4.3-2.2-5.4
		c-4.4-2.7-9-5.2-14.4-5.2c-0.6,0.9-0.4,1.9-0.4,2.9c0,30.2,0,60.5,0,90.7c0,1-0.2,2,0.4,2.9c0.3,0.7,0.8,1.2,1.5,1.5
		c2.9,1,6-0.3,8.9,0.7c-0.3,0.7-0.8,1.2-1.5,1.5c-5.1,0.8-10.3,0.3-15.4,0.3c-5.8,0-11.5,0.5-17.3-0.3c-0.6,0-1.2-0.2-1.5-0.7
		c0-1.6,1.3-1,2.1-1.1C180.3,593.5,182.2,594.1,183.9,593.3z"/>
	<path class="st0" d="M667.7,279.9c-0.3,0.9-0.6,1.9-0.9,3c-1.1,3.3-2.2,6.5-3.3,9.8c-1,3-2.1,3.7-5.1,3.9c-4.4,0.3-8.7,1.3-12.9,3
		c-2.8,1.2-3.8,0.9-5.2-1.6c-1.6-2.8-3.1-5.6-4.6-8.5c-1.9-3.7-1.8-3.8,2.3-4.7c4.5-0.9,9-1.5,13.4-2.4c4.7-0.9,9.4-1.8,13.8-3.9
		C667,277.7,667.8,278.1,667.7,279.9z"/>
	<path class="st1" d="M201,54.6c3.9-1.2,7.9-2.5,11.8-3.7c6-1.8,12-3.5,18-5.2c1-0.3,1.8-0.8,2-1.9c0.2-0.7,0.4-1.5,1.4-1.4
		c0.8,0.1,1.4,0.5,1.6,1.4c0.9,3.9,1.9,7.9,2.8,11.8c0.1,0.4-0.1,1-0.3,1.4c-0.2,0.4-0.4,0.9-1,0.9c-0.6,0-1-0.3-1.1-0.8
		c-0.8-3.5-3.4-3.7-6.3-3.5c-1.1,0.1-2.2-0.3-3.2-0.6c-4.4-1.1-8.7-0.6-13.1,0.5c-2.8,0.7-5.8,0.5-8.6,1.6
		C203.7,55.7,202.2,55.3,201,54.6L201,54.6z"/>
	<path class="st2" d="M201.7,591.8c-1-0.9-0.7-2-0.7-3.1c0-30.1,0-60.2,0-90.3c0-1.1-0.3-2.3,0.7-3.1
		C201.7,527.5,201.7,559.7,201.7,591.8z"/>
	<path class="st3" d="M413.2,496.9c1.1,1,0.7,2.3,0.7,3.5c0,17.7,0,35.5,0,53.2c0,1.2,0.4,2.5-0.7,3.5
		C413.2,536.9,413.2,516.9,413.2,496.9z"/>
	<path class="st4" d="M481.5,495.4c1.1,1,0.7,2.3,0.7,3.5c0,17.7,0,35.4,0,53.2c0,1.2,0.4,2.5-0.7,3.5
		C481.5,535.4,481.5,515.4,481.5,495.4z"/>
	<path class="st5" d="M376.9,32.3c-8.7,0-17.3,0-26,0c0.9-1.2,2.2-1.5,3.6-1.5c6.4,0,12.8,0,19.2,0C375.1,30.8,376.2,31,376.9,32.3z
		"/>
	<path class="st6" d="M571.2,563.6c-1-0.9-0.7-2-0.7-3.1c0-13.3,0-26.5,0-39.8c0-1.1-0.3-2.2,0.7-3.1
		C571.3,533,571.2,548.3,571.2,563.6z"/>
	<path class="st7" d="M405.8,595.6c12.1,0,24.3,0,36.4,0c-0.7,0.9-1.8,0.7-2.7,0.7c-10.3,0-20.6,0-30.9,0
		C407.5,596.3,406.5,596.5,405.8,595.6z"/>
	<path class="st8" d="M427.3,541.4c-0.9-0.7-0.7-1.8-0.7-2.7c0-9.8,0-19.6,0-29.4c0-1-0.2-2,0.7-2.7
		C427.3,518.1,427.3,529.7,427.3,541.4z"/>
	<path class="st9" d="M178,595.6c10.9,0,21.8,0,32.7,0c-0.7,0.9-1.8,0.7-2.7,0.7c-9.1,0-18.2,0-27.2,0
		C179.7,596.3,178.7,596.5,178,595.6z"/>
	<path class="st10" d="M346.4,492.5c-0.7,0.9-1.8,0.7-2.8,0.7c-8.5,0-17.1,0-25.6,0c-1,0-2,0.2-2.8-0.7
		C325.7,492.4,336,492.5,346.4,492.5z"/>
	<path class="st11" d="M473.3,595.6c10.1,0,20.3,0,30.4,0c-0.7,0.9-1.8,0.7-2.7,0.7c-8.3,0-16.7,0-25,0
		C475.1,596.3,474.1,596.5,473.3,595.6z"/>
	<path class="st4" d="M496.3,592.6c-0.9-0.7-0.7-1.7-0.7-2.7c0-8.3,0-16.7,0-25c0-1-0.2-2,0.7-2.7
		C496.3,572.3,496.3,582.4,496.3,592.6z"/>
	<path class="st12" d="M481.5,561.4c0.9,0.7,0.7,1.8,0.7,2.7c0,8.3,0,16.7,0,25c0,1,0.2,2-0.7,2.7
		C481.5,581.7,481.5,571.6,481.5,561.4z"/>
	<path class="st2" d="M557.9,381.1c0,9.9,0,19.8,0,29.7c-0.9-0.7-0.7-1.8-0.7-2.7c0-8.1,0-16.2,0-24.2
		C557.2,382.9,557,381.8,557.9,381.1z"/>
	<path class="st3" d="M353.1,57.6c0.9,0.7,0.7,1.7,0.7,2.7c0,7.8,0,15.7,0,23.5c0,1,0.2,2-0.7,2.7C353.1,76.8,353.1,67.2,353.1,57.6
		z"/>
	<path class="st13" d="M413.2,562.9c0.9,0.7,0.7,1.7,0.7,2.7c0,7.6,0,15.2,0,22.8c0,1,0.2,2-0.7,2.7
		C413.2,581.7,413.2,572.3,413.2,562.9z"/>
	<path class="st14" d="M618,591.8c1.3-1.3,3-0.5,4.5-0.8c0,2.3,0,4.5,0,7.7C620.4,596.1,619.2,594,618,591.8z"/>
	<path class="st11" d="M557.2,595.6c8.4,0,16.8,0,25.2,0c-0.6,0.8-1.5,0.7-2.3,0.7c-6.9,0-13.7,0-20.6,0
		C558.7,596.3,557.8,596.3,557.2,595.6z"/>
	<path class="st8" d="M186.9,567.4c0.8,0.6,0.7,1.5,0.7,2.3c0,6.6,0,13.2,0,19.8c0,0.9,0.1,1.7-0.8,2.3
		C186.9,583.7,186.9,575.5,186.9,567.4z"/>
	<path class="st4" d="M353.2,113.2c0.6,0.5,0.7,1.2,0.7,2c0,4.9,0,9.7,0,14.6c0,0.7-0.1,1.5-0.7,2
		C353.1,125.6,353.2,119.4,353.2,113.2z"/>
	<path class="st10" d="M491.1,492.4c-2.8,1-15.6,1-18.5,0C478.8,492.5,485,492.4,491.1,492.4z"/>
	<path class="st15" d="M366.5,68.7c0-5,0-10.1,0-15.1c0-1.2-0.4-2.5,0.7-3.5c0,5.2,0,10.3,0,15.5C367.2,66.7,367.5,67.9,366.5,68.7z
		"/>
	<path class="st8" d="M427.3,585.2c-0.2-0.3-0.6-0.6-0.6-0.9c0-4.9,0-9.7,0-14.6c0-0.3,0.4-0.6,0.6-0.9
		C427.3,574.3,427.3,579.7,427.3,585.2z"/>
	<path class="st16" d="M365.7,115.5c0-4.3,0-8.6,0-12.9c0-1.2-0.4-2.5,0.7-3.5c0,4.4,0,8.8,0,13.2
		C366.4,113.4,366.7,114.6,365.7,115.5z"/>
	<path class="st7" d="M293.7,562.1c-0.8-0.8-0.4-1.4,0.6-1.4c1.7-0.1,3.4,0,5.1-0.1c2.3,0,4.6,0,7,0c-0.8,1.1-2,0.7-3,0.7
		c-2.3,0-4.6,0-6.9,0C295.5,561.4,294.4,561.2,293.7,562.1z"/>
	<path class="st16" d="M465.2,597c0-4.5,0-8.9,0-13.4c0.2,0.3,0.6,0.6,0.6,0.9C465.7,588.7,466.7,592.9,465.2,597z"/>
	<path class="st17" d="M465.2,502.8c0-3.7,0-7.5,0-11.2C466.2,494.4,466.2,500.1,465.2,502.8z"/>
	<path class="st18" d="M622.5,581.4c0-2.6,0-5.1,0-7.7c0-1-0.2-2,0.7-2.7c0,2.6,0,5.1,0,7.7C623.2,579.7,623.4,580.7,622.5,581.4z"
		/>
	<path class="st19" d="M410.2,593.3c-1.8,1.5-3.9,0.3-5.9,0.8c-0.4,0.7,0.5,0.9,0.7,1.4c-0.8-0.1-1.9,0.2-2-1
		c-0.1-1.2,0.9-1.2,1.8-1.2C406.6,593.3,408.4,593.3,410.2,593.3z"/>
	<path class="st16" d="M220.3,504.3c0-3.2,0-6.4,0-9.7C221.3,497.3,221.3,501.6,220.3,504.3z"/>
	<path class="st15" d="M623.2,555.5c0-2.3,0-4.6,0-6.9c0-1-0.2-2,0.7-2.7c0,2.4,0,4.9,0,7.3C624,554,624,554.9,623.2,555.5z"/>
	<path class="st20" d="M623.2,475.3c3-1.1,5.9-1.1,8.9,0C629.2,475.3,626.2,475.3,623.2,475.3z"/>
	<path class="st21" d="M584.7,441.2c0.7,1.7,1.4,3.5,2.2,5.5c-2.8-0.9-1.8-3.4-2.9-4.8C584.2,441.7,584.4,441.4,584.7,441.2z"/>
	<path class="st22" d="M183.9,593.3c-1.1,1.2-2.5,0.6-3.7,0.7c-1.2,0.2-2.7-0.5-3.7,0.8c-0.8-0.8-0.4-1.4,0.5-1.4
		C179.3,593.3,181.6,593.3,183.9,593.3z"/>
	<path class="st23" d="M212.1,594.1c-2.2,0-4.4,0-6.6,0c-0.8,0-1.7,0.1-2.3-0.7c2.2,0,4.4,0,6.6,0
		C210.7,593.3,211.6,593.2,212.1,594.1z"/>
	<path class="st15" d="M568.3,534.7c-0.3,2.7,0.8,5.6-0.7,8.2C567.9,540.1,566.8,537.3,568.3,534.7z"/>
	<path class="st24" d="M247,594.1c-2.7-0.4-5.5,0.8-8.1-0.7C241.6,593.7,244.4,592.5,247,594.1z"/>
	<path class="st23" d="M287.1,593.3c-2.5,1.1-4.9,1.1-7.4,0C282.1,593.4,284.6,593.3,287.1,593.3z"/>
	<path class="st23" d="M227,593.3c-0.8,1-2,0.6-3,0.7c-1,0.1-2.2-0.3-3,0.8c-0.7-0.8-0.5-1.4,0.5-1.4
		C223.3,593.3,225.1,593.3,227,593.3z"/>
	<path class="st25" d="M520.1,579.2c1.4,2.4,0.4,5,0.7,7.4C519.3,584.3,520.4,581.7,520.1,579.2z"/>
	<path class="st26" d="M619.5,513.9c1.4,2.4,0.4,5,0.7,7.4C618.8,519,619.8,516.4,619.5,513.9z"/>
	<path class="st23" d="M503,492.4c-2.5,1.1-4.9,1.1-7.4,0C498.1,492.4,500.5,492.4,503,492.4z"/>
	<path class="st27" d="M389.5,492.4c-2.5,1.1-4.9,1.1-7.4,0C384.5,492.4,387,492.4,389.5,492.4z"/>
	<path class="st4" d="M162.4,452.3c0,2.5,0,5,0,7.4C161.3,457.3,161.2,454.8,162.4,452.3z"/>
	<path class="st16" d="M624,532.5c0.3-2.2-0.7-4.6,0.7-6.7C624.5,528,625.4,530.4,624,532.5z"/>
	<path class="st28" d="M583.9,594.1c-2.2-0.3-4.6,0.7-6.6-0.7C579.5,593.6,581.8,592.6,583.9,594.1z"/>
	<path class="st4" d="M511.2,144.4c0-2,0-4,0-6C512.3,140.4,512.3,142.4,511.2,144.4z"/>
	<path class="st23" d="M560.9,593.3c-1.8,1.4-4,0.4-6,0.7C556.8,592.6,558.9,593.6,560.9,593.3z"/>
	<path class="st23" d="M504.5,593.4c-2,1.1-3.9,1.1-5.9,0C500.6,593.4,502.5,593.4,504.5,593.4z"/>
	<path class="st28" d="M351.6,133.3c-1.5,1.1-2.9,1.1-4.4,0C348.7,133.3,350.2,133.3,351.6,133.3z"/>
	<path class="st11" d="M532.7,596.3c1.5,0,3,0,4.5,0C535.7,597.4,534.2,597.4,532.7,596.3z"/>
	<path class="st17" d="M465.2,490.9c-0.5,0-1,0-1.5,0c0.3-0.5,0.5-1.1,1.2-0.9C465,490.1,465.1,490.6,465.2,490.9z"/>
	<path class="st29" d="M477.8,331.4c0,3.8,0.1,7.7-0.1,11.5c-0.4,7.4,1.4,14.4,4.1,21.2c5.6,13.8,12.5,26.8,21,39
		c2.5,3.6,5.3,6.8,8.1,10c3.2,3.8,6.4,7.5,9.6,11.2c0.4,0.5,0.9,1.1,0.8,1.6c-0.1,2.9,1.9,4.6,3.6,6.6c2,2.3,4,4.6,6.1,6.9
		c1.9,2,1.8,2.9,0.2,5.2c-2.2,3.1-6.3,4.5-9.7,3.2c-2.8-1.1-3.3-2.8-1.2-5.1c0.5-0.5,1.2-0.9,1.3-2.1c-3,1.1-5.4,0.6-6.8-2.9
		c-0.5,3.9-3,3.8-5.8,3.6c-2.3-0.1-2.3,0-3.7,1.4c0.2,0.2,0.4,0.5,0.5,0.4c1.2-0.3,2.4-1.4,3.2,0.8c0.6,1.8,0.3,4.2-1,5.1
		c-1,0.6-1.7,0-2.2-0.7c-1.5-2.4-3.2-4.7-3.7-7.6c-0.6-3.3-0.6-3.3-3.6-1.6c-0.2,0.1-0.4,0.3-0.6,0.5c0,1.3,1.4,2,1.4,3.3
		c0,0.6,0.6,1.2,0,1.7c-0.6,0.5-1.5,0.5-2.1,0c-1.8-1.3-3.5-2.8-5.2-4.2c-0.6-0.5-1-1.1-1.6-1.5c-6.6-4-8.3-10.4-8.4-17.5
		c0-0.7,0.1-1.5,0-2.2c-0.3-3.2,0.4-6,2.3-8.7c2.4-3.6,4.3-7.5,6.5-11.2c1.3-2.2,1.3-4.5,0-6.7c-3-5-5.9-10-9-14.9
		c-1.3-2.1-1.9-2-4.2-0.8c-7.4,3.9-14.9,7.7-23.2,9.6c-5.4,1.2-6,2.7-3.9,7.8c1.9,4.7,3.9,9.3,5.8,14c1.2,3.1,2.1,6.3,2,9.7
		c-0.1,5.6,0,11.1,0,16.7c0,0.9,0,1.7-0.1,2.6c-0.1,0.6-0.4,1.2-1.1,1.3c-0.9,0.2-1.3-0.4-1.6-1.2c-0.7-1.6-0.7-3.6-2.4-4.7
		c-1.1,0.6-0.7,1.4-0.7,2c-0.1,2.7-0.1,2.7-3,2.9c-0.5,1.9,1.6,2.6,2.1,4.3c-1.7,0.6-3.2,1.6-2.9,4.4c-3.1-3-4.8-6.2-6.2-9.4
		c-1.4-3.2,0.6-6.6,0.1-10.1c-1.5,3.7-4,6.5-6.8,9.1c-0.6,0.6-1.2,1.5-2.2,1.1c-1.1-0.5-1.1-1.5-1-2.6c0.1-0.8,0.8-1.5,0.4-2.5
		c-1.5,0.1-2.5,1-3.7,1.6c-3.2,1.8-6.3,3.9-10,4.6c-0.4,0.1-0.7,0.3-1,0.4c-1,0.2-1.3,1.8-2.4,1.4c-1.2-0.4-1.3-1.7-1.9-2.7
		c-0.3-0.5-0.5-1.1-0.8-1.7c-1.2-2.1-1.2-2.1-3.3-0.2c-1-0.3-1-1.3-1.6-1.9c-0.6-0.6-1.1-1.3-1.9-1.6c-0.7,0.8-0.5,1.6-0.5,2.2
		c0.3,2-1.2,2.9-2.6,3.6c-0.9,0.5-1.7,0.2-1.9-1c-0.1-1.1-0.1-2.2-0.2-3.2c-1.5-1-1.7,2-3.1,0.9c-0.9-0.7-1.7-1.3-2.4-2.2
		c-0.9-1.1-1.8-2.3-3.6-3c0.3,3.1,2.2,4.8,3.8,6.7c1.4,1.6,1.3,2.6-0.1,3.7c-1.1,0.9-2,0.9-2.7-0.4c-0.6-1.1-1.2-2.1-1.3-3.4
		c-0.1-1.1-0.8-1.7-1.7-2.2c-1.2-0.6-1.9-0.5-2,1c0,0.5,0,1,0,1.5c0.1,1.5-0.6,2.7-1.9,3.3c-1.3,0.6-2-0.5-2.9-1.2
		c-0.2-0.2-0.4-0.2-0.6-0.4c-0.9,0-1.1,0.9-1.5,1.5c-1.1,1.7-2.5,1.7-4.5,1.4c-5.2-0.6-7.5-4.1-9.6-8.2c-1.3-2.6-1.4-2.5-3.9-4.2
		c-0.9,1.5,0.3,3.4-1,5.2c-1.6-1.2-1.9-3.1-2.7-4.6c-1.7-0.1-1.3,2-2.6,2.3c-2.5-0.5-4-3.6-7.3-3.1c0.3,1.8,1.6,2.6,2.8,3.4
		c1.4,1,3,1.7,4.2,3c2.7,3.1,1.3,8.8-2.6,10.1c-0.6,0.2-1.2,0.2-1.8-0.2c-0.6-0.4-0.6-1.1-0.2-1.7c0.8-1.5,0.9-2.5-1.1-2.7
		c-0.2,0-0.5-0.5-0.6-0.8c-0.2-0.7-0.2-1.6-1.1-1.7c-1.1-0.1-1.3,0.9-1.7,1.7c-0.2,0.4-0.2,1-0.3,1.4c-0.2,0.7-0.6,1.1-1.3,1.1
		c-0.7,0-1.2-0.2-1.5-0.8c-0.3-0.8-0.7-1.6-1-2.4c-0.5-1.1-1.1-2.3-2.8-1.6c-1.5,0.7-2.3-0.6-3-1.5c-1.4-1.7-3.1-3.1-4.7-4.7
		c-1.1-1.1-2-0.7-2.6,0.5c-0.5,1-0.8,2.1-1.3,3c-0.9,1.6-1.8,1.6-3.1,0.2c-0.2-0.3-0.4-0.6-0.6-0.9c-0.3-0.4-0.8-0.6-1.3-0.5
		c-0.7,0.2-0.8,0.8-0.7,1.5c0.3,1.4,0.5,2.7-0.6,3.8c-0.7,0.7-1.6,1.5-2.1-0.2c-0.3-1.1-1.1-1.5-2.1-1.7c-2.6-0.6-3.4-1.9-2.9-4.4
		c0.2-1.1,0.7-2.1,1-3.2c0.7-2.7,0.3-3.8-2.3-6c-1.5,2.8-1.4,6-1.7,8.9c-0.3,2.8-1.1,5.5-1,8.4c0.1,1.3-0.5,2.7-2.2,2.9
		c-2.7,0.4-4-0.8-3.2-3.6c0.6-2.1,0.2-3.6-1.3-5c-1.3-1.2-2.1-1.1-2.7,0.6c-0.8,2.4-0.9,4.8,0.1,7.6c-3.1-1-5.6-1.9-7.2-4.5
		c-2.2-3.6-2.3-3.5-6.4-2.1c-1,0.3-2.1,0.6-2.8-0.1c-2.2-2.1-5.2-2.9-7.5-4.7c-1.7-1.3-1.7-1.5-0.3-3.1c0.9-1,2-1.8,2.6-3.1
		c1-2.4,1-4.7-0.7-7.1c-1.1,1.1-0.9,2.1-0.9,3c0.3,3-1.4,4.9-3.4,6.6c-1.2,1-2.4,0.9-3.1-0.4c-3.4-6.4-7.8-12.2-10.2-19.2
		c-3.1-9-5.6-18.1-8.7-27.1c-2.1-6.2-5.2-11.6-10.6-15.6c-1.9-1.4-3.8-3.2-5-5.4c-0.3-0.5-0.7-1-1.2-1.4c-2.1-1.8-3.7-1.5-4.5,1.1
		c-2.9,9.3-6.4,18.4-7.6,28.1c-0.2,1.6-0.4,3.2-0.8,4.7c-1.2,4.1,0.4,7.4,3,10.1c4.2,4.4,7.8,9.2,11.5,14c2.3,2.9,3.7,6.4,5.4,9.7
		c2.3,4.7,0.9,7-4.5,7.5c-0.8-1.8,0.4-3.9-0.8-5.7c-1.3,0.4-1.5,1.4-1.6,2.3c-0.1,0.9-0.4,1.7-0.8,2.5c-0.4,0.7-0.7,1.4-1.6,1.3
		c-1.1-0.1-1.3-1-1.3-1.9c0-0.9-0.2-1.8,0-2.6c1.2-3.6,0.2-7.3,1.3-11.4c-2.3,1-2.1,3-2.7,4.3c-0.7,1.4-1,3-1.6,4.5
		c-0.6,1.6-1.3,3.2-1.9,4.8c-3.7-0.8-3.7-0.8-2.8-3.9c0.3-1.2,1.1-2.4-0.2-3.7c-0.9-0.8,0.2-1.8,0.8-2.5c1.3-1.6,1.3-1.6,1.9-3.4
		c-1.5-0.6-3.4,0.5-4.6-0.7c-1.3-1.2-0.3-3.1-0.7-4.6c-0.4-1.3-0.7-2.7-1.4-3.8c-2-3.5-2.6-7.2-2.2-11.1c0.8-6.8,1.4-13.7,2.9-20.4
		c1.9-7.9,4.2-15.7,8.2-22.9c3.6-6.4,8.1-12,13.8-16.6c6.4-5.2,12.9-10.3,18.7-16.2c3.5-3.5,6.3-7.6,9.5-11.3
		c0.2-0.3,0.4-0.6,0.6-0.9c0.2-0.3,0.6-0.5,1-0.3c0.5,0.3,0.5,0.8,0.1,1.2c-2,2.6-3.9,5.4-6.1,7.9c-2.9,3.3-6,6.5-9,9.7
		c-6.6,7-13.4,13.8-20.1,20.7c-1.9,1.9-1.8,4.2,0.6,6.5c3.3,3.1,5.9,6.8,9.5,9.8c4.1,3.4,8,6.9,12.5,9.7c6.5,4.1,13,8,20.1,10.9
		c5,2,9.7,4.9,14.8,6.7c5.6,2,11.4,3,17.2,3.9c6.2,0.9,12.4,1.5,18.6,2.2c0.9,0.1,1.7,0.1,2.6,0.1c5.1,0,10.1,0,15.2,0
		c6.8,0,13.4-0.9,20.2-1.3c4.8-0.3,9.5-0.8,14.3-1.1c8.2-0.5,16.4-1.2,24.4-2.8c5.8-1.2,11.6-1.9,17.4-2.9c3.1-0.6,6.3-1.3,9.3-2.4
		c1.6-0.6,3.3-0.8,5-1.3c9.5-2.7,19-5.2,28.1-9.1c2.6-1.1,5-2.7,7.5-4.1c2.3-1.3,2.7-2.4,1.9-4.8c-2.8-8.6-4.1-17.5-3.7-26.5
		c0.3-7,1-14,2.9-20.7c1.1-0.1,1.1,0.7,1.1,1.4C478,325.9,478.5,328.6,477.8,331.4z"/>
	<path class="st29" d="M133.5,266.8c-0.1,0.7-0.3,1.7-1.3,1c-0.7-0.4-1.1-1.3-1.5-2c-2.5-4.8-4.3-9.9-4.5-15.4
		c-0.3-6.8,4.9-14.1,11.7-16.6c-2.1,6.6-4.5,12.9-4.3,19.7c-1,1.9,0.2,4-0.7,5.9c0,0.5,0,1,0,1.5
		C133.7,262.8,132.5,264.9,133.5,266.8z"/>
	<path class="st30" d="M495.5,449.1c-2.1-0.7-3.1-2.1-4.4-3.2c-0.6-0.5-0.7-1.2-0.1-1.9c0.7-0.7,1.4-0.5,1.8,0.2
		C493.8,445.7,495,446.9,495.5,449.1z"/>
	<path class="st30" d="M608.4,445.7c0-1.1,0-1.9,0.8-2.5c0.5-0.4,1.1-0.6,1.7-0.2c0.5,0.3,0.5,0.8,0.4,1.3c-0.1,0.6-0.4,1.1-0.6,1.7
		c-0.3,0.8-0.5,1.8-1.6,1.5C608.1,447.2,608.5,446.2,608.4,445.7z"/>
	<path class="st31" d="M422.9,442.7c-0.2,0.8,0.3,2-1.1,1.8c-0.7-0.1-1.4-0.8-1.4-1.5c0-1,0.4-2.1,1.6-2.2
		C423.3,440.7,422.7,442,422.9,442.7z"/>
	<path class="st32" d="M477.8,331.4c0-2.3,0-4.6,0-6.9c0-1,0.2-2-0.7-2.7c0.4-0.4,1.3-1.6,1.3-0.4
		C478.4,324.7,479.3,328.1,477.8,331.4z"/>
	<path class="st33" d="M488.7,442.4c-1-0.4-1.8-1.1-1.8-2.3c0-0.6,0.5-1,0.9-0.8c1,0.5,1.9,1.2,1.8,2.5
		C489.5,442.2,489.2,442.5,488.7,442.4z"/>
	<path class="st34" d="M334.4,437.7c-1.2,0.1-1.9-0.4-2.4-1.1c-0.4-0.5-0.5-1.2,0.1-1.6c0.4-0.3,0.9-0.1,1.3,0.3
		C334,435.8,334.6,436.4,334.4,437.7z"/>
	<path class="st35" d="M426.8,442.7c0.2-0.9,0.8-1.5,1.8-1.4c0.4,0,0.7,0.2,0.7,0.7c-0.1,1-0.7,1.6-1.6,1.7
		C427.2,443.8,426.9,443.3,426.8,442.7z"/>
	<path class="st36" d="M334.3,444.7c0,0.8-0.3,1.2-0.8,1.3c-1,0.4-1.2-0.4-1.5-1.1c-0.2-0.6,0.1-1,0.6-1
		C333.4,443.8,334,444.3,334.3,444.7z"/>
	<path class="st33" d="M406.3,441.5c-0.8-0.1-1.3-0.6-1.5-1.4c-0.1-0.4,0.2-0.7,0.6-0.8c0.8,0,1.5,0.2,1.7,1
		C407.2,441,406.8,441.3,406.3,441.5z"/>
	<path class="st37" d="M132.8,259.4c0.3-2-0.8-4.1,0.7-5.9C133.2,255.4,134.2,257.5,132.8,259.4z"/>
	<path class="st38" d="M133.5,266.8c-1.5-1.8-0.4-4-0.7-5.9C134.2,262.7,133.2,264.9,133.5,266.8z"/>
	<path class="st29" d="M496.3,496.1c0.7-1.6,2.2-1.8,3.4-1.4c4.1,1.2,8.3,0.5,12.4,1.3c7.1,1.5,11.5,5.1,13.4,12.3
		c2.4,8.7,3.1,17.4,2.6,26.3c-0.2,4.4-1.2,8.7-2.4,13c-1.7,6.6-5.1,9.6-12,10.1c-3.9,0.3-7.8,0.8-11.7,0.8c-2,0-3.9-0.1-5.8-0.7
		c-0.5-0.8-0.4-1.7-0.4-2.5c0-18.8,0-37.7,0-56.5C496,497.8,495.8,496.9,496.3,496.1z"/>
	<path class="st39" d="M496.3,496.1c0,20.5,0,41.1,0,61.6c-1-0.8-0.7-2-0.7-3.1c0-18.5,0-36.9,0-55.4
		C495.6,498.2,495.3,497,496.3,496.1z"/>
	<path class="st29" d="M530.5,77.4c-0.4,4.2-1.3,8.4-2.4,12.5c-2.5,9.6-6.5,18.6-12.2,26.8c-2.3,3.3-5.1,6.5-9.7,6.7
		c-2.5,0.1-4.9-0.4-7.2-1.1c-3-0.8-5.9-1.9-8.8-2.9c-3.1-1.1-3.3-1.4-2.2-4.5c3.6-11.1,7.2-22.3,10.8-33.4c2-6.3,4.4-12.5,6.1-19
		c0.2-0.7,0.4-1.4,0.7-2.1c1.3-2.9,2.3-3.4,5.1-2c4.1,2,8.6,3.1,12.3,5.8C527.6,67.5,530.4,71.6,530.5,77.4z"/>
	<path class="st29" d="M262,516.2c0.4,0.7,0.8,1,0.9,1.5c2.6,7.8,5.2,15.6,7.9,23.4c1.6,4.8,3.4,9.5,5,14.3c0.8,2.3,0.3,3.1-2.1,3.6
		c-0.7,0.2-1.5,0.1-2.2,0.1c-6.9,0-13.8,0-20.7,0c-0.7,0-1.5,0-2.2-0.1c-2.1-0.4-2.7-1.4-2-3.5c1.1-3.4,2.3-6.7,3.6-10.1
		c3.2-8.5,6.3-17.1,9.5-25.6C260.2,518.7,260.6,517.4,262,516.2z"/>
	<path class="st29" d="M422.6,60.2c1.6,4.4,1.8,8.7,2.5,12.9c1.5,9.1,2.8,18.1,4.3,27.2c0.4,2.8,0.1,3.1-2.8,3.3
		c-2.8,0.2-5.4-0.6-8-0.9c-5.1-0.5-10.1-1.5-15.2-2.3C403.8,97.2,419.7,63.9,422.6,60.2z"/>
	<path class="st40" d="M415.8,434.2c-1.4-2.2-1.5-4.3-2.6-6.5c1.5-0.1,2.3,0.4,2.8,1.4C416.8,430.6,416.8,431.9,415.8,434.2z"/>
	<path class="st41" d="M390.1,425.1c-2-1.5-2.9-3-3.4-4.7c-0.2-0.5,0-1,0.6-1.1c0.3,0,0.8,0.1,0.9,0.4
		C389.1,421.1,390.2,422.6,390.1,425.1z"/>
</g>
</svg>
