<?xml version="1.0" encoding="utf-8"?>
<!-- Generator: Adobe Illustrator 21.0.0, SVG Export Plug-In . SVG Version: 6.00 Build 0)  -->
<svg version="1.1" id="Calque_1" xmlns="http://www.w3.org/2000/svg" xmlns:xlink="http://www.w3.org/1999/xlink" x="0px" y="0px"
	 viewBox="0 0 1000 1000" style="enable-background:new 0 0 1000 1000;" xml:space="preserve">
<style type="text/css">
	.st0{fill:#FEFEFE;}
	.st1{fill:#FBEBD5;}
	.st2{fill:#FAEBD5;}
	.st3{fill:#E6E2DD;}
	.st4{fill:#F1E5D5;}
	.st5{fill:#E9E5E0;}
	.st6{fill:#F0EBD5;}
	.st7{fill:#E7E3DE;}
	.st8{fill:#E6E7E7;}
	.st9{fill:#F0E4D4;}
	.st10{fill:#E8E9E9;}
	.st11{fill:#E8DFD4;}
	.st12{fill:#E9EAEA;}
	.st13{fill:#EAE6E1;}
	.st14{fill:#F2E6D6;}
	.st15{fill:#EFCEF7;}
	.st16{fill:#EBE7E2;}
	.st17{fill:#E8E4DF;}
	.st18{fill:#EBE6E0;}
	.st19{fill:#EBE8E3;}
	.st20{fill:#EBE4DB;}
	.st21{fill:#F0DDD2;}
	.st22{fill:#F5F2F0;}
	.st23{fill:#EAE2D8;}
	.st24{fill:#EAE1D6;}
	.st25{fill:#EAE2D7;}
	.st26{fill:#E8E3DE;}
	.st27{fill:#EAE7E1;}
	.st28{fill:#E6DDD2;}
	.st29{fill:#E7DED3;}
	.st30{fill:#FFFFFF;}
	.st31{fill:#FBFBFA;}
	.st32{fill:#FDFEFD;}
	.st33{fill:#EAE5E1;}
	.st34{fill:#FBFCFC;}
	.st35{fill:#F9F9F9;}
	.st36{fill:#FBFBFB;}
	.st37{fill:#F8F9F8;}
	.st38{fill:#ECE7E1;}
	.st39{fill:#EBE6E1;}
	.st40{fill:#E5E1DC;}
	.st41{fill:#F4EADD;}
	.st42{fill:#F4EADE;}
</style>
<g>
	<path class="st0" d="M36.8,874.1c0-232.5,0-464.9,0-697.5c309.6,0,619.2,0,928.9,0c0,232.4,0,464.9,0,697.5
		C656.1,874.1,346.4,874.1,36.8,874.1z"/>
	<path class="st1" d="M671.9,598.1c0.4-3.9,0.9-7.8,1.3-11.7c0.4-4.3,0.7-8.5,1-12.8c-1.5-0.2-1.7,0.9-1.8,1.6
		c-1.6,6-3.4,12.1-4,18.3c-0.3,3.4-0.1,6.9-0.1,10.4c0,2.1,0,4.2-0.5,6.2c-0.4,1.4-0.4,3-0.1,4.4c0.8,3.1,0.7,6.1,0.6,9.2
		c-0.2,7.1,1.4,13.9,2.7,20.8c0.8,3.9,1.7,7.7,4.1,11.3c1-1.6,1.6-2.8,0.9-4.5c-0.5-1.3-0.3-2.7-0.3-4c0-0.5,0-1,0.6-1.2
		c0.7-0.3,1.1,0.3,1.6,0.7c0.8,0.8,0.9,1.8,0.8,2.8c-0.2,2.4,0.7,4.5,1.1,7.3c2.7-2.7,3.8-6.4,7.1-8.5c0.3,2.2-0.5,3.6-1.5,5
		c-1.3,1.9-2.1,3.8-2.6,6.1c-0.3,1.3-0.2,2.4,0.8,2.9c1.1,0.5,1.7-0.7,2.2-1.5c0.5-0.7,0.9-1.4,1.4-2.3c1.5,1.4,1.1,2.8,0.7,4.2
		c-0.2,0.6-0.5,1.2,0.1,1.7c0.7,0.6,1.4,0.3,2,0c2.6-1.3,4.3-3.3,4.2-6.4c0-1.4,0-2.9,0-4.6c2.8,1.2,2.6,3.8,3.7,5.6
		c1.4,0.6,0.9,2,1.4,2.7c-0.3-0.9-0.2-2.2-0.6-3.5c0.1-0.6,0.2-1.4,1-1.2c0.8,0.3,1.4,0.9,2.1,1.4c1-0.4,0.2-1.8,1.2-2.1
		c0.9-0.3,1.3,0.5,1.9,1c0.4,0.3,0.9,0.8,1.3,0.4c1.7-1.6,2.2,0.1,3.1,1c0.9,0.9,1.7,0.6,2-0.7c0.3-1.2-0.3-2.7,0.7-4.2
		c1.4,1.7,1.4,4.3,3.9,5c1.7-3,1.1-6.5,2.5-9.7c2.1,1.6,2.1,3.7,1.6,5.8c-0.4,1.3-0.5,2.4,0.5,3.6c1.8-1.3,2.3-3.6,4.2-5.2
		c0.9,0.9,1.3,1.9,0.9,3.2c-0.2,0.6,0,1.2,0.4,1.7c1.9,2,3.4,1.8,4.4-0.7c0.2-0.5,0.1-1.2,0.6-1.7c1.1-0.1,1,0.9,1.2,1.5
		c0.6,1.9,1.1,3.5,2.9,4.9c1.7,1.2,1.6,3.7,2.8,5.5c4.2,6.6,7.8,13.4,10,21c0.7,2.5,0.7,2.6-1.8,3.8c-3-0.6-5.9-0.6-8.9,0
		c-1.4,0-2.7,0-4.1,0c-148.7,0-297.3,0-446,0c-8.7,0-7.7-1.3-9.9-7.6c-0.9-2.6-1-5.3-0.9-8c-0.6-2.5-0.6-5,0-7.4
		c0.9-1.7,2.4-1.7,3.8-1.3c4.1,1.3,8-0.1,11.9-1.1c1.8-0.4,3.1-0.7,4.9,0.2c7.7,3.9,16,0.1,18.9-7.3c1.2-3,0.8-6.2,0.3-9.2
		c-1.2-7.6-3.9-14.8-7.3-21.6c-2.1-4.3-4.3-8.6-6.7-12.8c-2.4-4.3-4.3-8.9-6.4-13.4c-0.9-1.9-1.2-4-1-6.1c0.7-7.4-1.1-14.4-3.4-21.4
		c-1.7-5.2-4.4-9-9.1-12c-7.4-4.6-12.8-11.3-17.5-18.7c-3.6-5.7-6-11.9-8.5-18c-0.4-1.1-0.6-2.3-2.4-3.5c0.4,4.1-0.5,7.5-0.6,11
		c-0.1,2.8-0.1,5.6-0.7,8.4c-0.6,3-1.9,5.6-4,7.7c-2.3,2.4-4.7,4.7-7.1,7.1c-2.7,2.7-5.6,5.2-7,9c-0.2,0.7-0.8,1.2-1.3,1.8
		c-0.8,1.1-1.5,0.5-2-0.3c-0.2-0.3-0.3-0.7-0.3-1c-0.6-3.8-1.4-7.6-0.9-11.6c0.4-3.3,0.5-6.6,1.4-9.8c1.7-6.8,5.6-12,11.4-15.8
		c3.4-2.3,5.8-5.1,6.9-9.2c1.5-5.4,0-10.2-2.5-14.9c-3.5-6.5-8.5-11.7-13.2-17.2c-4.1-4.7-6.6-9.9-6.7-16.3
		c-0.2-6.9,1.1-13.4,4.2-19.6c3.9-7.8,9.5-14,16.6-19c5-3.6,10.4-6.6,15.9-9.5c6-3.1,11.7-6.8,17.5-10.3c7.1-4.2,14.6-7.8,22.1-11.2
		c11-5.1,22.5-8.6,34-12.3c6.1-1.9,12.3-3.4,18.4-5.2c5.6-1.6,11.2-2.8,16.8-4c8-1.7,16.2-2.8,24.4-3.9c7.1-0.9,14.2-1.4,21.2-2.3
		c6.1-0.8,12.2-1,18.3-1.6c4.2-0.4,8.3-0.7,12.4,0.1c2.6,0.5,5.1-0.7,7.7-0.7c4.7,0,9.3,0.9,14,0.8c4.5-0.1,9,0.5,13.5,0.8
		c9.4,0.7,18.7,1.5,28,3.3c5.5,1,11.1,2.2,16.6,3.3c6.5,1.2,13.1,2.3,19.5,3.7c11.4,2.4,22.8,4.9,33.9,8.5
		c10.7,3.4,21,7.9,31.6,11.5c12.5,4.3,24.2,10.6,35.9,16.6c6.1,3.2,12,6.8,17.8,10.6c8.5,5.7,17.5,10.7,25.4,17.2
		c4.2,3.5,8.2,7.3,12.3,11.1c3.6,3.3,7,6.9,10.7,10.2c5.9,5.2,10.9,11.4,16.1,17.3c8.1,9.2,13.9,19.7,19.2,30.5
		c1.8,3.6,2,3.6,5.7,2.2c4.2-1.6,8.4-2.8,12.9-3c4.8-0.2,9.7-0.3,14.5-0.4c6.2-0.1,12.2,0.8,18.2,1.3c5.1,0.5,9.9-0.8,14.9-0.5
		c2.2,0.1,2.7,0.5,2,2.5c-2.3,6.8-4.9,13.3-9.8,18.9c-7,7.9-14.8,14.3-24.7,18c-3.3,1.2-6.3,3.4-10.1,3.3c-1.1,0-1.6,0.8-1.4,2.1
		c0.5,2.9,0.8,5.8,1.2,8.8c0.5,3.5,1.1,7,1.6,10.6c0.6,4.4,2.4,7.9,6.2,10.4c2.5,1.7,4.9,3.8,7.2,5.7c3.6,2.9,7.8,4.7,12.2,6.1
		c2.2,0.7,4.6,0.6,6.7-0.8c1.1-0.7,2.1-1,3.5-0.7c3.1,0.7,4.2,2.4,3,5.3c-1.2,3.2-2.6,6.4-4,9.5c-2.6,5.8-5.3,11.7-7.7,17.6
		c-1.5,3.6-4.4,5.1-8.1,5.5c-3.7,0.4-7-1-10.5-1.8c-1.1-0.2-2.2-0.5-3.3-0.5c-1.1,0.1-1.6,0.6-1.3,1.7c0.2,0.9,1,1.9-0.2,2.6
		c-1.2,0.8-2.5,1.7-4.1,1.5c-1.8-0.2-3.7-0.5-5.4-1c-7.3-2-14.7-3.1-22.2-2.5c-4.5,0.4-9,0.5-13.5,1.1c-3.5,0.5-7.1,1-10.6,1
		c-2.2,0-4.4-0.2-6.6,0.6c-2.2,0.7-4.3-0.6-6.6-0.6c-5.3,0-10.4-1-15.7-1.7c-2.7-0.3-5.2-1.4-7.7-2.6c-4.5-2.1-8.8-4.4-13.3-6.6
		c-1.7-0.8-2.9-1.9-2.7-4C671.3,617.9,671.3,608,671.9,598.1z"/>
	<path class="st1" d="M467.2,330.2c0-8.9,0-17.8,0-26.7c0.8-8.7,0.2-17.4,0.4-26.1c0-1,0.3-2-0.4-2.9c0-6.4,0-12.8,0-19.4
		c-1.8,0.1-2,1.3-2.4,2.5c-1.6,4.9-3.2,9.9-4.7,14.8c-1.5,4.9-2.9,9.9-4.5,14.8c-3.7,11.6-7.4,23.2-11.1,34.9
		c-0.7,2.3-1.3,4.7-2.1,7.1c-0.3,0.9-0.6,2.1-1.8,2.2c-1.1,0.1-1.2-1.1-1.6-1.8c-9.7-15.6-19.3-31.2-29-46.8c-1-1.6-2-3.1-3.1-4.9
		c-1.1,1.2-0.7,2.5-0.5,3.6c1.8,9.4,2.7,18.9,4.2,28.4c1.7,10.9,3.2,21.8,5.4,32.7c0.5,2.5,1.3,5,1.7,7.6c0.4,2.5,2.1,3.4,4.6,3
		c0.4-0.1,0.7-0.4,1-0.3c1.3,0.1,3.2,0,3.4,1.4c0.2,1.5-1.7,1.6-2.8,1.8c-3.2,0.5-6.5,0.8-9.8,1c-3,0.3-6,0.4-9.1,0.6
		c-0.5,0-1,0-1.4-0.2c-0.3-0.1-0.6-0.5-0.6-0.8c0-0.3,0.3-0.8,0.5-0.8c1.2-0.4,2.3-0.8,3.6-0.9c2.5-0.2,3.5-1.2,3.7-3.6
		c0.2-2.1,0.4-4.3-0.1-6.3c-0.6-2.7-0.6-5.4-0.6-8.1c0-5.2-0.9-10.3-1.3-15.4c-0.4-4.9-1.3-9.7-1.8-14.6c-0.5-4.9-1.3-9.7-1.9-14.6
		c-0.4-2.9-0.9-5.9-0.9-8.8c0-2.9-0.7-5.6-1-8.4c-0.3-3.3-2-6.3-4.3-8.8c-1.7-1.8-3.1-3.8-4.2-6c-0.9-1.9-2.4-2.7-4.5-2.5
		c-1.6,0.1-3.2,0-4.8,0c-0.8,0-1.5-0.4-1.6-1.2c-0.2-1.1,0.7-1.5,1.6-1.6c3.5-0.4,7-0.8,10.5-1.3c2.7-0.3,5.3-0.7,8-1
		c2.5-0.3,4.2,0.8,5.5,2.9c8.5,13.7,17.1,27.4,25.7,41.1c2.6,4.2,5.2,8.4,7.8,12.5c1,1.6,1.9,1.5,2.5-0.3c1-2.8,1.9-5.6,2.8-8.4
		c4.9-14.9,9.7-29.8,14.7-44.6c0.7-2.1,0.6-4.4,2.2-6.2c4.7-1.5,9.5-0.6,14.3-0.7c3.9,0,7.9-0.8,11.7,0.7c0.3,1.7-0.9,2-2,2.2
		c-1.2,0.2-2.4,0.1-3.6-0.2c-2.7-0.6-3.9,0.3-4,3c-0.1,3.8,0,7.6-0.1,11.4c0,0.5,0,1,0,1.5c-0.8,4.7-0.1,9.5-0.4,14.2
		c-0.1,1.4,0.3,2.9-0.3,4.3c0,10.1,0,20.3-0.1,30.4c-0.8,4-0.1,8-0.4,12c-0.1,1.4,0.3,2.9-0.3,4.3c0,4.7,0,9.3,0,14
		c0,3.4,0.2,3.6,3.4,3.8c1.3,0.1,2.7,0.1,3.7,1.5c-1,1.3-2.3,1.8-3.8,1.2c-1.6-0.6-3.1-0.2-4.7,0c-5.6,0.5-11.3,0.3-16.9,0.1
		c-1,0-2.1-0.3-3-1.3c0.6-1.2,1.6-1.5,2.7-1.5c1.5,0.5,2.9,0.6,4.4,0c0.7-0.3,1.2-0.8,1.5-1.5C467.8,342.6,467.7,336.4,467.2,330.2z
		"/>
	<path class="st1" d="M236.4,302.2c-2.3,1.3-4.2,2.4-6.1,3.5c-2.4,1.4-2.5,1.4-1.2,4c2.7,5.6,5.3,11.2,8,16.7
		c5.4,11,10.9,21.9,16.4,32.8c0.4,0.8,0.8,1.6,1.2,2.3c1.2,2.2,1.9,2.4,4.2,1.5c2.3-1,4.5-2,6.8-3c4-1.9,8.1-3.7,12.1-5.6
		c2.7-1.3,3-2,1.9-4.6c-3.7-8.6-7.4-17.2-11-25.8c-3.3-7.8-6.6-15.7-10-23.5c-0.4-0.9-0.8-1.8-1.3-2.7c-1.6-3.2-1.6-3.2-5.1-1.9
		c-1.4,0.5-2.9,0.7-4.3,1.1c-0.7,0.2-1.3,0.1-1.5-0.6c-0.3-0.7,0.2-1.2,0.7-1.5c0.6-0.4,1.3-0.7,2-1c8.3-3.4,16.7-6.7,25.1-10
		c1.3-0.5,3.2-2.3,4.1,0c0.7,1.7-1.8,1.9-2.9,2.7c-0.1,0.1-0.2,0.1-0.3,0.2c-6,1.8-4.9,3.1-3.2,7.5c3.1,8,6.3,16.1,9.5,24.1
		c3.3,8.5,6.7,17,10,25.5c0.1,0.3,0.2,0.7,0.3,1.1c1.3,3.2,1.6,3.3,4.9,2c1-0.4,2-1.1,3.1-1.1c0.9,0,1.9-0.1,2.2,0.9
		c0.3,1-0.6,1.5-1.4,1.9c-1,0.4-2.1,0.7-3.2,1c-3,1.1-3.3,1.7-2.1,4.6c3.1,7.8,6.2,15.6,9.3,23.3c1.3,3.2,1.4,3.2,4.6,2.3
		c0.4-0.1,0.7-0.3,1-0.4c1.1-0.2,2.5-0.8,2.9,0.4c0.5,1.3-1.2,1.6-2.1,2.1c-4.9,2.6-10.4,3.9-15.5,6.1c-2.1,0.9-4.3,2-6.4,2.9
		c-0.6,0.3-1.5,0.4-1.9-0.5c-0.3-0.7,0.3-1.2,0.8-1.5c1.4-0.8,2.8-1.6,4.2-2.3c2.3-1.3,2.5-1.7,1.5-4.1c-2.9-6.7-5.9-13.3-8.8-20
		c-0.5-1.2-1-2.5-1.5-3.8c-1.2-2.5-2-2.8-4.7-1.9c-6.7,2.3-12.8,5.9-19.1,8.9c-1.8,0.9-1.7,2.1-0.9,3.7c2.6,5.2,5.2,10.4,7.8,15.6
		c1,2.1,2.2,4.1,2.9,6.4c0.3,0.9,0.9,1.7,1.5,2.5c0.9,1.2,2,1.8,3.5,0.8c0.4-0.3,0.9-0.5,1.3-0.7c1-0.5,2.1-1.1,2.8,0.4
		c0.6,1.3-0.4,1.8-1.3,2.2c-6.3,3.2-12.6,6.3-18.9,9.5c-1.2,0.6-2.5,0.7-3.9,0.8c0-2.3,1.6-2.8,3-3.6c3.2-1.8,3.2-2.1,1.5-5.4
		c-3.3-6.2-6.5-12.5-9.8-18.7c-0.3-0.7-0.7-1.3-1-2c-2.4-4.6-2.6-4.6-6.2-0.8c-2,2.2-2.4,2.2-3.9,0.5c-1.9-2.1-1.8-2.8,0.8-4.1
		c0.9-0.4,1.8-0.8,2.7-1.1c2.6-1.1,2.7-1.3,1.6-3.8c-1.1-2.3-2.4-4.6-3.6-6.9c-6.8-13-13.6-26-20.7-38.9c-0.8-1.5-1.6-3.1-2.3-4.6
		c-1.8-3.5-2.1-3.6-5.3-1.6c-1.4,0.9-3,1.1-4.4,2c-0.6,0.4-1.2,0.3-1.6-0.3c-0.4-0.6-0.1-1.2,0.3-1.7c0.3-0.4,0.7-0.7,1.2-0.9
		c8.7-5,17.8-9.2,26.7-13.7C234.3,300.8,235.3,300.8,236.4,302.2z"/>
	<path class="st1" d="M617,709.4c3.8,0.6,7.7,0.4,11.5,1.3c6.2,1.5,11.8,3.9,16.8,7.9c4.5,3.7,7.7,8.1,10.4,13.2
		c4.1,7.8,3.8,15.7,0.8,23.6c-3.8,10.1-11.4,16.4-21.4,20c-1,0.4-2.1,0.7-3.1,1.1c-0.2,0.1-0.3,0.4-0.4,0.7c2.2,1,4.4,1.9,6.7,2.9
		c5.9,2.5,8.5,7.5,9.9,13.4c0.8,3.3,0.7,6.6,0.7,9.9c0,0.7,0,1.5,0,2.2c0.2,4.5,2.2,5.8,6.2,3.7c2.5-1.3,4.8-2.9,7.6-3.8
		c-0.7,4.2-5.6,7.3-11.6,7.8c-1.5,0.5-3,0.5-4.5,0c-3.6-0.1-6.7-1.4-9.3-3.8c-1.7-1.5-2.8-3.4-2.6-5.8c-1-2.4,0.3-5-0.7-7.4
		c0.3-3.4-0.7-6.6-0.9-9.9c-0.3-3.8-4.1-7.1-8.3-7.9c-4.4-0.8-8.8,0.2-13.1-0.3c-0.6-0.1-1.1,0.4-1.5,1c-0.8,8.2-0.2,16.4-0.3,24.6
		c0,1.9-0.5,3.9,0.4,5.8c0.7,0.3,1.5,0.5,2.2,0.8c2,0.6,3.9,0.6,5.9,0c0.6,0.2,1.2,0.5,1.1,1.2c-0.2,0.8-1,0.9-1.8,1
		c-10.1,0.6-20.3,0.6-30.4,0c-1.2-1.5-1.2-2.1,0.5-2.2c2.2-0.1,4.4-0.3,6.5-0.8c0.5-0.1,0.9-0.3,1.2-0.7c0.8-8.2,0.2-16.4,0.3-24.6
		c0-1.9,0.4-3.9-0.3-5.8c-0.9-0.5-1.8-0.5-2.8-0.2c-2.3,0.5-4.6,0.6-6.6-1.5c1.2-1.6,2.6-2,4.5-1.5c2.8,0.7,4.2-0.2,4.9-2.7
		c0.5-0.8,0.3-1.7,0.3-2.5c0-18.4,0-36.7,0-55.1c0-0.8,0.2-1.7-0.4-2.5c-1.9-1.2-4.1-0.6-6.2-0.7c-1-0.1-2.1,0.1-2.9-0.2
		c-1.5-0.7-0.9-1.4,0.2-1.9c6.2,0.5,12.3,0.6,18.5,0c1.5,0,3,0,4.5,0C612.1,710,614.5,710,617,709.4z"/>
	<path class="st1" d="M625.2,361.4c0.2,4-1.7,7.4-2.9,11c-0.6,1.8-1.3,3.5-1.8,5.2c-0.6,2.1-0.3,2.5,1.8,3.2c2,0.7,3.8-0.3,5.7-0.6
		c1-0.2,2.2-1.6,2.9-0.1c0.7,1.4-0.9,2.1-1.7,3c-0.2,0.2-0.4,0.4-0.6,0.4c-3.7,0.3-7.3,0.9-10.9-0.5c-3.4-1.4-5.8-3.6-6.8-7.2
		c-0.9-3-0.3-5.8,0.9-8.6c1.7-4.1,3.1-8.3,4.1-12.6c1.4-5.9,0.3-8.7-4.7-11.8c-2.9-1.8-6.2-2.5-9.3-3.7c-1.3-0.5-1.7,0.2-2.3,1.1
		c-1,1.7-1.2,3.7-1.8,5.6c-2.1,6.3-4.5,12.5-6.1,19c-0.8,3.2-0.7,3.6,2.3,5.3c1.3,0.7,2.6,1.4,3.4,3.1c-1.1,0.5-2.1,0.4-3.1,0
		c-6.1-2.4-12.5-3.5-18.9-5.1c-1.2-0.3-2.3-0.8-3.4-1.4c-0.8-0.4-0.9-1.1-0.7-1.9c0.2-0.9,1-1,1.8-0.9c0.8,0.2,1.7,0.4,2.5,0.7
		c2.4,1.3,3.1,0.1,3.8-1.8c2.2-6.4,4.2-12.9,5.9-19.4c0.6-2.1,1.2-4.3,1.7-6.4c0.5-2.3,0-3.2-2.3-3.5c-1.7-0.2-3.1-0.8-4.5-1.6
		c-0.5-0.3-0.7-0.7-0.6-1.2c0.2-0.8,0.8-0.9,1.4-0.8c1.8,0.3,3.7,0.4,5.4,1c2,0.6,2.8-0.5,3.3-2c1.8-6.1,3.5-12.3,5.3-18.4
		c3.4-11.8,6.8-23.6,10.3-35.4c1.2-4.2,1.3-4.2-2.7-5.5c-1.3-0.4-2.6-0.8-3.9-1.3c-0.7-0.3-1.4-0.7-1.3-1.6c0.2-1.3,1.3-1.1,2.1-0.9
		c2,0.4,4.1,0.9,6,1.5c8.5,2.8,17.3,4.8,25.6,8.3c14.1,5.8,23.1,16.1,25.2,31.2c1.6,11.2-2.6,20.8-12,27.8c-3.7,2.7-7.3,5.4-11.7,7
		c-1.9,0.7-3.8,1-5.8,1c-3,0-5.9,0-9.1,0c0,1.8,1.4,2.5,2.4,3.5c2.8,2.7,5.3,5.6,5.1,9.8C625.7,357.4,625.8,359.4,625.2,361.4z"/>
	<path class="st1" d="M667.4,369.3c4.3-2.8,8.7-5.6,12.9-8.6c15.1-10.4,30.2-20.9,45.3-31.4c0.5-0.4,1-0.8,1.4-1.2
		c1.2-0.9,1.1-1.8-0.1-2.6c-1.5-1.1-3-2.1-4.5-3.2c-0.6-0.5-1-1.2-0.5-1.9c0.5-0.7,1.1-0.1,1.7,0.1c1.7,0.6,2.9,1.8,4.3,2.8
		c6.3,4.3,12.6,8.6,18.9,12.9c0.6,0.4,1.5,0.8,1.1,1.7c-0.4,0.8-1.3,1.2-2.2,1c-1.4-0.3-2.4-1.2-3.5-2.1c-3.1-2.5-6-2.6-9.5-0.7
		c-8.7,4.6-17.6,8.9-26.5,13.3c-9.1,4.5-17.6,10-26.3,15c-2,1.1-2.9,2.7-2.9,5.2c0.1,5.8,0.7,11.5,1.4,17.3c0.4,3.2,0.4,6.4,0.7,9.6
		c0.3,4,1,8.1,1,12.1c0,3.3,0.4,6.7,4,8.6c0.5,0.3,0.9,0.8,1.3,1.3c0.5,0.6,0.8,1.3,0.1,2c-0.5,0.5-1.2,0.3-1.7-0.1
		c-1.7-1.2-3.5-2.4-5.1-3.7c-3.4-2.7-7-5-10.7-7.2c-1.5-0.9-3.6-1.4-3.7-3.8c0.5-0.8,1.4-0.5,2-0.5c1.5,0,1.9-0.9,1.8-2.2
		c0-0.9,0.1-1.7,0-2.6c-1.1-7-0.9-14.2-2.2-21.2c-0.1-0.4,0-0.7-0.1-1.1c-0.2-0.8-0.4-1.8-1.2-2.2c-1-0.4-1.5,0.6-2.1,1.1
		c-2,1.9-3.1,4.5-4.4,6.8c-1.6,2.6-3,5.4-4.5,8.1c-2.1,3.8-2.2,3.9,1.3,6.2c1.5,1,2.7,2.1,2.7,4c-0.5,0.6-1,0.3-1.4,0.1
		c-5.2-3.4-10.8-6-16.3-8.8c-1.9-1-3.7-2-5.5-3.1c-0.6-0.4-1.3-0.9-0.9-1.8c0.4-0.9,1.3-1.1,2.2-0.8c0.5,0.2,0.9,0.4,1.4,0.6
		c4,1.8,4.2,1.9,6.2-2c3.1-5.9,6-11.9,9-17.9c8.6-16.7,17.1-33.4,25.8-50c2.5-4.7,5-9.4,7.3-14.1c1.1-2.2,1-2.2-1.3-3.1
		c-1.2-0.4-2.3-0.8-3.5-1.3c-0.9-0.4-1.7-1.1-2.1-2c-0.3-0.6-0.2-1.2,0.3-1.7c0.4-0.4,0.9-0.4,1.3-0.2c1.3,0.6,2.7,1.3,4,2
		c7.4,4,14.7,8.1,22.1,12.1c1.4,0.7,2.4,1.7,2.9,3.7c-2.2-0.4-3.9-1.6-5.6-2.5c-2.6-1.5-3.1-1.5-4.7,1.1c-2.6,4.2-5.1,8.5-7.5,12.8
		c-7.3,13-14.4,26.1-22.3,38.8c-1,1.5-1.7,3.2-2.5,4.9C667,368.9,667.2,369.1,667.4,369.3z"/>
	<path class="st1" d="M733.5,730.9c-0.1-5.4-1.1-10.7-2.2-16c-0.6-2.8-1.2-3.2-4-3.3c-1.9-0.1-3.8,0-6.4,0c4.1-2.7,22-2.9,27-0.7
		c-0.5,1.1-1.5,0.6-2.3,0.7c-2.7,0.3-3.6,0.9-3.9,3.5c-1.2,9.2-3.5,18.3-3.1,27.8c-0.9,2.1,0.3,4.5-0.7,6.7c0,4.5,0,8.9-0.1,13.4
		c-1,3.2,0.3,6.5-0.7,9.6c0,5.2,0,10.4-0.1,15.6c-1,3.4,0.3,7-0.7,10.4c0,3.2,0,6.4,0,9.6c-1.3,1.3-2.9,1-4.5,0.8
		c-3.9-6.4-7.9-12.7-11.8-19.1c-7.1-11.7-14.1-23.3-21.2-35c-3.8-6.2-7.5-12.4-11.3-18.6c-0.4-0.7-0.6-2.8-2.5-1.5
		c-0.6,1-0.3,2.2-0.3,3.2c0,13.2,0,26.3,0,39.5c0,1.1-0.3,2.2,0.3,3.3c0,3.7,0.1,7.3,0,11c-0.1,4.9,1.2,9.6,1.7,14.5
		c0.3,2.4,1.7,4,4.3,4.3c2.1,1,4.5-0.3,6.6,0.7c-0.3,0.7-0.8,1.2-1.5,1.5c-8.4,0.6-16.8,0.6-25.2,0c-2.2-0.1-2.2-0.1-2.3-1.5
		c1.9-1,4.1,0.3,6-0.7c3.5-0.3,3.5-3.2,3.6-5.5c0.3-6,1.3-11.9,1.7-17.9c0.6-9,1.3-18.1,1.4-27.1c1-2.7-0.2-5.5,0.7-8.2
		c0-6.5-0.1-13.1,0.1-19.6c0.1-3.1-0.7-5.8-2.2-8.4c-1.8-3-3.5-5.9-5.2-8.9c-1.2-2.2-3.1-3.1-5.5-3.1c-1.8,0-3.6,0.3-5.3-0.3
		c0.1-1.1,0.7-1.4,1.2-1.4c4.2,0.3,8.3-0.7,12.5-0.6c2.8,0,5.5,1.2,8.4,0.6c1.2-0.2,2.3,1.1,3.1,2.4c4.6,7.5,9.2,14.9,13.7,22.3
		c5.9,9.7,11.8,19.3,17.6,29.1c3.6,6,7.5,11.8,10.8,18.1c0.5,0.9,0.9,2.1,2.8,1.9c0-15.1,0-30.2,0-45.3
		C733.3,735.9,734.5,733.3,733.5,730.9z"/>
	<path class="st1" d="M460.4,709.5c1.1,0.5,1.8,1.4,0.2,1.9c-1.2,0.4-2.7,0.2-4,0.3c-1.1,0-2.2,0-3.3,0c-3.1,0.1-3.5,0.7-2.6,3.6
		c1,3.2,1.9,6.4,3.1,9.5c3,7.8,5.3,15.9,8.2,23.8c4.5,12.5,8.6,25.2,12.8,37.8c0.2,0.7,0.5,1.3,0.9,2.1c2.4-3,2.7-6.7,3.7-10.1
		c4-13.7,7.9-27.4,11.1-41.3c1.7-7.3,3.2-14.6,3.5-22.1c0.1-2.4-0.4-3-2.8-3.2c-1.9-0.2-3.9,0.3-6.5-0.6c4.2-1.7,7.9-1.2,11.5-1.6
		c2.5,0.6,4.9,0.6,7.4,0c4,0.5,8.2-0.2,11.9,2.2c-1.8,0-3.6,0-5.4,0c-2.4,0-3.9,1.2-4.8,3.4c-8.2,20.9-16,41.9-22.8,63.3
		c-3.3,10.6-6.6,21.2-9.9,31.7c-0.5,1.6-0.8,4.1-2.4,4.2c-2,0.2-2-2.5-2.5-4c-3.2-8.9-6.2-17.9-9.3-26.9c-6-17.2-11.9-34.5-18-51.7
		c-1.7-4.8-3.3-9.5-5-14.3c-1.8-5.1-2.2-5.5-7.6-5.8c-1-0.1-2-0.2-2.8-0.8c1.9-1.2,1.9-1.2,4.4-1.4c6.6,0.8,13.2,0.2,19.8,0.3
		C452.8,709.8,456.6,710.2,460.4,709.5z"/>
	<path class="st1" d="M341,810.3c1.6-0.8,2.3-2.2,2.9-3.7c3-7.3,6.1-14.6,9.1-21.8c0.4-1,0.9-2.1,1.1-3.1c0.5-2-0.8-3.5-2.8-3
		c-1.7,0.3-3.4,0.6-4.9,1.5c-0.6,0.4-1.4,0.7-2,0c-0.5-0.6-0.4-1.4-0.1-2.1c0.7-2.1,2.2-3.3,4.4-3.1c1.2,0.1,2.4,0,3.6,0.4
		c2.8,0.9,3.9,0.4,5.2-2.4c1-2.1,1.7-4.4,2.6-6.5c5.1-13.5,10.1-27,15.2-40.5c1.8-4.7,3.8-9.4,5.7-14.1c0.3-0.8,0.5-1.7,1.7-1.7
		c1.1,0,1.6,0.7,1.9,1.5c1.2,3.1,2.5,6.2,3.6,9.3c3.2,9.2,6.2,18.5,9.3,27.7c2.6,7.7,5.3,15.4,7.9,23.1c1.2,3.4,1.5,3.6,5,3.6
		c2.2,0,4.5-0.2,6.7,0.1c1.3,0.2,3.2,0,3.5,2.1c-3.4,0.8-6.8,0.1-10.2,0.4c-0.9,0.1-2.4-0.9-2.5,1.1c2.4,7.6,4.8,15.3,7.7,22.8
		c0.6,1.5,0.9,3.1,1.3,4.6c0.8,2.6,2.5,3.9,5.2,3.8c0.5,0,1,0,1.5,0c0.9,0.1,2.2-0.2,2.3,1.1c0.1,1-1.1,1.2-1.9,1.5
		c-0.8,0.3-1.7,0.3-2.5,0.3c-7.8,0-15.6,0-23.4,0c-1.5,0-3-0.2-4.2-1.2c-0.7-0.5-0.9-1.1-0.1-1.8c2.5,0.5,4.9,0.6,7.4,0
		c1.2-0.6,1.5-1.4,1-2.7c-1.2-3.2-2.1-6.6-3.3-9.8c-1.9-5.4-3.9-10.9-5.9-16.3c-0.8-2.1-1.8-3.2-4.5-3.4c-8.6-0.8-17.2-0.2-25.8-0.3
		c-2.7-0.1-4.5,1.4-5.5,4.1c-2.3,6.3-3.7,12.7-4.9,19.2c-0.3,1.4-0.5,2.9-0.7,4.3c-0.2,1.7-0.9,3.8,1.4,4.9c2.6,1,5.5-0.3,8.1,0.7
		c-0.7,1.5-2.1,2.1-3.6,2.1c-6.9,0.1-13.7,0-20.6,0.1c-1,0-1.6-0.4-1.8-1.4c0-1.6,1.3-1,2.1-1.1C338.4,810.5,339.7,811.1,341,810.3z
		"/>
	<path class="st1" d="M720.4,400.3c4.5-4,7.9-8.9,11.7-13.4c5.5-6.5,10.9-13,16.3-19.6c3.5-4.3,7-8.6,10.4-12.9
		c1.9-2.5,1.9-2.5-0.3-4.8c-1.4-1.4-2.8-2.8-4.1-4.2c-0.5-0.5-1-1.3-0.3-1.9c0.7-0.7,1.5,0,2,0.4c2.9,2.5,5.8,5,8.6,7.6
		c4.9,4.5,9.7,9,14.8,13.3c4.2,3.6,8.2,7.5,12.2,11.2c2,1.8,4.1,3.6,6,5.4c1.4,1.3,2.9,2.2,4.8,2.4c1.8,0.2,1.9,0.8,1.1,2.5
		c-0.6,1.3-1.8,2-2.7,3c-2.5,2.5-5.2,4.7-7.9,7.1c-1.2-1.8-0.2-3.1,0.2-4.2c0.8-2.4,0.5-4.6-0.5-6.8c-2.6-5.8-5.9-11.1-10.7-15.3
		c-2-1.8-3.9-3.8-5.7-5.8c-2.3-2.5-3.3-2.7-5.3-0.3c-4.5,5.3-9.4,10.4-13.9,15.7c-3,3.5-6.2,7-9.3,10.4
		c-5.2,5.8-10.2,11.7-15.3,17.4c-1.3,1.5-1,2.6,0.2,3.8c3.5,3.3,7.6,5.8,11.7,8.4c1.5,1,3.1,0.1,4.6-0.6c0.4-0.2,0.9-0.5,1.4-0.1
		c0.6,0.5,0.4,1.1,0.1,1.7c-1.3,2.3-3.1,4.2-5.1,5.9c-1.4,1.2-3,2.1-3.9,3.8c-0.4,0.7-1.2,1-1.9,0.5c-0.8-0.5-0.6-1.4-0.1-2
		c1.9-2.5,0.7-4.6-0.9-6.7c-2.3-3-4.7-6-7-9.1c-1-1.4-2-1.6-3.4-0.5c-0.7,0.7-1.7,1.1-2.2,1.9c-5.2,6.8-11.5,12.8-17,19.5
		c-1,1.2-1.1,2.1,0.1,3.1c6.1,5.1,12,10.3,19.8,12.6c1.8,0.5,3.3,1,4.7-0.7c0.3-0.3,0.8-0.6,1.3-0.7c0.6-0.1,1.3-0.2,1.6,0.5
		c0.3,0.5-0.1,1-0.5,1.3c-2.9,3-5.9,5.9-9.2,8.5c-0.5,0.4-1,0.8-1.7,0.3c-0.6-0.4-0.9-1-0.6-1.6c0.7-1.5-0.1-2.2-1.1-3
		c-8.4-7-16.5-14.4-24.5-22c-1.9-1.9-4.1-3.5-6-5.4c-0.7-0.7-1.6-1.3-1.1-2.5c2.1-0.5,3.5,1,4.8,2.1c1.5,1.1,2.4,0.8,3.4-0.4
		c3.8-4.7,7.6-9.3,11.5-14c1.9-2.3,3.8-4.5,5.7-6.8c2-2.6,2-2.7-0.6-4.6c-1.4-1-2.8-2-4.1-3.2c-0.8-0.7-0.4-1.6,0.6-1.9
		c1.2-0.2,2.2,0.2,3,1.1C717.1,398.2,718.6,399.4,720.4,400.3z"/>
	<path class="st1" d="M579.2,707.9c0,0.2,0,0.5,0,0.7c0.6,3.7,0.6,7.5,0,11.2c0,0.8,0.1,1.8-0.8,2.3c-1,0-1.2-0.9-1.2-1.5
		c-0.2-2.4-1.9-3.2-3.8-3.9c-5.2-2.1-10.7-3.5-16.3-4.2c-4-0.5-8-1.1-12-0.9c-3.1,0.2-3.7,0.7-3.7,3.7c0,2.7,0,5.4,0,8.1
		c-0.8,3.6-0.4,7.3-0.3,11c0.1,8-0.5,15.9,0.3,23.9c0,4.3,0,8.7,0,13c0,3.8,0.9,4.6,4.6,4.3c3.8-0.3,7.5-0.7,11.3-1
		c0.8-0.1,1.6-0.5,2.5-0.5c2.4,0.1,4.4-0.7,4.7-3.6c0.1-0.8,0.4-1.5,1.3-1.5c0.9,0,1.2,0.9,1.3,1.6c0.5,2.2,0.5,4.5,0.1,6.6
		c-0.5,2.7-0.6,5.4-0.7,8.1c0,0.5-0.2,1-0.9,1.4c-0.9-0.3-1-1.4-1-2c-0.2-2.8-2-3.6-4.2-4.4c-4.7-1.5-9.6-1.9-14.5-2.4
		c-3.5-0.4-4.5,0.9-4.6,4.5c0,1.1,0,2.2,0,3.3c-0.6,5.4-0.6,10.9,0,16.3c0,1.5,0,3,0,4.4c0.1,2.6,1,3.7,3.5,3.7
		c9-0.1,17.9-0.6,26.4-3.9c2.7-1.1,5.5-2.2,6-5.9c0.2-1.2,1.4-2,2,0.1c0.5,4.5,0.6,8.9,0,13.4c-0.3,0.9-0.3,2.6-1.7,0.9
		c-1.6-1.8-3.5-2.5-5.8-2.4c-5.1,0.1-10.3,0-15.4,0c-4.4,0.8-8.8,0.3-13.2,0.3c-7.7-0.1-15.5,0.5-23.2-0.3c-0.2,0-0.5,0-0.7,0
		c-0.5-0.4-1.4-0.3-1.5-0.9c-0.1-0.8,0.6-0.9,1.2-0.9c1.8-0.2,3.7,0.4,5.4-0.4c1.5-0.1,2.3-1,3-2.2c0.9-8.4,0.1-16.9,0.4-25.3
		c0-1,0.3-2-0.4-2.9c-1.1-1.8-2.8-2.2-4.7-2.2c-1.8,0-3.5,0.2-5.7-0.4c1.1-1.6,2.3-1.9,3.7-1.8c1.2,0,2.4,0,3.7,0
		c1.3,0,2.4-0.2,3-1.5c0.6-0.8,0.4-1.7,0.4-2.5c0-18.4,0-36.7,0-55.1c0-0.8,0.2-1.7-0.4-2.5c-0.9-1.8-2.3-2.3-4.2-2.3
		c-1.5,0.1-3,0.3-4.4-0.3c-0.4-0.2-0.8-0.6-0.6-1.2c0.1-0.4,0.5-0.6,0.8-0.6c1.1-0.1,2.2-0.1,3.3-0.1c16.4,0,32.8,0,49.2,0
		c2.3,0,4.4-0.3,6.3-1.5C578.2,707.5,578.7,707.5,579.2,707.9z"/>
	<path class="st1" d="M547.1,254.8c2.2,2.4,1.9,5.4,2.4,8.1c0.8,5,1.4,10,2,14.9c0.6,4.4,1.2,8.8,1.7,13.1
		c0.9,6.8,1.9,13.6,2.7,20.4c0.4,2.9,0.6,5.9,1,8.8c0.4,3,0.9,3.5,4,4.2c1.8,0.4,3.6,0.8,5.4,1.3c0.8,0.2,1.7,0.4,2.3,1.1
		c0.3,0.4,0.7,0.7,0.6,1.3c-0.1,0.6-0.7,0.7-1.2,0.7c-1.6,0-3.2,0.3-4.7-0.5c-0.4-0.2-0.9-0.4-1.4-0.6c-3.4-1.1-4.9,0-4.1,3.4
		c0.4,1.8,0.4,3.7,0.5,5.5c0.4,7,0.6,14,1.4,21c0.2,1.9,0.7,2.9,2.6,3.4c1.1,0.3,2.8,0.6,2.3,2.3c-0.5,1.7-2,1-3.2,0.7
		c-2.5-0.6-5-1.2-7.5-1.8c-3.9-1-7.9-1.9-11.8-2.9c-0.8-0.2-2-0.2-1.8-1.3c0.2-1.4,1.4-1.5,2.6-1.1c0.1,0,0.2,0,0.4,0.1
		c3.4,0.5,4.3-0.4,3.5-3.7c-0.7-2.9-0.6-5.9-0.9-8.8c-0.6-5.7-1.3-11.5-1.7-17.2c-0.2-2.9-0.8-3.5-3.5-3.6
		c-6.9-0.3-13.7-1.4-20.4-2.9c-0.8-0.2-1.7-0.5-2.5-0.6c-1.9-0.2-3.3,0.8-4.3,3.3c-2.3,5.6-4.3,11.3-5.7,17.2
		c-0.7,2.9-1.3,5.7-1.8,8.7c-0.3,1.7,0.3,2.3,1.7,2.5c1.5,0.2,2.9,0.5,4.3,0.9c0.7,0.2,1.4,0.5,1.4,1.5c-0.1,0.9-0.8,1.3-1.6,1.3
		c-2.4,0-5,0.3-7.3-0.2c-2.4-0.5-4.9-0.2-7.3-0.7c-0.5-0.1-1.1,0.2-1.4,0c-1.1-0.6-3.2-0.2-3.2-1.9c0-2,1.9-1.5,3.1-1.6
		c2.2-0.2,3.2-1.7,4.1-3.4c1.5-3,2.9-6,4.2-9.1c2.3-5.3,4.6-10.6,6.9-16c0.3-0.8,1-1.6,0.2-2.4c-0.7-0.7-1.7-0.5-2.5-0.3
		c-1.6,0.5-3.2,1.4-4.9,1.6c-1.4,0.2-2-0.6-1.7-1.7c1.3-3.6,2.2-5.6,6.2-3.9c0.1,0,0.2,0.1,0.4,0.1c4.2,1.4,4.4,1.3,6.5-2.6
		c5.9-11.1,11.4-22.5,17.2-33.6c3.6-6.9,7.2-13.8,10.7-20.7C544,257.3,545.2,255.8,547.1,254.8z"/>
	<path class="st1" d="M315,271.6c-1.3,3.3-1.1,6.6,0.2,9.7c3.5,8.5,5.4,17.4,8,26.1c2.5,8,4.8,16,7.3,24c0.7,2.4,1.4,2.8,3.8,2.4
		c4.9-0.8,9.4-3,13.7-5.3c1.6-0.8,1-2.7,1.7-3.9c0.3-0.5,0.1-1.3,0.9-1.5c0.9-0.2,1.3,0.6,1.6,1.3c1.3,3.7,2,7.6,3,11.4
		c0.2,0.7,0.5,1.4,0.5,2.1c0.1,0.8-0.4,1.5-1.2,1.6c-0.7,0.1-1.3-0.3-1.4-0.9c-0.6-2.7-2.4-3-4.8-2.6c-1.3,0.2-2.8,0.3-4-0.1
		c-3.2-0.9-6.1,0-9,0.8c-2.5,0.7-2.8,1.4-2.1,3.8c1.7,5.7,3.4,11.3,5.1,17c0.8,2.6,1.5,5.2,2.4,7.8c0.9,2.8,1.6,3.3,4.3,2.6
		c5.8-1.5,11.3-3.6,16.3-6.9c1-0.7,2.1-1.4,3.1-2c1.9-1.2,2.8-3.1,3.3-5.2c0.2-0.8,0-2,1.3-1.9c1.2,0.1,0.8,1.3,1.2,2
		c0.9,1.7,0.6,3.6,1,5.4c0.5,2.2,1.2,4.2,1.8,6.3c-0.3,0.2-0.6,0.4-0.7,0.4c-4.2-1.8-8.2-0.4-12.2,1.1c-6,2.3-12.3,3.4-18.4,5.3
		c-5,1.6-10.3,2.5-15.2,4.4c-0.6,0.2-1.1,0.5-1.7,0.7c-0.6,0.2-1.2,0-1.6-0.6c-0.4-0.6,0-1.2,0.4-1.7c0.9-1,2.3-1.4,3.5-1.9
		c2.9-1.2,3.2-1.7,2.2-4.7c-2.6-7.8-5.2-15.7-7.8-23.5c-1-3-2.4-3.7-5.3-2.4c-1.6,0.7-3.2,1.1-5.1,0.5c1-2,2.9-2.4,4.5-3.2
		c2.4-1.2,2.9-1.9,2.4-4.5c-0.2-1-0.6-1.9-0.9-2.8c-5-15-10-29.9-15-44.9c-0.7-2-1.1-4-1.8-6c-0.9-2.7-2.5-3.4-5.2-2.4
		c-1.5,0.6-2.9,1.4-4.6,0.9c-0.3-0.1-0.7-0.4-0.8-0.7c-0.3-0.6,0.1-1,0.5-1.2c1.4-0.6,2.7-1.2,4.1-1.6
		C301.2,275.2,308,272.9,315,271.6L315,271.6z"/>
	<path class="st1" d="M802.2,399.5c-1.4,0.3-3.2,1.3-4.7,2.9c-0.5,0.5-1.1,1.7-2.1,0.7c-0.6-0.7-0.4-1.7,0.2-2.4
		c2.4-2.5,4.8-5,7.3-7.4c4.5-4.1,4.5-4,7.7,1.3c3.1,5.3,7.4,9.8,11.2,14.6c4.9,6.3,10.2,12.3,15.2,18.5c1.3,1.6,3,2.5,4.5,3.7
		c1.9,1.5,2,2.3,0.2,3.7c-3.9,2.8-7.8,5.5-11.8,8.3c-0.6,0.4-1.2,1.1-1.9,0.2c-0.5-0.7-0.5-1.4,0.1-2c0.6-0.7,1.4-1.4,2.1-2
		c2-1.9,2.9-4,2.3-6.9c-0.7-3.2-1.2-6.5-2.6-9.6c-1.3-2.7-1.8-2.8-4-0.9c-8.5,7.3-17.4,14.1-26.3,20.9c-7.8,6-15.7,11.9-23.2,18.2
		c-7,5.8-14.3,11.2-21.5,16.8c-0.4,0.3-0.8,0.6-1.2,0.9c-3.5,2.8-3.5,2.8-0.7,6.4c0.5,0.7,1,1.4,1.4,2.2c0.4,0.6,0.6,1.1,0,1.7
		c-0.6,0.6-1.1,0.1-1.6-0.3c-1.7-1.7-3.4-3.2-4.9-5c-3.7-4.3-7.2-8.7-10.8-13.1c-0.2-0.3-0.5-0.6-0.6-0.9c-0.5-1.1-1.5-2.5-0.2-3.3
		c1.5-1,2,0.7,2.7,1.6c0.2,0.3,0.5,0.6,0.7,0.8c2.5,2.9,3.6,2.9,6.4,0.4c7.3-6.4,14.8-12.6,22.3-18.7c6.8-5.5,13.3-11.3,20-16.9
		c9-7.4,18.1-14.8,27.1-22.2c0.6-0.5,1.1-1,1.6-1.5c1.3-1.3,0.8-2.4-0.3-3.5c-1.8-1.7-4.1-2.7-6.2-3.9c-2-1.2-4.2-2.1-6.3-3
		C803.9,399.4,803.4,399.6,802.2,399.5z"/>
	<path class="st1" d="M159.2,356.5c0,1.4,0.5,2.3,1.2,3.2c0.5,0.6,0.9,1.1,1.3,1.8c0.3,0.5,0.5,1.2,0,1.7c-0.7,0.6-1.4,0.3-2-0.2
		c-1.2-0.9-1.9-2.2-2.8-3.4c-1.9-2.6-4-5-5.8-7.7c-1.4-2-1-2.7,1.3-3.1c1.1-0.2,2.1-0.6,3.1-1.2c12.1-8,24.3-16,36.4-24
		c1.5-1,2.6-2.2,3.7-3.6c0.8-1.1,1.8-0.9,2.5,0c2.8,4.2,5.7,8.4,7.7,13c0.3,0.7,0.4,1.6-0.3,2c-0.9,0.5-1.6-0.2-2.2-0.8
		c-0.3-0.2-0.5-0.6-0.6-0.9c-0.8-3.4-3.3-3.8-6.2-3.8c-3.5,0-6.9,0.2-10.2,1.4c-2.9,1.1-3.1,1.8-1.5,4.3c5,7.9,10.1,15.8,15.1,23.7
		c7.5,11.9,14.9,23.8,22.4,35.7c4,6.4,8.3,12.5,12.3,18.9c1.4,2.3,1.9,2.2,4.1,0.9c1-0.6,1.9-1.1,2.9-1.7c0.8-0.5,1.6-0.6,2.3,0.2
		c0.9,1.3-0.5,1.5-1,1.8c-4.2,3-8.5,5.9-12.8,8.8c-1.9,1.3-3.8,2.7-5.8,4c-0.6,0.4-1.2,0.9-1.9,1.2c-0.7,0.3-1.6,0.3-2-0.5
		c-0.4-0.7-0.4-1.5,0.3-2c1-0.8,2-1.4,3.1-2.1c1.8-1.2,2-2,0.9-3.6c-8.8-12.8-17.6-25.6-26.3-38.4c-7.4-10.9-14.7-21.9-22.1-32.8
		c-1.7-2.6-3.5-5-5.3-7.6c-0.7-1-1.5-1.3-2.4-0.4c-4.1,4.1-7.1,8.8-9.2,14.2C159.1,355.9,159.2,356.3,159.2,356.5z"/>
	<path class="st1" d="M297.9,810.3c1.3,0.1,2-1.1,3-1.5c0.7-8.2,0.6-16.3,0-24.5c0-22.2,0-44.5,0-66.7c0-0.9,0-1.7,0-2.6
		c-0.1-3.2-0.6-3.6-3.5-2.6c-4.2,1.5-8.3,3.2-12.4,4.9c-2.1,0.9-2.7,2.7-2.7,4.8c-0.1,1.4,0.6,3.8-1.2,3.8c-1.9,0-0.9-2.4-1-3.7
		c-0.1-3.8-0.1-7.7,0-11.5c0.1-2.4,0.4-2.6,2.6-1.9c1,0.3,1.9,0.5,2.9,0.5c12,0.2,23.9,1.1,35.9,0.8c4.2-0.1,8.4,0,12.3-1.8
		c0.9,1.1,0.4,2.2,0.6,3.3c0.6,3.2,0.6,6.4,0,9.7c-0.1,1.5,0.3,3.2-0.7,4.9c-1.3-1-1.6-1.9-1.3-3.2c0.6-2.3-0.4-4.3-2.2-5.4
		c-4.4-2.7-9-5.2-14.4-5.2c-0.6,0.9-0.4,1.9-0.4,2.9c0,30.2,0,60.5,0,90.7c0,1-0.2,2,0.4,2.9c0.3,0.7,0.8,1.2,1.5,1.5
		c2.9,1,6-0.3,8.9,0.7c-0.3,0.7-0.8,1.2-1.5,1.5c-5.1,0.8-10.3,0.3-15.4,0.3c-5.8,0-11.5,0.5-17.3-0.3c-0.6,0-1.2-0.2-1.5-0.7
		c0-1.6,1.3-1,2.1-1.1C294.3,810.5,296.2,811.1,297.9,810.3z"/>
	<path class="st1" d="M781.7,496.9c-0.3,0.9-0.6,1.9-0.9,3c-1.1,3.3-2.2,6.5-3.3,9.8c-1,3-2.1,3.6-5.1,3.9c-4.4,0.3-8.7,1.3-12.9,3
		c-2.8,1.2-3.8,0.9-5.2-1.6c-1.6-2.8-3.1-5.6-4.6-8.5c-1.9-3.7-1.8-3.8,2.3-4.7c4.5-0.9,9-1.5,13.4-2.4c4.7-0.9,9.4-1.8,13.8-3.9
		C781,494.7,781.8,495.1,781.7,496.9z"/>
	<path class="st2" d="M315,271.6c3.9-1.2,7.9-2.5,11.8-3.7c6-1.8,12-3.5,18-5.2c1-0.3,1.8-0.8,2-1.9c0.2-0.7,0.4-1.5,1.4-1.4
		c0.8,0.1,1.4,0.5,1.6,1.4c0.9,3.9,1.9,7.9,2.8,11.8c0.1,0.4-0.1,1-0.3,1.4c-0.2,0.4-0.4,0.9-1,0.9c-0.6,0-1-0.3-1.1-0.8
		c-0.8-3.5-3.4-3.7-6.3-3.5c-1.1,0.1-2.2-0.3-3.2-0.6c-4.4-1.1-8.7-0.6-13.1,0.5c-2.8,0.7-5.8,0.5-8.6,1.6
		C317.7,272.7,316.2,272.3,315,271.6L315,271.6z"/>
	<path class="st3" d="M315.7,808.8c-1-0.9-0.7-2-0.7-3.1c0-30.1,0-60.2,0-90.3c0-1.1-0.3-2.3,0.7-3.1
		C315.7,744.5,315.7,776.7,315.7,808.8z"/>
	<path class="st4" d="M527.2,713.9c1.1,1,0.7,2.3,0.7,3.5c0,17.7,0,35.5,0,53.2c0,1.2,0.4,2.5-0.7,3.5
		C527.2,753.9,527.2,733.9,527.2,713.9z"/>
	<path class="st5" d="M595.5,712.4c1.1,1,0.7,2.3,0.7,3.5c0,17.7,0,35.4,0,53.2c0,1.2,0.4,2.5-0.7,3.5
		C595.5,752.4,595.5,732.4,595.5,712.4z"/>
	<path class="st6" d="M490.9,249.3c-8.7,0-17.3,0-26,0c0.9-1.2,2.2-1.5,3.6-1.5c6.4,0,12.8,0,19.2,0
		C489.1,247.8,490.2,248,490.9,249.3z"/>
	<path class="st7" d="M685.2,780.6c-1-0.9-0.7-2-0.7-3.1c0-13.3,0-26.5,0-39.8c0-1.1-0.3-2.2,0.7-3.1
		C685.3,750,685.2,765.3,685.2,780.6z"/>
	<path class="st8" d="M519.8,812.6c12.1,0,24.3,0,36.4,0c-0.7,0.9-1.8,0.7-2.7,0.7c-10.3,0-20.6,0-30.9,0
		C521.5,813.3,520.5,813.5,519.8,812.6z"/>
	<path class="st9" d="M541.3,758.4c-0.9-0.7-0.7-1.8-0.7-2.7c0-9.8,0-19.6,0-29.4c0-1-0.2-2,0.7-2.7
		C541.3,735.1,541.3,746.7,541.3,758.4z"/>
	<path class="st10" d="M292,812.6c10.9,0,21.8,0,32.7,0c-0.7,0.9-1.8,0.7-2.7,0.7c-9.1,0-18.2,0-27.2,0
		C293.7,813.3,292.7,813.5,292,812.6z"/>
	<path class="st11" d="M460.4,709.5c-0.7,0.9-1.8,0.7-2.8,0.7c-8.5,0-17.1,0-25.6,0c-1,0-2,0.2-2.8-0.7
		C439.7,709.4,450,709.5,460.4,709.5z"/>
	<path class="st12" d="M587.3,812.6c10.1,0,20.3,0,30.4,0c-0.7,0.9-1.8,0.7-2.7,0.7c-8.3,0-16.7,0-25,0
		C589.1,813.3,588.1,813.5,587.3,812.6z"/>
	<path class="st5" d="M610.3,809.6c-0.9-0.7-0.7-1.7-0.7-2.7c0-8.3,0-16.7,0-25c0-1-0.2-2,0.7-2.7
		C610.3,789.3,610.3,799.4,610.3,809.6z"/>
	<path class="st13" d="M595.5,778.4c0.9,0.7,0.7,1.8,0.7,2.7c0,8.3,0,16.7,0,25c0,1,0.2,2-0.7,2.7
		C595.5,798.7,595.5,788.6,595.5,778.4z"/>
	<path class="st3" d="M671.9,598.1c0,9.9,0,19.8,0,29.7c-0.9-0.7-0.7-1.8-0.7-2.7c0-8.1,0-16.2,0-24.2
		C671.2,599.9,671,598.8,671.9,598.1z"/>
	<path class="st4" d="M467.1,274.6c0.9,0.7,0.7,1.7,0.7,2.7c0,7.8,0,15.7,0,23.5c0,1,0.2,2-0.7,2.7
		C467.1,293.8,467.1,284.2,467.1,274.6z"/>
	<path class="st14" d="M527.2,779.9c0.9,0.7,0.7,1.7,0.7,2.7c0,7.6,0,15.2,0,22.8c0,1,0.2,2-0.7,2.7
		C527.2,798.7,527.2,789.3,527.2,779.9z"/>
	<path class="st15" d="M732,808.8c1.3-1.3,3-0.5,4.5-0.8c0,2.3,0,4.5,0,7.7C734.4,813.1,733.2,811,732,808.8z"/>
	<path class="st12" d="M671.2,812.6c8.4,0,16.8,0,25.2,0c-0.6,0.8-1.5,0.7-2.3,0.7c-6.9,0-13.7,0-20.6,0
		C672.7,813.3,671.8,813.3,671.2,812.6z"/>
	<path class="st9" d="M300.9,784.4c0.8,0.6,0.7,1.5,0.7,2.3c0,6.6,0,13.2,0,19.8c0,0.9,0.1,1.7-0.8,2.3
		C300.9,800.7,300.9,792.5,300.9,784.4z"/>
	<path class="st5" d="M467.2,330.2c0.6,0.5,0.7,1.2,0.7,2c0,4.9,0,9.7,0,14.6c0,0.7-0.1,1.5-0.7,2
		C467.1,342.6,467.2,336.4,467.2,330.2z"/>
	<path class="st11" d="M605.1,709.4c-2.8,1-15.6,1-18.5,0C592.8,709.5,599,709.4,605.1,709.4z"/>
	<path class="st16" d="M480.5,285.7c0-5,0-10.1,0-15.1c0-1.2-0.4-2.5,0.7-3.5c0,5.2,0,10.3,0,15.5
		C481.2,283.7,481.5,284.9,480.5,285.7z"/>
	<path class="st9" d="M541.3,802.2c-0.2-0.3-0.6-0.6-0.6-0.9c0-4.9,0-9.7,0-14.6c0-0.3,0.4-0.6,0.6-0.9
		C541.3,791.3,541.3,796.7,541.3,802.2z"/>
	<path class="st17" d="M479.7,332.5c0-4.3,0-8.6,0-12.9c0-1.2-0.4-2.5,0.7-3.5c0,4.4,0,8.8,0,13.2
		C480.4,330.4,480.7,331.6,479.7,332.5z"/>
	<path class="st8" d="M407.7,779.1c-0.8-0.8-0.4-1.4,0.6-1.4c1.7-0.1,3.4,0,5.1-0.1c2.3,0,4.6,0,7,0c-0.8,1.1-2,0.7-3,0.7
		c-2.3,0-4.6,0-6.9,0C409.5,778.4,408.4,778.2,407.7,779.1z"/>
	<path class="st17" d="M579.2,814c0-4.5,0-8.9,0-13.4c0.2,0.3,0.6,0.6,0.6,0.9C579.7,805.7,580.7,809.9,579.2,814z"/>
	<path class="st18" d="M579.2,719.8c0-3.7,0-7.5,0-11.2C580.2,711.4,580.2,717.1,579.2,719.8z"/>
	<path class="st19" d="M736.5,798.4c0-2.6,0-5.1,0-7.7c0-1-0.2-2,0.7-2.7c0,2.6,0,5.1,0,7.7C737.2,796.7,737.4,797.7,736.5,798.4z"
		/>
	<path class="st20" d="M524.2,810.3c-1.8,1.5-3.9,0.3-5.9,0.8c-0.4,0.7,0.5,0.9,0.7,1.4c-0.8-0.1-1.9,0.2-2-1
		c-0.1-1.2,0.9-1.2,1.8-1.2C520.6,810.3,522.4,810.3,524.2,810.3z"/>
	<path class="st17" d="M334.3,721.3c0-3.2,0-6.4,0-9.7C335.3,714.3,335.3,718.6,334.3,721.3z"/>
	<path class="st16" d="M737.2,772.5c0-2.3,0-4.6,0-6.9c0-1-0.2-2,0.7-2.7c0,2.4,0,4.9,0,7.3C738,771,738,771.9,737.2,772.5z"/>
	<path class="st21" d="M737.2,692.3c3-1.1,5.9-1.1,8.9,0C743.2,692.3,740.2,692.3,737.2,692.3z"/>
	<path class="st22" d="M698.7,658.2c0.7,1.7,1.4,3.5,2.2,5.5c-2.8-0.9-1.8-3.4-2.9-4.8C698.2,658.7,698.4,658.4,698.7,658.2z"/>
	<path class="st23" d="M297.9,810.3c-1.1,1.2-2.5,0.6-3.7,0.7c-1.2,0.2-2.7-0.5-3.7,0.8c-0.8-0.8-0.4-1.4,0.5-1.4
		C293.3,810.3,295.6,810.3,297.9,810.3z"/>
	<path class="st24" d="M326.1,811.1c-2.2,0-4.4,0-6.6,0c-0.8,0-1.7,0.1-2.3-0.7c2.2,0,4.4,0,6.6,0
		C324.7,810.3,325.6,810.2,326.1,811.1z"/>
	<path class="st16" d="M682.3,751.7c-0.3,2.7,0.8,5.6-0.7,8.2C681.9,757.1,680.8,754.3,682.3,751.7z"/>
	<path class="st25" d="M361,811.1c-2.7-0.4-5.5,0.8-8.1-0.7C355.6,810.7,358.4,809.5,361,811.1z"/>
	<path class="st24" d="M401.1,810.3c-2.5,1.1-4.9,1.1-7.4,0C396.1,810.4,398.6,810.3,401.1,810.3z"/>
	<path class="st24" d="M341,810.3c-0.8,1-2,0.6-3,0.7c-1,0.1-2.2-0.3-3,0.8c-0.7-0.8-0.5-1.4,0.5-1.4
		C337.3,810.3,339.1,810.3,341,810.3z"/>
	<path class="st26" d="M634.1,796.2c1.4,2.4,0.4,5,0.7,7.4C633.3,801.3,634.4,798.7,634.1,796.2z"/>
	<path class="st27" d="M733.5,730.9c1.4,2.4,0.4,5,0.7,7.4C732.8,736,733.8,733.4,733.5,730.9z"/>
	<path class="st24" d="M617,709.4c-2.5,1.1-4.9,1.1-7.4,0C612.1,709.4,614.5,709.4,617,709.4z"/>
	<path class="st28" d="M503.5,709.4c-2.5,1.1-4.9,1.1-7.4,0C498.5,709.4,501,709.4,503.5,709.4z"/>
	<path class="st5" d="M276.4,669.3c0,2.5,0,5,0,7.4C275.3,674.3,275.2,671.8,276.4,669.3z"/>
	<path class="st17" d="M738,749.5c0.3-2.2-0.7-4.6,0.7-6.7C738.5,745,739.4,747.4,738,749.5z"/>
	<path class="st29" d="M697.9,811.1c-2.2-0.3-4.6,0.7-6.6-0.7C693.5,810.6,695.8,809.6,697.9,811.1z"/>
	<path class="st5" d="M625.2,361.4c0-2,0-4,0-6C626.3,357.4,626.3,359.4,625.2,361.4z"/>
	<path class="st24" d="M674.9,810.3c-1.8,1.4-4,0.4-6,0.7C670.8,809.6,672.9,810.6,674.9,810.3z"/>
	<path class="st24" d="M618.5,810.4c-2,1.1-3.9,1.1-5.9,0C614.6,810.4,616.5,810.4,618.5,810.4z"/>
	<path class="st29" d="M465.6,350.3c-1.5,1.1-2.9,1.1-4.4,0C462.7,350.3,464.2,350.3,465.6,350.3z"/>
	<path class="st12" d="M646.7,813.3c1.5,0,3,0,4.5,0C649.7,814.4,648.2,814.4,646.7,813.3z"/>
	<path class="st18" d="M579.2,707.9c-0.5,0-1,0-1.5,0c0.3-0.5,0.5-1.1,1.2-0.9C579,707.1,579.1,707.6,579.2,707.9z"/>
	<path class="st30" d="M591.8,548.4c0,3.8,0.1,7.7-0.1,11.5c-0.4,7.4,1.4,14.4,4.1,21.2c5.6,13.8,12.5,26.8,21,39
		c2.5,3.6,5.3,6.8,8.1,10c3.2,3.8,6.4,7.5,9.6,11.2c0.4,0.5,0.9,1.1,0.8,1.6c-0.1,2.9,1.9,4.6,3.6,6.6c2,2.3,4,4.6,6.1,6.9
		c1.9,2,1.8,2.9,0.2,5.2c-2.2,3.1-6.3,4.5-9.7,3.2c-2.8-1.1-3.3-2.8-1.2-5.1c0.5-0.5,1.2-0.9,1.3-2.1c-3,1.1-5.4,0.6-6.8-2.9
		c-0.5,3.9-3,3.8-5.8,3.6c-2.3-0.1-2.3,0-3.7,1.4c0.2,0.2,0.4,0.5,0.5,0.4c1.2-0.3,2.4-1.4,3.2,0.8c0.6,1.8,0.3,4.2-1,5.1
		c-1,0.6-1.7,0-2.2-0.7c-1.5-2.4-3.2-4.7-3.7-7.6c-0.6-3.3-0.6-3.3-3.6-1.6c-0.2,0.1-0.4,0.3-0.6,0.5c0,1.3,1.4,2,1.4,3.3
		c0,0.6,0.6,1.2,0,1.7c-0.6,0.5-1.5,0.5-2.1,0c-1.8-1.3-3.5-2.8-5.2-4.2c-0.6-0.5-1-1.1-1.6-1.5c-6.6-4-8.3-10.4-8.4-17.5
		c0-0.7,0.1-1.5,0-2.2c-0.3-3.2,0.4-6,2.3-8.7c2.4-3.6,4.3-7.5,6.5-11.2c1.3-2.2,1.3-4.5,0-6.7c-3-5-5.9-10-9-14.9
		c-1.3-2.1-1.9-2-4.2-0.8c-7.4,3.9-14.9,7.7-23.2,9.6c-5.4,1.2-6,2.7-3.9,7.8c1.9,4.7,3.9,9.3,5.8,14c1.2,3.1,2.1,6.3,2,9.7
		c-0.1,5.6,0,11.1,0,16.7c0,0.9,0,1.7-0.1,2.6c-0.1,0.6-0.4,1.2-1.1,1.3c-0.9,0.2-1.3-0.4-1.6-1.2c-0.7-1.6-0.7-3.6-2.4-4.7
		c-1.1,0.6-0.7,1.4-0.7,2c-0.1,2.7-0.1,2.7-3,2.9c-0.5,1.9,1.6,2.6,2.1,4.3c-1.7,0.6-3.2,1.6-2.9,4.4c-3.1-3-4.8-6.2-6.2-9.4
		c-1.4-3.2,0.6-6.6,0.1-10.1c-1.5,3.7-4,6.5-6.8,9.1c-0.6,0.6-1.2,1.5-2.2,1.1c-1.1-0.5-1.1-1.5-1-2.6c0.1-0.8,0.8-1.5,0.4-2.5
		c-1.5,0.1-2.5,1-3.7,1.6c-3.2,1.8-6.3,3.9-10,4.6c-0.4,0.1-0.7,0.3-1,0.4c-1,0.2-1.3,1.8-2.4,1.4c-1.2-0.4-1.3-1.7-1.9-2.7
		c-0.3-0.5-0.5-1.1-0.8-1.7c-1.2-2.1-1.2-2.1-3.3-0.2c-1-0.3-1-1.3-1.6-1.9c-0.6-0.6-1.1-1.3-1.9-1.6c-0.7,0.8-0.5,1.6-0.5,2.2
		c0.3,2-1.2,2.9-2.6,3.6c-0.9,0.5-1.7,0.2-1.9-1c-0.1-1.1-0.1-2.2-0.2-3.2c-1.5-1-1.7,2-3.1,0.9c-0.9-0.7-1.7-1.3-2.4-2.2
		c-0.9-1.1-1.8-2.3-3.6-3c0.3,3.1,2.2,4.8,3.8,6.7c1.4,1.6,1.3,2.6-0.1,3.7c-1.1,0.9-2,0.9-2.7-0.4c-0.6-1.1-1.2-2.1-1.3-3.4
		c-0.1-1.1-0.8-1.7-1.7-2.2c-1.2-0.6-1.9-0.5-2,1c0,0.5,0,1,0,1.5c0.1,1.5-0.6,2.7-1.9,3.3c-1.3,0.6-2-0.5-2.9-1.2
		c-0.2-0.2-0.4-0.2-0.6-0.4c-0.9,0-1.1,0.9-1.5,1.5c-1.1,1.7-2.5,1.7-4.5,1.4c-5.2-0.6-7.5-4.1-9.6-8.2c-1.3-2.6-1.4-2.5-3.9-4.2
		c-0.9,1.5,0.3,3.4-1,5.2c-1.6-1.2-1.9-3.1-2.7-4.6c-1.7-0.1-1.3,2-2.6,2.3c-2.5-0.5-4-3.6-7.3-3.1c0.3,1.8,1.6,2.6,2.8,3.4
		c1.4,1,3,1.7,4.2,3c2.7,3.1,1.3,8.8-2.6,10.1c-0.6,0.2-1.2,0.2-1.8-0.2c-0.6-0.4-0.6-1.1-0.2-1.7c0.8-1.5,0.9-2.5-1.1-2.7
		c-0.2,0-0.5-0.5-0.6-0.8c-0.2-0.7-0.2-1.6-1.1-1.7c-1.1-0.1-1.3,0.9-1.7,1.7c-0.2,0.4-0.2,1-0.3,1.4c-0.2,0.7-0.6,1.1-1.3,1.1
		c-0.7,0-1.2-0.2-1.5-0.8c-0.3-0.8-0.7-1.6-1-2.4c-0.5-1.1-1.1-2.3-2.8-1.6c-1.5,0.7-2.3-0.6-3-1.5c-1.4-1.7-3.1-3.1-4.7-4.7
		c-1.1-1.1-2-0.7-2.6,0.5c-0.5,1-0.8,2.1-1.3,3c-0.9,1.6-1.8,1.6-3.1,0.2c-0.2-0.3-0.4-0.6-0.6-0.9c-0.3-0.4-0.8-0.6-1.3-0.5
		c-0.7,0.2-0.8,0.8-0.7,1.5c0.3,1.4,0.5,2.7-0.6,3.8c-0.7,0.7-1.6,1.5-2.1-0.2c-0.3-1.1-1.1-1.5-2.1-1.7c-2.6-0.6-3.4-1.9-2.9-4.4
		c0.2-1.1,0.7-2.1,1-3.2c0.7-2.7,0.3-3.8-2.3-6c-1.5,2.8-1.4,6-1.7,8.9c-0.3,2.8-1.1,5.5-1,8.4c0.1,1.3-0.5,2.7-2.2,2.9
		c-2.7,0.4-4-0.8-3.2-3.6c0.6-2.1,0.2-3.6-1.3-5c-1.3-1.2-2.1-1.1-2.7,0.6c-0.8,2.4-0.9,4.8,0.1,7.6c-3.1-1-5.6-1.9-7.2-4.5
		c-2.2-3.6-2.3-3.5-6.4-2.1c-1,0.3-2.1,0.6-2.8-0.1c-2.2-2.1-5.2-2.9-7.5-4.7c-1.7-1.3-1.7-1.5-0.3-3.1c0.9-1,2-1.8,2.6-3.1
		c1-2.4,1-4.7-0.7-7.1c-1.1,1.1-0.9,2.1-0.9,3c0.3,3-1.4,4.9-3.4,6.6c-1.2,1-2.4,0.9-3.1-0.4c-3.4-6.4-7.8-12.2-10.2-19.2
		c-3.1-9-5.6-18.1-8.7-27.1c-2.1-6.2-5.2-11.6-10.6-15.6c-1.9-1.4-3.8-3.2-5-5.4c-0.3-0.5-0.7-1-1.2-1.4c-2.1-1.8-3.7-1.5-4.5,1.1
		c-2.9,9.3-6.4,18.4-7.6,28.1c-0.2,1.6-0.4,3.2-0.8,4.7c-1.2,4.1,0.4,7.4,3,10.1c4.2,4.4,7.8,9.2,11.5,14c2.3,2.9,3.7,6.4,5.4,9.7
		c2.3,4.7,0.9,7-4.5,7.5c-0.8-1.8,0.4-3.9-0.8-5.7c-1.3,0.4-1.5,1.4-1.6,2.3c-0.1,0.9-0.4,1.7-0.8,2.5c-0.4,0.7-0.7,1.4-1.6,1.3
		c-1.1-0.1-1.3-1-1.3-1.9c0-0.9-0.2-1.8,0-2.6c1.2-3.6,0.2-7.3,1.3-11.4c-2.3,1-2.1,3-2.7,4.3c-0.7,1.4-1,3-1.6,4.5
		c-0.6,1.6-1.3,3.2-1.9,4.8c-3.7-0.8-3.7-0.8-2.8-3.9c0.3-1.2,1.1-2.4-0.2-3.7c-0.9-0.8,0.2-1.8,0.8-2.5c1.3-1.6,1.3-1.6,1.9-3.4
		c-1.5-0.6-3.4,0.5-4.6-0.7c-1.3-1.2-0.3-3.1-0.7-4.6c-0.4-1.3-0.7-2.7-1.4-3.8c-2-3.5-2.6-7.2-2.2-11.1c0.8-6.8,1.4-13.7,2.9-20.4
		c1.9-7.9,4.2-15.7,8.2-22.9c3.6-6.4,8.1-12,13.8-16.6c6.4-5.2,12.9-10.3,18.7-16.2c3.5-3.5,6.3-7.6,9.5-11.3
		c0.2-0.3,0.4-0.6,0.6-0.9c0.2-0.3,0.6-0.5,1-0.3c0.5,0.3,0.5,0.8,0.1,1.2c-2,2.6-3.9,5.4-6.1,7.9c-2.9,3.3-6,6.5-9,9.7
		c-6.6,7-13.4,13.8-20.1,20.7c-1.9,1.9-1.8,4.2,0.6,6.5c3.3,3.1,5.9,6.8,9.5,9.8c4.1,3.4,8,6.9,12.5,9.7c6.5,4.1,13,8,20.1,10.9
		c5,2,9.7,4.9,14.8,6.7c5.6,2,11.4,3,17.2,3.9c6.2,0.9,12.4,1.5,18.6,2.2c0.9,0.1,1.7,0.1,2.6,0.1c5.1,0,10.1,0,15.2,0
		c6.8,0,13.4-0.9,20.2-1.3c4.8-0.3,9.5-0.8,14.3-1.1c8.2-0.5,16.4-1.2,24.4-2.8c5.8-1.2,11.6-1.9,17.4-2.9c3.1-0.6,6.3-1.3,9.3-2.4
		c1.6-0.6,3.3-0.8,5-1.3c9.5-2.7,19-5.2,28.1-9.1c2.6-1.1,5-2.7,7.5-4.1c2.3-1.3,2.7-2.4,1.9-4.8c-2.8-8.6-4.1-17.5-3.7-26.5
		c0.3-7,1-14,2.9-20.7c1.1-0.1,1.1,0.7,1.1,1.4C592,542.9,592.5,545.6,591.8,548.4z"/>
	<path class="st30" d="M247.5,483.8c-0.1,0.7-0.3,1.7-1.3,1c-0.7-0.4-1.1-1.3-1.5-2c-2.5-4.8-4.3-9.9-4.5-15.4
		c-0.3-6.8,4.9-14.1,11.7-16.6c-2.1,6.6-4.5,12.9-4.3,19.7c-1,1.9,0.2,4-0.7,5.9c0,0.5,0,1,0,1.5
		C247.7,479.8,246.5,481.9,247.5,483.8z"/>
	<path class="st31" d="M609.5,666.1c-2.1-0.7-3.1-2.1-4.4-3.2c-0.6-0.5-0.7-1.2-0.1-1.9c0.7-0.7,1.4-0.5,1.8,0.2
		C607.8,662.7,609,663.9,609.5,666.1z"/>
	<path class="st31" d="M722.4,662.7c0-1.1,0-1.9,0.8-2.5c0.5-0.4,1.1-0.6,1.7-0.2c0.5,0.3,0.5,0.8,0.4,1.3c-0.1,0.6-0.4,1.1-0.6,1.7
		c-0.3,0.8-0.5,1.8-1.6,1.5C722.1,664.2,722.5,663.2,722.4,662.7z"/>
	<path class="st32" d="M536.9,659.7c-0.2,0.8,0.3,2-1.1,1.8c-0.7-0.1-1.4-0.8-1.4-1.5c0-1,0.4-2.1,1.6-2.2
		C537.3,657.7,536.7,659,536.9,659.7z"/>
	<path class="st33" d="M591.8,548.4c0-2.3,0-4.6,0-6.9c0-1,0.2-2-0.7-2.7c0.4-0.4,1.3-1.6,1.3-0.4
		C592.4,541.7,593.3,545.1,591.8,548.4z"/>
	<path class="st34" d="M602.7,659.4c-1-0.4-1.8-1.1-1.8-2.3c0-0.6,0.5-1,0.9-0.8c1,0.5,1.9,1.2,1.8,2.5
		C603.5,659.2,603.2,659.5,602.7,659.4z"/>
	<path class="st35" d="M448.4,654.7c-1.2,0.1-1.9-0.4-2.4-1.1c-0.4-0.5-0.5-1.2,0.1-1.6c0.4-0.3,0.9-0.1,1.3,0.3
		C448,652.8,448.6,653.4,448.4,654.7z"/>
	<path class="st36" d="M540.8,659.7c0.2-0.9,0.8-1.5,1.8-1.4c0.4,0,0.7,0.2,0.7,0.7c-0.1,1-0.7,1.6-1.6,1.7
		C541.2,660.8,540.9,660.3,540.8,659.7z"/>
	<path class="st37" d="M448.3,661.7c0,0.8-0.3,1.2-0.8,1.3c-1,0.4-1.2-0.4-1.5-1.1c-0.2-0.6,0.1-1,0.6-1
		C447.4,660.8,448,661.3,448.3,661.7z"/>
	<path class="st34" d="M520.3,658.5c-0.8-0.1-1.3-0.6-1.5-1.4c-0.1-0.4,0.2-0.7,0.6-0.8c0.8,0,1.5,0.2,1.7,1
		C521.2,658,520.8,658.3,520.3,658.5z"/>
	<path class="st38" d="M246.8,476.4c0.3-2-0.8-4.1,0.7-5.9C247.2,472.4,248.2,474.5,246.8,476.4z"/>
	<path class="st39" d="M247.5,483.8c-1.5-1.8-0.4-4-0.7-5.9C248.2,479.7,247.2,481.9,247.5,483.8z"/>
	<path class="st30" d="M610.3,713.1c0.7-1.6,2.2-1.8,3.4-1.4c4.1,1.2,8.3,0.5,12.4,1.3c7.1,1.5,11.5,5.1,13.4,12.3
		c2.4,8.7,3.1,17.4,2.6,26.3c-0.2,4.4-1.2,8.7-2.4,13c-1.7,6.6-5.1,9.6-12,10.1c-3.9,0.3-7.8,0.8-11.7,0.8c-2,0-3.9-0.1-5.8-0.7
		c-0.5-0.8-0.4-1.7-0.4-2.5c0-18.8,0-37.7,0-56.5C610,714.8,609.8,713.9,610.3,713.1z"/>
	<path class="st40" d="M610.3,713.1c0,20.5,0,41.1,0,61.6c-1-0.8-0.7-2-0.7-3.1c0-18.5,0-36.9,0-55.4
		C609.6,715.2,609.3,714,610.3,713.1z"/>
	<path class="st30" d="M644.5,294.4c-0.4,4.2-1.3,8.4-2.4,12.5c-2.5,9.6-6.5,18.6-12.2,26.8c-2.3,3.3-5.1,6.5-9.7,6.7
		c-2.5,0.1-4.9-0.4-7.2-1.1c-3-0.8-5.9-1.9-8.8-2.9c-3.1-1.1-3.3-1.4-2.2-4.5c3.6-11.1,7.2-22.3,10.8-33.4c2-6.3,4.4-12.5,6.1-19
		c0.2-0.7,0.4-1.4,0.7-2.1c1.3-2.9,2.3-3.4,5.1-2c4.1,2,8.6,3.1,12.3,5.8C641.6,284.5,644.4,288.6,644.5,294.4z"/>
	<path class="st30" d="M376,733.2c0.4,0.7,0.8,1,0.9,1.5c2.6,7.8,5.2,15.6,7.9,23.4c1.6,4.8,3.4,9.5,5,14.3c0.8,2.3,0.3,3.1-2.1,3.6
		c-0.7,0.2-1.5,0.1-2.2,0.1c-6.9,0-13.8,0-20.7,0c-0.7,0-1.5,0-2.2-0.1c-2.1-0.4-2.7-1.4-2-3.5c1.1-3.4,2.3-6.7,3.6-10.1
		c3.2-8.5,6.3-17.1,9.5-25.6C374.2,735.7,374.6,734.4,376,733.2z"/>
	<path class="st30" d="M536.6,277.2c1.6,4.4,1.8,8.7,2.5,12.9c1.5,9.1,2.8,18.1,4.3,27.2c0.4,2.8,0.1,3.1-2.8,3.3
		c-2.8,0.2-5.4-0.6-8-0.9c-5.1-0.5-10.1-1.5-15.2-2.3C517.8,314.2,533.7,280.9,536.6,277.2z"/>
	<path class="st41" d="M529.8,651.2c-1.4-2.2-1.5-4.3-2.6-6.5c1.5-0.1,2.3,0.4,2.8,1.4C530.8,647.6,530.8,648.9,529.8,651.2z"/>
	<path class="st42" d="M504.1,642.1c-2-1.5-2.9-3-3.4-4.7c-0.2-0.5,0-1,0.6-1.1c0.3,0,0.8,0.1,0.9,0.4
		C503.1,638.1,504.2,639.6,504.1,642.1z"/>
</g>
</svg>
