<?xml version="1.0" encoding="utf-8"?>
<!-- Generator: Adobe Illustrator 21.0.0, SVG Export Plug-In . SVG Version: 6.00 Build 0)  -->
<svg version="1.1" id="Calque_1" xmlns="http://www.w3.org/2000/svg" xmlns:xlink="http://www.w3.org/1999/xlink" x="0px" y="0px"
	 viewBox="0 0 213.7 91.2" style="enable-background:new 0 0 213.7 91.2;" xml:space="preserve">
<style type="text/css">
	.st0{fill:#263E7D;}
</style>
<g>
	<g>
		<path class="st0" d="M64.3,38.1c-18.9,0-37.7,0-56.6,0c-1.9,0-1.9,3,0,3c1.7,0,3.5,0,5.2,0c1.9,0,1.9-3,0-3c-1.7,0-3.5,0-5.2,0
			c-1.9,0-1.9,3,0,3c18.9,0,37.7,0,56.6,0C66.3,41.1,66.3,38.1,64.3,38.1L64.3,38.1z"/>
	</g>
</g>
<g>
	<g>
		<path class="st0" d="M203.3,38.1c-18.9,0-37.7,0-56.6,0c-1.9,0-1.9,3,0,3c1.7,0,3.5,0,5.2,0c1.9,0,1.9-3,0-3c-1.7,0-3.5,0-5.2,0
			c-1.9,0-1.9,3,0,3c18.9,0,37.7,0,56.6,0C205.3,41.1,205.3,38.1,203.3,38.1L203.3,38.1z"/>
	</g>
</g>
<g>
	<g>
		<path class="st0" d="M115.4,32.7l2.2-2.2c0.5-0.5,0.5-1.4,0-2c-0.5-0.5-1.4-0.5-2,0l-2.2,2.2l-1.9-1.9c-0.5-0.5-1.4-0.5-2,0
			c-0.5,0.5-0.5,1.4,0,2l1.9,1.9l-2.6,2.6l-1.9-1.9c-0.5-0.5-1.4-0.5-2,0c-0.5,0.5-0.5,1.4,0,2l1.9,1.9l-2.6,2.6l-1.9-1.9
			c-0.5-0.5-1.4-0.5-2,0c-0.5,0.5-0.5,1.4,0,2l1.9,1.9l-2.6,2.6l-1.9-1.9c-0.5-0.5-1.4-0.5-2,0c-0.5,0.5-0.5,1.4,0,2l1.9,1.9
			l-2.2,2.2c-0.5,0.5-0.5,1.4,0,2c0.3,0.3,0.6,0.4,1,0.4c0.4,0,0.7-0.1,1-0.4l2.2-2.2l1.9,1.9c0.3,0.3,0.6,0.4,1,0.4
			c0.4,0,0.7-0.1,1-0.4c0.5-0.5,0.5-1.4,0-2l-1.9-1.9l2.6-2.6l1.9,1.9c0.3,0.3,0.6,0.4,1,0.4s0.7-0.1,1-0.4c0.5-0.5,0.5-1.4,0-2
			l-1.9-1.9l2.6-2.6l1.9,1.9c0.3,0.3,0.6,0.4,1,0.4c0.4,0,0.7-0.1,1-0.4c0.5-0.5,0.5-1.4,0-2l-1.9-1.9l2.6-2.6l1.9,1.9
			c0.3,0.3,0.6,0.4,1,0.4c0.4,0,0.7-0.1,1-0.4c0.5-0.5,0.5-1.4,0-2L115.4,32.7z"/>
	</g>
</g>
<g>
	<g>
		<path class="st0" d="M137.8,15c-0.6-3.4-3.2-6.1-6.6-6.6c-6.1-1-12.5-0.8-18.5,0.5c0,0-0.1,0-0.1,0c-1.3,0.3-2.5,0.6-3.8,1
			c-7.4,2.3-14.3,6.5-19.9,12c-5.5,5.5-9.7,12.4-12,19.9c-0.4,1.2-0.7,2.5-1,3.7c0,0.1,0,0.1,0,0.2c-1.3,6-1.5,12.4-0.5,18.5
			c0.6,3.4,3.2,6.1,6.6,6.6c2.6,0.4,5.2,0.6,7.9,0.6c3.6,0,7.1-0.4,10.6-1.2c0.1,0,0.1,0,0.2,0c1.3-0.3,2.5-0.6,3.7-1
			c7.4-2.3,14.3-6.5,19.9-12c5.5-5.5,9.7-12.4,12-19.9c0.4-1.2,0.7-2.5,1-3.8c0,0,0-0.1,0-0.1C138.6,27.5,138.8,21.1,137.8,15z
			 M82.4,68.1c-2.2-0.4-4-2.1-4.4-4.4c-0.8-5-0.8-10.1,0-15l19.3,19.3C92.4,68.9,87.3,68.9,82.4,68.1z M133.6,36.6
			c-2.2,7-6.1,13.5-11.3,18.7c-5.2,5.2-11.7,9.2-18.7,11.3c-1,0.3-1.9,0.6-2.9,0.8L78.7,45.5c0.2-1,0.5-1.9,0.8-2.9
			c2.2-7,6.1-13.5,11.3-18.7c5.2-5.2,11.7-9.2,18.7-11.3c1-0.3,1.9-0.6,2.9-0.8l21.9,21.9C134.1,34.7,133.9,35.7,133.6,36.6z
			 M135,30.5l-19.4-19.4c2.5-0.4,5-0.6,7.6-0.6c2.5,0,5,0.2,7.5,0.6c2.2,0.4,4,2.1,4.4,4.4C135.9,20.4,135.9,25.5,135,30.5z"/>
	</g>
</g>
<g>
	<g>
		<path class="st0" d="M110.7,15.8c-0.2-0.7-1-1.1-1.8-0.9c-6.3,2.2-11.9,5.7-16.6,10.4c-0.5,0.5-0.5,1.4,0,2c0.3,0.3,0.6,0.4,1,0.4
			s0.7-0.1,1-0.4c4.5-4.5,9.7-7.7,15.6-9.8C110.5,17.3,110.9,16.5,110.7,15.8z"/>
	</g>
</g>
</svg>
