<?xml version="1.0" encoding="utf-8"?>
<!-- Generator: Adobe Illustrator 21.0.0, SVG Export Plug-In . SVG Version: 6.00 Build 0)  -->
<svg version="1.1" id="Capa_1" xmlns="http://www.w3.org/2000/svg" xmlns:xlink="http://www.w3.org/1999/xlink" x="0px" y="0px"
	 viewBox="0 0 512 512" style="enable-background:new 0 0 512 512;" xml:space="preserve">
<style type="text/css">
	.st0{fill:#FBEBD5;}
</style>
<g>
	<g>
		<path class="st0" d="M306.3,222.4c-4.4,0-8,3.6-8,8v89.7c0,4.4,3.6,8,8,8c4.4,0,8-3.6,8-8v-89.7
			C314.3,226,310.7,222.4,306.3,222.4z"/>
	</g>
</g>
<g>
	<g>
		<path class="st0" d="M253,222.4c-4.4,0-8,3.6-8,8V344c0,4.4,3.6,8,8,8c4.4,0,8-3.6,8-8V230.4C261,226,257.4,222.4,253,222.4z"/>
	</g>
</g>
<g>
	<g>
		<path class="st0" d="M199.7,222.4c-4.4,0-8,3.6-8,8V344c0,4.4,3.6,8,8,8c4.4,0,8-3.6,8-8V230.4C207.7,226,204.1,222.4,199.7,222.4
			z"/>
	</g>
</g>
<g>
	<g>
		<path class="st0" d="M413.8,174h-57.6v-27c12-3.5,20.9-14.6,20.9-27.7c0-13.1-8.8-24.2-20.9-27.7v-7.9c0-17.6-14.4-32-32-32
			c-8.5,0-16.6,3.3-22.6,9.4c-4.4,4.4-7.4,9.9-8.7,15.8h-14.7c-3.1-14.4-16-25.2-31.3-25.2c-7.1,0-13.9,2.3-19.4,6.6
			C221.3,44,207,34,190.5,34c-10.8,0-21,4.2-28.6,11.9c-7.6,7.6-11.8,17.8-11.8,28.6v2.3c-16.1,3.6-28.2,18.1-28.2,35.3
			c0,17.2,12.1,31.6,28.2,35.3v245.1c-12.8,6.7-21.5,20.1-21.5,35.5v4.1c0,4.4,3.6,8,8,8h233.4c4.4,0,8-3.6,8-8v-4.1
			c0-15.4-8.8-28.8-21.5-35.5v-24.5h57.6c13.2,0,23.9-10.7,23.9-23.9V198C437.7,184.8,427,174,413.8,174z M361.5,424.1H144.7
			c1.9-11.5,11.8-20.3,23.8-20.3h169.1C349.7,403.8,359.6,412.6,361.5,424.1z M257.5,177.3c0.9,6,3.7,11.4,8,15.8
			c5.4,5.4,12.6,8.4,20.2,8.4c14.2,0,26.1-10.5,28.2-24.1h26.3v4.7V214V328v32v27.9h-2.6H168.5l0,0h-2.6V177.3H257.5z M165.9,161.4
			v-13.2h91.3v13.2H165.9z M314.3,161.4v-13.2h26v13.2H314.3z M348.2,132.3h-40.5c-0.2,0-0.5,0-0.7,0c-0.2,0-0.5,0-0.7,0
			c-4.4,0-8,3.6-8,8v32.7c0,7-5.7,12.6-12.6,12.6c-3.4,0-6.5-1.3-8.9-3.7c-2.4-2.4-3.7-5.6-3.7-8.9v-32.7c0-4.4-3.6-8-8-8H158
			c-11.2,0-20.2-9.1-20.2-20.2c0-11.2,9.1-20.2,20.2-20.2c4.4,0,8-3.6,8-8v-9.4c0-6.6,2.6-12.7,7.2-17.3c4.6-4.6,10.8-7.2,17.4-7.2
			c13.5,0,24.5,11,24.5,24.5v9.3c0,4.4,3.6,8,8,8c4.4,0,8-3.6,8-8c0-4.3,1.7-8.3,4.7-11.4c3-3,7.1-4.7,11.4-4.7
			c8.9,0,16.1,7.2,16.1,16.1v1.2c0,4.4,3.6,8,8,8h29.1c4.4,0,8-3.6,8-8v-1.2c0-4.3,1.7-8.3,4.7-11.4c3-3,7.1-4.7,11.4-4.7
			c8.9,0,16.1,7.2,16.1,16.1v14.8c0,4.4,3.6,8,8,8c7.1,0,12.9,5.8,12.9,12.9C361.1,126.5,355.3,132.3,348.2,132.3z M356.2,221.9
			h33.7v98.1h-33.7V221.9L356.2,221.9z M421.8,344c0,4.4-3.6,8-8,8h-57.6v-16h41.6c4.4,0,8-3.6,8-8V214c0-4.4-3.6-8-8-8h-41.6v-16
			h57.6c4.4,0,8,3.6,8,8L421.8,344L421.8,344z"/>
	</g>
</g>
<g>
	<g>
		<path class="st0" d="M306.8,336.5c-10.2,0-10.3,15.9,0,15.9C317.1,352.4,317.1,336.5,306.8,336.5z"/>
	</g>
</g>
</svg>
