<?xml version="1.0" encoding="utf-8"?>
<!-- Generator: Adobe Illustrator 21.0.0, SVG Export Plug-In . SVG Version: 6.00 Build 0)  -->
<svg version="1.1" id="Calque_1" xmlns="http://www.w3.org/2000/svg" xmlns:xlink="http://www.w3.org/1999/xlink" x="0px" y="0px"
	 viewBox="0 0 209.7 62.3" style="enable-background:new 0 0 209.7 62.3;" xml:space="preserve">
<style type="text/css">
	.st0{fill:#FBEBD5;}
</style>
<g>
	<g>
		<path class="st0" d="M63.3,30.8c-18.9,0-37.7,0-56.6,0c-1.9,0-1.9,3,0,3c1.7,0,3.5,0,5.2,0c1.9,0,1.9-3,0-3c-1.7,0-3.5,0-5.2,0
			c-1.9,0-1.9,3,0,3c18.9,0,37.7,0,56.6,0C65.3,33.8,65.3,30.8,63.3,30.8L63.3,30.8z"/>
	</g>
</g>
<g>
	<g>
		<path class="st0" d="M202.3,30.8c-18.9,0-37.7,0-56.6,0c-1.9,0-1.9,3,0,3c1.7,0,3.5,0,5.2,0c1.9,0,1.9-3,0-3c-1.7,0-3.5,0-5.2,0
			c-1.9,0-1.9,3,0,3c18.9,0,37.7,0,56.6,0C204.3,33.8,204.3,30.8,202.3,30.8L202.3,30.8z"/>
	</g>
</g>
<g>
	<g>
		<path class="st0" d="M141,36.9c-0.1-0.5-0.5-0.8-0.9-0.9c0,0-4.1-0.9-7-3.5c0.2-0.5,0.4-1.1,0.4-1.7c0-0.5-0.1-0.9-0.3-1.3h0.4
			c2,0,3.6-1.7,3.6-3.7v-2.5c0-5.1-3.5-9.7-9.9-12.9c-2.9-1.5-6.3-2.6-10-3.4h-0.1c-4-0.8-8.3-1.3-12.8-1.3
			c-8.8,0-16.9,1.7-22.9,4.7c-6.4,3.2-9.9,7.8-9.9,12.9v2.5c0,1.8,1.2,3.2,2.8,3.6c-0.2,0.4-0.3,0.9-0.3,1.4c0,0.9,0.3,1.7,0.8,2.3
			c-2.1,0.7-4.7,1.5-6,1.5c-0.5,0-1,0.4-1.1,0.9s0.1,1.1,0.5,1.3l3.4,2.1c-1.6,0.8-2.7,2.5-2.7,4.4c0,2.4,1.8,4.5,4.1,4.9
			c-0.2,0.4-0.3,0.9-0.3,1.4c0,3.4,2.8,6.2,6.2,6.2h50.6c3.4,0,6.2-2.8,6.2-6.2c0-0.5-0.1-1-0.3-1.4c2.3-0.4,4.1-2.5,4.1-4.9
			c0-1.5-0.6-2.8-1.7-3.7l2.4-1.6C140.9,37.8,141.1,37.3,141,36.9z M137.1,37.5l-1.8,1.2c-0.1,0-0.1,0.1-0.2,0.1l-2.6,1.7
			c-0.2,0.2-0.5,0.2-0.8,0.1l-7.8-3.4c-0.5-0.2-1.1,0-1.5,0.4l-1.2,1.9c-0.7-0.7-2.3-2.4-3.6-5.1h2c1,0,1.9-0.4,2.5-1
			c0.7,0.6,1.6,1,2.5,1h1.6c0.3,0.8,0.7,1.5,1.4,2.3s1.3,1.2,1.4,1.3c0.2,0.1,0.4,0.2,0.7,0.2c0.4,0,0.7-0.2,1-0.5
			c0.4-0.5,0.3-1.3-0.3-1.7c-0.4-0.3-1.1-0.9-1.6-1.6h0.9c0.6,0,1.2-0.1,1.7-0.4l0.1,0.1C133.3,35.8,135.4,36.9,137.1,37.5z
			 M83.4,34.5h3.3c0.3,0,0.5,0,0.8-0.1c-0.1,0.2-0.3,0.5-0.4,0.7c-0.4,0.5-0.3,1.3,0.2,1.7c0.2,0.2,0.5,0.3,0.8,0.3s0.7-0.1,0.9-0.4
			c0.6-0.8,1-1.7,1.2-2.5c0.5,0.3,1.1,0.4,1.7,0.4h9.4c0.6,1,1.8,2.9,3.7,4.7c0.2,0.2,0.5,0.3,0.8,0.3s0.6-0.1,0.9-0.4
			c0.4-0.5,0.4-1.2-0.1-1.7c-1.1-1-2-2.1-2.5-3h1.7c1,0,1.9-0.4,2.5-1c0.7,0.6,1.6,1,2.5,1h4.3c1,2.4,2.2,4.2,3.2,5.4l-5.3-2
			c-1.5-0.6-3.3-0.2-4.4,1l-2.1,2.1c-0.5,0.5-1.2,0.5-1.8,0.1l-7.1-5c-0.3-0.2-0.7-0.3-1.1-0.1L87,39.5l-2-2
			c-0.4-0.4-1.1-0.5-1.5-0.1L80,40c-0.6,0.4-1.3,0.4-1.9,0.1l-0.7-0.4C78.8,38.6,81.2,36.8,83.4,34.5z M77.9,32.1
			c-0.7,0-1.3-0.6-1.3-1.3s0.6-1.3,1.3-1.3h8.9c0.7,0,1.3,0.6,1.3,1.3s-0.6,1.3-1.3,1.3H77.9z M90.4,30.8c0-0.7,0.6-1.3,1.3-1.3
			h13.9c0.7,0,1.3,0.6,1.3,1.3s-0.6,1.3-1.3,1.3h-3.8l0,0H91.7C91,32.1,90.4,31.5,90.4,30.8z M109.4,30.8c0-0.7,0.6-1.3,1.3-1.3h8.9
			c0.7,0,1.3,0.6,1.3,1.3s-0.6,1.3-1.3,1.3h-8.9C110,32.1,109.4,31.5,109.4,30.8z M123.3,30.8c0-0.7,0.6-1.3,1.3-1.3h5.1
			c0.7,0,1.3,0.6,1.3,1.3s-0.6,1.3-1.3,1.3h-5.1C123.9,32.1,123.3,31.5,123.3,30.8z M74,25.7v-2.5c0-2.7,1.3-5.3,3.6-7.4l5.7,5.7
			c0.2,0.2,0.5,0.3,0.8,0.3s0.6-0.1,0.8-0.3c0.5-0.5,0.5-1.2,0-1.7l-5.6-5.6c0.8-0.6,1.7-1.1,2.6-1.6l8.9,8.9
			c0.2,0.2,0.5,0.3,0.8,0.3s0.6-0.1,0.8-0.3c0.5-0.5,0.5-1.2,0-1.7l-8.3-8.3c1-0.4,2-0.8,3.1-1.2l11.1,11.1c0.2,0.2,0.5,0.3,0.8,0.3
			s0.6-0.1,0.8-0.3c0.5-0.5,0.5-1.2,0-1.7L90,9.6c1.1-0.3,2.3-0.5,3.5-0.8l12.6,12.6c0.2,0.2,0.5,0.3,0.8,0.3s0.6-0.1,0.8-0.3
			c0.5-0.5,0.5-1.2,0-1.7L96.3,8.3c1.3-0.2,2.5-0.3,3.9-0.4l13.4,13.4c0.2,0.2,0.5,0.3,0.8,0.3s0.6-0.1,0.8-0.3
			c0.5-0.5,0.5-1.2,0-1.7L103.3,7.7c0.3,0,0.6,0,0.9,0c1.1,0,2.3,0,3.4,0.1l13.5,13.5c0.2,0.2,0.5,0.3,0.8,0.3s0.6-0.1,0.8-0.3
			c0.5-0.5,0.5-1.2,0-1.7L111.2,8.1c1.7,0.2,3.4,0.5,5,0.8l12.4,12.4c0.2,0.2,0.5,0.3,0.8,0.3s0.6-0.1,0.8-0.3
			c0.5-0.5,0.5-1.2,0-1.7l-9.6-9.6c8.5,2.6,13.9,7.4,13.9,12.9v2.5c0,0.7-0.6,1.3-1.2,1.3H75.2C74.5,27.1,74,26.5,74,25.7z
			 M78.1,34.5h2c-2,1.9-4,3.2-4.9,3.8l-3-1.9C74.6,35.8,77.2,34.8,78.1,34.5z M129.7,53.6H79.1c-2.1,0-3.9-1.7-3.9-3.9
			c0-0.7,0.6-1.3,1.3-1.3h55.6c0.7,0,1.3,0.6,1.3,1.3C133.6,51.9,131.8,53.6,129.7,53.6z M134.8,46H74.1c-1.4,0-2.6-1.2-2.6-2.6
			s1.2-2.6,2.6-2.6h0.7l2.1,1.3c1.4,0.9,3.3,0.8,4.6-0.2l1.5-1.1h2.1l0.9,0.9c0.3,0.3,0.8,0.4,1.3,0.3l3.2-1.2h9.7l3.2,2.3
			c0.7,0.5,1.4,0.7,2.2,0.7c1,0,1.9-0.4,2.7-1.1l1.9-1.9h3.9l0,0l4.7,1.8c1.6,0.6,3.4,0,4.3-1.4l0.3-0.4h2.9l4.7,2
			c1,0.4,2.1,0.3,3-0.3l2.1-1.4c0.9,0.4,1.4,1.3,1.4,2.3C137.4,44.9,136.2,46,134.8,46z"/>
	</g>
</g>
</svg>
