<?xml version="1.0" encoding="utf-8"?>
<!-- Generator: Adobe Illustrator 21.0.0, SVG Export Plug-In . SVG Version: 6.00 Build 0)  -->
<svg version="1.1" id="Calque_1" xmlns="http://www.w3.org/2000/svg" xmlns:xlink="http://www.w3.org/1999/xlink" x="0px" y="0px"
	 viewBox="0 0 213.7 87" style="enable-background:new 0 0 213.7 87;" xml:space="preserve">
<style type="text/css">
	.st0{fill:#263E7D;}
</style>
<g>
	<g>
		<path class="st0" d="M64.3,43.1c-18.9,0-37.7,0-56.6,0c-1.9,0-1.9,3,0,3c1.7,0,3.5,0,5.2,0c1.9,0,1.9-3,0-3c-1.7,0-3.5,0-5.2,0
			c-1.9,0-1.9,3,0,3c18.9,0,37.7,0,56.6,0C66.3,46.1,66.3,43.1,64.3,43.1L64.3,43.1z"/>
	</g>
</g>
<g>
	<g>
		<path class="st0" d="M203.3,43.1c-18.9,0-37.7,0-56.6,0c-1.9,0-1.9,3,0,3c1.7,0,3.5,0,5.2,0c1.9,0,1.9-3,0-3c-1.7,0-3.5,0-5.2,0
			c-1.9,0-1.9,3,0,3c18.9,0,37.7,0,56.6,0C205.3,46.1,205.3,43.1,203.3,43.1L203.3,43.1z"/>
	</g>
</g>
<g>
	<g>
		<path class="st0" d="M110.2,38.4c-0.8,0-1.5,0.7-1.5,1.5V57c0,0.8,0.7,1.5,1.5,1.5s1.5-0.7,1.5-1.5V40
			C111.7,39.1,111,38.4,110.2,38.4z"/>
	</g>
</g>
<g>
	<g>
		<path class="st0" d="M100,38.4c-0.8,0-1.5,0.7-1.5,1.5v21.6c0,0.8,0.7,1.5,1.5,1.5s1.5-0.7,1.5-1.5V40
			C101.5,39.1,100.9,38.4,100,38.4z"/>
	</g>
</g>
<g>
	<g>
		<path class="st0" d="M89.9,38.4c-0.8,0-1.5,0.7-1.5,1.5v21.6c0,0.8,0.7,1.5,1.5,1.5s1.5-0.7,1.5-1.5V40
			C91.4,39.1,90.7,38.4,89.9,38.4z"/>
	</g>
</g>
<g>
	<g>
		<path class="st0" d="M128.7,30.8h-10.6v-5c2.2-0.6,3.9-2.7,3.9-5.1s-1.6-4.5-3.9-5.1v-1.5c0-3.3-2.7-5.9-5.9-5.9
			c-1.6,0-3.1,0.6-4.2,1.7c-0.8,0.8-1.4,1.8-1.6,2.9h-2.7c-0.6-2.7-2.9-4.7-5.8-4.7c-1.3,0-2.6,0.4-3.6,1.2
			c-1.2-2.6-3.8-4.5-6.9-4.5c-2,0-3.9,0.8-5.3,2.2s-2.2,3.3-2.2,5.3v0.4c-3,0.7-5.2,3.3-5.2,6.5s2.2,5.8,5.2,6.5V71
			c-2.4,1.2-4,3.7-4,6.6v0.8c0,0.8,0.7,1.5,1.5,1.5h43.1c0.8,0,1.5-0.7,1.5-1.5v-0.8c0-2.8-1.6-5.3-4-6.6v-4.5h10.6
			c2.4,0,4.4-2,4.4-4.4v-27C133.1,32.8,131.1,30.8,128.7,30.8z M119,77H79c0.3-2.1,2.2-3.7,4.4-3.7h31.2
			C116.8,73.2,118.7,74.8,119,77z M99.8,31.4c0.2,1.1,0.7,2.1,1.5,2.9c1,1,2.3,1.5,3.7,1.5c2.6,0,4.8-1.9,5.2-4.5h4.9v0.9v5.9v21.1
			v5.9v5.2h-0.5H83.4l0,0h-0.5V31.4H99.8z M82.9,28.4V26h16.9v2.4H82.9z M110.3,28.4V26h4.8v2.4H110.3z M116.6,23.1h-7.5H109h-0.1
			c-0.8,0-1.5,0.7-1.5,1.5v6c0,1.3-1,2.3-2.3,2.3c-0.6,0-1.2-0.2-1.6-0.7c-0.4-0.4-0.7-1-0.7-1.6v-6c0-0.8-0.7-1.5-1.5-1.5H81.4
			c-2.1,0-3.7-1.7-3.7-3.7c0-2.1,1.7-3.7,3.7-3.7c0.8,0,1.5-0.7,1.5-1.5v-1.7c0-1.2,0.5-2.3,1.3-3.2c0.9-0.9,2-1.3,3.2-1.3
			c2.5,0,4.5,2,4.5,4.5v1.7c0,0.8,0.7,1.5,1.5,1.5s1.5-0.7,1.5-1.5s0.3-1.5,0.9-2.1s1.3-0.9,2.1-0.9c1.6,0,3,1.3,3,3v0.2
			c0,0.8,0.7,1.5,1.5,1.5h5.4c0.8,0,1.5-0.7,1.5-1.5v-0.2c0-0.8,0.3-1.5,0.9-2.1s1.3-0.9,2.1-0.9c1.6,0,3,1.3,3,3v2.7
			c0,0.8,0.7,1.5,1.5,1.5c1.3,0,2.4,1.1,2.4,2.4C119,22,117.9,23.1,116.6,23.1z M118.1,39.6h6.2v18.1h-6.2V39.6L118.1,39.6z
			 M130.2,62.2c0,0.8-0.7,1.5-1.5,1.5h-10.6v-3h7.7c0.8,0,1.5-0.7,1.5-1.5V38.1c0-0.8-0.7-1.5-1.5-1.5h-7.7v-3h10.6
			c0.8,0,1.5,0.7,1.5,1.5V62.2L130.2,62.2z"/>
	</g>
</g>
<g>
	<g>
		<path class="st0" d="M110.3,60.2c-2,0-2,3,0,3C112.2,63.2,112.2,60.2,110.3,60.2z"/>
	</g>
</g>
</svg>
