<?xml version="1.0" encoding="utf-8"?>
<!-- Generator: Adobe Illustrator 21.0.0, SVG Export Plug-In . SVG Version: 6.00 Build 0)  -->
<svg version="1.1" id="Calque_1" xmlns="http://www.w3.org/2000/svg" xmlns:xlink="http://www.w3.org/1999/xlink" x="0px" y="0px"
	 viewBox="0 0 214.3 89.7" style="enable-background:new 0 0 214.3 89.7;" xml:space="preserve">
<style type="text/css">
	.st0{fill:#263E7D;}
</style>
<g>
	<g>
		<path class="st0" d="M100.1,61.3c-0.9-0.2-1.8,0.4-2,1.3c0,0,0,0,0,0.1c-0.2,0.9,0.4,1.8,1.3,1.9c0.1,0,0.2,0,0.3,0
			c0.8,0,1.5-0.6,1.6-1.3l0,0C101.5,62.4,101,61.5,100.1,61.3z"/>
	</g>
</g>
<g>
	<g>
		<path class="st0" d="M105.5,78.1L105.5,78.1c-0.9,0-1.7,0.7-1.7,1.7c0,0.9,0.7,1.7,1.7,1.7l0,0c0.9,0,1.7-0.7,1.7-1.7
			S106.4,78.1,105.5,78.1z"/>
	</g>
</g>
<g>
	<g>
		<path class="st0" d="M144,34.8c-0.2-0.5-0.5-0.8-1-1l-21.3-5.6v-6.5c0-2.7-2.2-5-5-5c-1,0-1.9,0.3-2.7,0.8l-5.8-9
			c-0.3-0.4-0.7-0.7-1.2-0.7s-0.9,0.2-1.2,0.7L97,22.4c-0.4-0.1-0.8-0.2-1.3-0.2c-2.7,0-5,2.2-5,5v1.5L71,33.9c-0.5,0.1-0.9,0.5-1,1
			c-0.2,0.5-0.1,1,0.3,1.4l14.6,17.8l-1.3,23c0,0.5,0.2,1,0.6,1.3c0.3,0.2,0.5,0.3,0.9,0.3c0.2,0,0.4,0,0.5-0.1l10.4-4v2.7
			c0,0.8,0.6,1.4,1.4,1.4h16.7c0.8,0,1.4-0.6,1.4-1.4v-3.7l12.9,5c0.2,0.1,0.3,0.1,0.5,0.1c0.3,0,0.6-0.1,0.9-0.3
			c0.4-0.3,0.6-0.8,0.6-1.3l-1.3-23l14.6-17.8C144,35.8,144.1,35.3,144,34.8z M114.7,21.8c0-1.1,0.9-2.1,2.1-2.1
			c1.1,0,2.1,0.9,2.1,2.1V40c-0.2,0-0.3,0-0.5,0h-3.6L114.7,21.8L114.7,21.8z M107,12.1l5.1,7.9c-0.2,0.6-0.3,1.1-0.3,1.8V33
			c-0.6-0.3-1.3-0.5-2.1-0.5c-1.4,0-2.6,0.6-3.5,1.5c-0.9-0.9-2.1-1.5-3.5-1.5c-0.7,0-1.4,0.2-2.1,0.5v-5.8c0-1.2-0.5-2.4-1.2-3.3
			L107,12.1z M107.7,40.5v-3c0-1.1,0.9-2.1,2.1-2.1c1.1,0,2.1,0.9,2.1,2.1V40h-2.1l0,0C109,40,108.3,40.2,107.7,40.5z M104.8,37.5
			L104.8,37.5V45v3.6c0,1.1-0.9,2.1-2.1,2.1c-1.1,0-2.1-0.9-2.1-2.1v-6.4v-4.7c0-1.1,0.9-2.1,2.1-2.1S104.8,36.4,104.8,37.5z
			 M96,71.3l-9.4,3.6l1.2-21.3c0-0.4-0.1-0.7-0.3-1L74,36.1l16.8-4.4v9.9v11.8c0,4.6,2,8.9,5.2,11.9V71.3L96,71.3z M113.4,65.1
			L113.4,65.1L113.4,65.1L113.4,65.1C113.3,65.1,113.3,65.2,113.4,65.1c-0.1,0.1-0.1,0.1-0.2,0.1c0,0,0,0-0.1,0c0,0,0,0-0.1,0.1l0,0
			c0,0,0,0-0.1,0.1l0,0c0,0,0,0,0,0.1l0,0c0,0,0,0,0,0.1c0,0,0,0,0,0.1c0,0,0,0,0,0.1v0.1l0,0V66c0,0,0,0,0,0.1v0.1c0,0,0,0,0,0.1
			c0,0,0,0,0,0.1v0.1l0,0l0,0l0,0v9.3H99.1v-1.6h3.9c0.8,0,1.4-0.6,1.4-1.4s-0.6-1.4-1.4-1.4h-3.9v-3.7c0.8,0.5,1.7,0.9,2.6,1.2
			c0.2,0.1,0.3,0.1,0.5,0.1c0.6,0,1.1-0.4,1.4-0.9c0.3-0.8-0.1-1.6-0.9-1.9c-5.3-1.9-8.8-7-8.8-12.6v-12V27.2c0-1.1,0.9-2.1,2.1-2.1
			c1.1,0,2.1,0.9,2.1,2.1v10.3v4.7v6.4c0,2.5,1.9,4.6,4.4,4.9c-0.3,0.6,0,1.4,0.6,1.8c0.2,0.1,0.5,0.2,0.8,0.2c0.5,0,1-0.2,1.2-0.7
			c1.8-3,5.2-4.9,8.7-4.9h1.4c0.8,0,1.4-0.6,1.4-1.4s-0.6-1.4-1.4-1.4h-5.1c-1.1,0-2.1-0.9-2.1-2.1c0-1.1,0.9-2.1,2.1-2.1h8.6
			c0.4,0,0.8,0.1,1.1,0.3c0,0,0,0,0.1,0c0.5,0.4,0.9,1,0.9,1.7v8.4C120.4,58.3,117.7,62.8,113.4,65.1z M126.6,52.6
			c-0.2,0.3-0.3,0.6-0.3,1l1.2,21.3l-11.9-4.6v-3.1c4.8-3,7.7-8.2,7.7-13.8V45c0-1.4-0.6-2.7-1.6-3.6V31.3l18.4,4.8L126.6,52.6z"/>
	</g>
</g>
<g>
	<g>
		<path class="st0" d="M65.3,44.8c-18.9,0-37.7,0-56.6,0c-1.9,0-1.9,3,0,3c1.7,0,3.5,0,5.2,0c1.9,0,1.9-3,0-3c-1.7,0-3.5,0-5.2,0
			c-1.9,0-1.9,3,0,3c18.9,0,37.7,0,56.6,0C67.3,47.8,67.3,44.8,65.3,44.8L65.3,44.8z"/>
	</g>
</g>
<g>
	<g>
		<path class="st0" d="M204.3,44.8c-18.9,0-37.7,0-56.6,0c-1.9,0-1.9,3,0,3c1.7,0,3.5,0,5.2,0c1.9,0,1.9-3,0-3c-1.7,0-3.5,0-5.2,0
			c-1.9,0-1.9,3,0,3c18.9,0,37.7,0,56.6,0C206.3,47.8,206.3,44.8,204.3,44.8L204.3,44.8z"/>
	</g>
</g>
</svg>
