<?xml version="1.0" encoding="utf-8"?>
<!-- Generator: Adobe Illustrator 21.0.0, SVG Export Plug-In . SVG Version: 6.00 Build 0)  -->
<svg version="1.1" id="Layer_1" xmlns="http://www.w3.org/2000/svg" xmlns:xlink="http://www.w3.org/1999/xlink" x="0px" y="0px"
	 viewBox="0 0 479 479" style="enable-background:new 0 0 479 479;" xml:space="preserve">
<style type="text/css">
	.st0{fill:#FBEBD5;}
</style>
<g>
	<g>
		<path class="st0" d="M303.7,188.8l15.4-15.4c3.8-3.8,3.8-10.1,0-13.9c-3.8-3.8-10.1-3.8-13.9,0l-15.4,15.4l-13.6-13.6
			c-3.8-3.8-10.1-3.8-13.9,0c-3.8,3.8-3.8,10.1,0,13.9l13.6,13.6l-18.9,18.9L243.3,194c-3.8-3.8-10.1-3.8-13.9,0
			c-3.8,3.8-3.8,10.1,0,13.9l13.6,13.6l-18.9,18.9l-13.6-13.6c-3.8-3.8-10.1-3.8-13.9,0c-3.8,3.8-3.8,10.1,0,13.9l13.6,13.6
			l-18.9,18.9l-13.6-13.6c-3.8-3.8-10.1-3.8-13.9,0c-3.8,3.8-3.8,10.1,0,13.9l13.6,13.6l-15.4,15.4c-3.8,3.8-3.8,10.1,0,13.9
			c1.9,1.9,4.4,2.9,7,2.9s5-1,7-2.9l15.4-15.4l13.6,13.6c1.9,1.9,4.4,2.9,7,2.9s5-1,7-2.9c3.8-3.8,3.8-10.1,0-13.9l-13.6-13.6
			l18.9-18.9l13.6,13.6c1.9,1.9,4.4,2.9,7,2.9s5-1,7-2.9c3.8-3.8,3.8-10.1,0-13.9L238,254.4l18.9-18.9l13.6,13.6
			c1.9,1.9,4.4,2.9,7,2.9c2.5,0,5-1,7-2.9c3.8-3.8,3.8-10.1,0-13.9l-13.6-13.6l18.9-18.9l13.6,13.6c1.9,1.9,4.4,2.9,7,2.9
			c2.5,0,5-1,7-2.9c3.8-3.8,3.8-10.1,0-13.9L303.7,188.8z"/>
	</g>
</g>
<g>
	<g>
		<path class="st0" d="M463.4,62.4c-4-24.3-23-43.3-47.3-47.3c-43.8-7.2-88.9-5.9-132.2,3.7c-0.2,0-0.4,0.1-0.6,0.1
			c-9.1,2-18.2,4.4-27.1,7.2C203.1,42.7,154.1,72.4,114.5,112c-39.6,39.6-69.3,88.6-85.8,141.7c-2.7,8.8-5.1,17.7-7.1,26.6
			c-0.1,0.5-0.2,0.9-0.3,1.4c-9.5,43.2-10.8,88.2-3.7,131.9c4,24.3,23,43.3,47.3,47.3c18.6,3.1,37.5,4.6,56.3,4.6
			c25.4,0,50.7-2.8,75.4-8.2c0.5-0.1,1-0.2,1.5-0.3c9-2,17.8-4.4,26.6-7.1c53.1-16.5,102.1-46.2,141.7-85.8
			c39.6-39.6,69.3-88.6,85.8-141.7c2.8-8.9,5.2-17.9,7.2-27.1c0.1-0.2,0.1-0.5,0.2-0.7C469.3,151.3,470.6,106.2,463.4,62.4z
			 M68.1,441.5c-16-2.6-28.5-15.1-31.1-31.1c-5.8-35.4-5.7-71.7,0.1-107.1l138.1,138.1C139.9,447.2,103.5,447.3,68.1,441.5z
			 M433.5,216.5c-15.6,50.1-43.6,96.3-80.9,133.6C315.3,387.4,269,415.4,219,431c-6.8,2.1-13.7,4-20.6,5.7L41.8,280.1
			c1.7-6.9,3.6-13.8,5.7-20.6c15.6-50.1,43.6-96.3,80.9-133.6C165.8,88.6,212,60.6,262,45c6.8-2.1,13.6-4,20.6-5.7l156.6,156.6
			C437.5,202.8,435.6,209.7,433.5,216.5z M443.9,172.7L305.8,34.6c17.8-2.9,35.9-4.4,53.9-4.4c17.8,0,35.6,1.4,53.2,4.3
			c16,2.6,28.5,15.1,31.1,31.1C449.8,101,449.7,137.4,443.9,172.7z"/>
	</g>
</g>
<g>
	<g>
		<path class="st0" d="M269.9,68.1c-1.8-5.1-7.4-7.9-12.5-6.1c-44.7,15.5-84.6,40.5-118.5,74.4c-3.8,3.8-3.8,10.1,0,13.9
			c1.9,1.9,4.4,2.9,7,2.9s5-1,7-2.9c31.8-31.8,69.1-55.2,111-69.7C269,78.8,271.7,73.2,269.9,68.1z"/>
	</g>
</g>
</svg>
