<?xml version="1.0" encoding="utf-8"?>
<!-- Generator: Adobe Illustrator 21.0.0, SVG Export Plug-In . SVG Version: 6.00 Build 0)  -->
<svg version="1.1" id="Layer_1" xmlns="http://www.w3.org/2000/svg" xmlns:xlink="http://www.w3.org/1999/xlink" x="0px" y="0px"
	 viewBox="0 0 512 512" style="enable-background:new 0 0 512 512;" xml:space="preserve">
<style type="text/css">
	.st0{fill:#FBEBD5;}
</style>
<g>
	<g>
		<path class="st0" d="M305.3,218.9l13.5-13.5c3.4-3.4,3.4-8.8,0-12.2c-3.4-3.4-8.8-3.4-12.2,0l-13.5,13.5l-11.9-11.9
			c-3.4-3.4-8.8-3.4-12.2,0c-3.4,3.4-3.4,8.8,0,12.2l11.9,11.9l-16.5,16.5l-11.9-11.9c-3.4-3.4-8.8-3.4-12.2,0
			c-3.4,3.4-3.4,8.8,0,12.2l11.9,11.9l-16.5,16.5l-11.9-11.9c-3.4-3.4-8.8-3.4-12.2,0c-3.4,3.4-3.4,8.8,0,12.2l11.9,11.9l-16.5,16.5
			L195,281c-3.4-3.4-8.8-3.4-12.2,0c-3.4,3.4-3.4,8.8,0,12.2l11.9,11.9l-13.5,13.5c-3.4,3.4-3.4,8.8,0,12.2c1.7,1.7,3.9,2.5,6.1,2.5
			c2.2,0,4.4-0.8,6.1-2.5l13.5-13.5l11.9,11.9c1.7,1.7,3.9,2.5,6.1,2.5s4.4-0.8,6.1-2.5c3.4-3.4,3.4-8.8,0-12.2l-11.9-11.9
			l16.5-16.5l11.9,11.9c1.7,1.7,3.9,2.5,6.1,2.5s4.4-0.8,6.1-2.5c3.4-3.4,3.4-8.8,0-12.2l-11.9-11.9l16.5-16.5l11.9,11.9
			c1.7,1.7,3.9,2.5,6.1,2.5s4.4-0.8,6.1-2.5c3.4-3.4,3.4-8.8,0-12.2l-11.9-11.9l16.5-16.5L305,243c1.7,1.7,3.9,2.5,6.1,2.5
			s4.4-0.8,6.1-2.5c3.4-3.4,3.4-8.8,0-12.2L305.3,218.9z"/>
	</g>
</g>
<g>
	<g>
		<path class="st0" d="M445,108.4c-3.5-21.3-20.1-37.9-41.4-41.4c-38.3-6.3-77.8-5.2-115.6,3.2c-0.2,0-0.4,0.1-0.6,0.1
			c-8,1.8-15.9,3.9-23.7,6.3c-46.4,14.5-89.3,40.4-123.9,75.1c-34.6,34.6-60.6,77.5-75.1,123.9c-2.4,7.7-4.5,15.4-6.2,23.3
			c-0.1,0.4-0.2,0.8-0.3,1.2c-8.3,37.7-9.5,77.2-3.2,115.4c3.5,21.3,20.1,37.9,41.4,41.4c16.3,2.7,32.8,4,49.3,4
			c22.2,0,44.4-2.4,66-7.2c0.5-0.1,0.9-0.2,1.4-0.3c7.8-1.8,15.6-3.8,23.3-6.2c46.4-14.5,89.3-40.4,123.9-75.1
			c34.6-34.6,60.6-77.5,75.1-123.9c2.4-7.8,4.5-15.7,6.3-23.7c0.1-0.2,0.1-0.4,0.1-0.6C450.1,186.2,451.3,146.7,445,108.4z
			 M99.2,440c-14-2.3-24.9-13.2-27.2-27.2c-5.1-31-5-62.8,0.1-93.7l120.8,120.8C162,445,130.2,445.1,99.2,440z M418.8,243.2
			c-13.6,43.8-38.1,84.2-70.8,116.9c-32.7,32.7-73.1,57.1-116.9,70.8c-5.9,1.9-12,3.5-18,5L76.2,298.8c1.5-6.1,3.1-12.1,5-18
			c13.6-43.8,38.1-84.2,70.8-116.9c32.7-32.7,73.1-57.1,116.9-70.8c5.9-1.8,11.9-3.5,18-4.9l137,137
			C422.3,231.2,420.7,237.2,418.8,243.2z M427.9,204.9L307.1,84.1c15.6-2.6,31.4-3.9,47.2-3.9c15.6,0,31.2,1.3,46.5,3.8
			c14,2.3,24.9,13.2,27.2,27.2C433.1,142.2,433,174,427.9,204.9z"/>
	</g>
</g>
<g>
	<g>
		<path class="st0" d="M275.7,113.4c-1.6-4.5-6.5-6.9-11-5.3c-39.1,13.5-74,35.4-103.7,65.1c-3.4,3.4-3.4,8.8,0,12.2
			c1.7,1.7,3.9,2.5,6.1,2.5s4.4-0.8,6.1-2.5c27.8-27.8,60.5-48.3,97.1-61C274.9,122.8,277.3,117.9,275.7,113.4z"/>
	</g>
</g>
</svg>
