<?xml version="1.0" encoding="utf-8"?>
<!-- Generator: Adobe Illustrator 21.0.0, SVG Export Plug-In . SVG Version: 6.00 Build 0)  -->
<svg version="1.1" id="Layer_1" xmlns="http://www.w3.org/2000/svg" xmlns:xlink="http://www.w3.org/1999/xlink" x="0px" y="0px"
	 viewBox="0 0 479 479" style="enable-background:new 0 0 479 479;" xml:space="preserve">
<style type="text/css">
	.st0{fill:#FBEBD5;}
</style>
<g>
	<g>
		<path class="st0" d="M290.9,199.5l12.5-12.5c3.1-3.1,3.1-8.2,0-11.3c-3.1-3.1-8.2-3.1-11.3,0l-12.5,12.5l-11.1-11.1
			c-3.1-3.1-8.2-3.1-11.3,0c-3.1,3.1-3.1,8.2,0,11.3l11.1,11.1l-15.4,15.4l-11.1-11.1c-3.1-3.1-8.2-3.1-11.3,0
			c-3.1,3.1-3.1,8.2,0,11.3l11.1,11.1l-15.4,15.4l-11.1-11.1c-3.1-3.1-8.2-3.1-11.3,0c-3.1,3.1-3.1,8.2,0,11.3l11.1,11.1l-15.4,15.4
			l-11.1-11.1c-3.1-3.1-8.2-3.1-11.3,0c-3.1,3.1-3.1,8.2,0,11.3l11.1,11.1l-12.5,12.5c-3.1,3.1-3.1,8.2,0,11.3
			c1.6,1.6,3.6,2.3,5.7,2.3c2,0,4.1-0.8,5.7-2.3l12.5-12.5l11.1,11.1c1.6,1.6,3.6,2.3,5.7,2.3c2,0,4.1-0.8,5.7-2.3
			c3.1-3.1,3.1-8.2,0-11.3l-11.1-11.1l15.4-15.4l11.1,11.1c1.6,1.6,3.6,2.3,5.7,2.3c2,0,4.1-0.8,5.7-2.3c3.1-3.1,3.1-8.2,0-11.3
			l-11.1-11.1l15.4-15.4l11.1,11.1c1.6,1.6,3.6,2.3,5.7,2.3s4.1-0.8,5.7-2.3c3.1-3.1,3.1-8.2,0-11.3l-11.1-11.1l15.4-15.4l11.1,11.1
			c1.6,1.6,3.6,2.3,5.7,2.3c2,0,4.1-0.8,5.7-2.3c3.1-3.1,3.1-8.2,0-11.3L290.9,199.5z"/>
	</g>
</g>
<g>
	<g>
		<path class="st0" d="M420.7,96.7C417.5,77,402,61.5,382.3,58.3c-35.6-5.9-72.3-4.8-107.4,3c-0.2,0-0.3,0.1-0.5,0.1
			c-7.4,1.7-14.8,3.6-22,5.9c-43.2,13.4-83,37.6-115.2,69.8c-32.2,32.2-56.3,72-69.8,115.2c-2.2,7.1-4.1,14.4-5.8,21.6
			c-0.1,0.4-0.2,0.8-0.3,1.2c-7.8,35.1-8.8,71.7-3,107.2c3.2,19.8,18.7,35.2,38.5,38.5c15.1,2.5,30.5,3.7,45.8,3.7
			c20.6,0,41.2-2.2,61.3-6.7c0.4-0.1,0.8-0.1,1.3-0.3c7.3-1.6,14.5-3.6,21.6-5.8c43.2-13.5,83-37.6,115.2-69.8
			c32.2-32.2,56.3-72,69.8-115.2c2.3-7.2,4.2-14.6,5.9-22c0-0.2,0.1-0.4,0.1-0.6C425.5,169,426.6,132.3,420.7,96.7z M99.4,404.9
			c-13-2.1-23.1-12.3-25.3-25.3c-4.7-28.8-4.7-58.3,0.1-87.1l112.3,112.3C157.7,409.6,128.1,409.7,99.4,404.9z M396.4,222
			c-12.7,40.7-35.4,78.3-65.8,108.6c-30.4,30.4-67.9,53.1-108.6,65.8c-5.5,1.7-11.1,3.3-16.8,4.6L78,273.7
			c1.4-5.6,2.9-11.2,4.6-16.8c12.7-40.7,35.4-78.3,65.8-108.6C178.7,118,216.3,95.3,257,82.6c5.5-1.7,11.1-3.2,16.7-4.6L401,205.3
			C399.7,210.9,398.1,216.5,396.4,222z M404.8,186.4L292.6,74.2c14.5-2.4,29.2-3.6,43.8-3.6c14.5,0,29,1.2,43.2,3.5
			c13,2.1,23.1,12.3,25.3,25.3C409.7,128.1,409.6,157.7,404.8,186.4z"/>
	</g>
</g>
<g>
	<g>
		<path class="st0" d="M263.4,101.3c-1.4-4.2-6-6.4-10.2-5c-36.4,12.6-68.8,32.9-96.3,60.5c-3.1,3.1-3.1,8.2,0,11.3
			c1.6,1.6,3.6,2.3,5.7,2.3s4.1-0.8,5.7-2.3c25.8-25.8,56.2-44.9,90.2-56.7C262.6,110.1,264.8,105.5,263.4,101.3z"/>
	</g>
</g>
</svg>
